<mxfile host="app.diagrams.net" agent="Mozilla/5.0 (X11; Linux x86_64; rv:134.0) Gecko/20100101 Firefox/134.0" version="26.0.10">
  <diagram name="Page-1" id="MWzEE2ussYUeQRQaK8gi">
    <mxGraphModel dx="1018" dy="638" grid="1" gridSize="10" guides="1" tooltips="1" connect="1" arrows="1" fold="1" page="1" pageScale="1" pageWidth="1169" pageHeight="827" math="0" shadow="0">
      <root>
        <mxCell id="0" />
        <mxCell id="1" parent="0" />
        <mxCell id="pwwUaT36gZQOdsGTII0K-1" value="Daily DynamicGuard transit" style="swimlane;fontStyle=0;childLayout=stackLayout;horizontal=1;startSize=30;horizontalStack=0;resizeParent=1;resizeParentMax=0;resizeLast=0;collapsible=1;marginBottom=0;whiteSpace=wrap;html=1;" vertex="1" parent="1">
          <mxGeometry x="65" y="245" width="160" height="90" as="geometry" />
        </mxCell>
        <mxCell id="pwwUaT36gZQOdsGTII0K-2" value="Road&lt;span style=&quot;white-space: pre;&quot;&gt;&#x9;&lt;/span&gt;&lt;span style=&quot;white-space: pre;&quot;&gt;&#x9;&lt;/span&gt;&lt;span style=&quot;white-space: pre;&quot;&gt;&#x9;&lt;/span&gt;County" style="text;strokeColor=none;fillColor=none;align=left;verticalAlign=middle;spacingLeft=4;spacingRight=4;overflow=hidden;points=[[0,0.5],[1,0.5]];portConstraint=eastwest;rotatable=0;whiteSpace=wrap;html=1;" vertex="1" parent="pwwUaT36gZQOdsGTII0K-1">
          <mxGeometry y="30" width="160" height="30" as="geometry" />
        </mxCell>
        <mxCell id="pwwUaT36gZQOdsGTII0K-3" value="City&lt;span style=&quot;white-space: pre;&quot;&gt;&#x9;&lt;/span&gt;&lt;span style=&quot;white-space: pre;&quot;&gt;&#x9;&lt;/span&gt;&lt;span style=&quot;white-space: pre;&quot;&gt;&#x9;&lt;/span&gt;&lt;span style=&quot;white-space: pre;&quot;&gt;&#x9;&lt;/span&gt;State" style="text;strokeColor=none;fillColor=none;align=left;verticalAlign=middle;spacingLeft=4;spacingRight=4;overflow=hidden;points=[[0,0.5],[1,0.5]];portConstraint=eastwest;rotatable=0;whiteSpace=wrap;html=1;" vertex="1" parent="pwwUaT36gZQOdsGTII0K-1">
          <mxGeometry y="60" width="160" height="30" as="geometry" />
        </mxCell>
        <mxCell id="pwwUaT36gZQOdsGTII0K-7" value="" style="shape=image;verticalLabelPosition=bottom;labelBackgroundColor=default;verticalAlign=top;aspect=fixed;imageAspect=0;image=data:image/png,iVBORw0KGgoAAAANSUhEUgAAAfQAAAH0CAYAAADL1t+KAAAgAElEQVR4XuydBXRVR7i2E1yDuzsUKO5S3KVAKe7u7u7uWtydFmuheLEiBYpT3N1dk/+ZXvhv21sJkJyz9z5v1jorIZzsPfPMTt6ZT7299CECIiACIiACImB7At62n4EmIAIiIAIiIAIi4CVB10MgAiIgAiIgAg4gIEF3wCJqCiIgAiIgAiIgQdczIAIiIAIiIAIOICBBd8AiagoiIAIiIAIiIEHXMyACIiACIiACDiAgQXfAImoKIiACIiACIiBB1zMgAiIgAiIgAg4gIEF3wCJqCiIgAiIgAiIgQdczIAIiIAIiIAIOICBBd8AiagoiIAIiIAIiIEHXMyACIiACIiACDiAgQXfAImoKIiACIiACIiBB1zMgAiIgAiIgAg4gIEF3wCJqCiIgAiIgAiIgQdczIAIiIAIiIAIOICBBd8AiagoiIAIiIAIiIEHXMyACIiACIiACDiAgQXfAImoKIiACIiACIiBB1zMgAiIgAiIgAg4gIEF3wCJqCiIgAiIgAiIgQdczIAIiIAIiIAIOICBBd8AiagoiIAIiIAIiIEHXMyACIiACIiACDiAgQXfAImoKIiACIiACIiBB1zMgAiIgAiIgAg4gIEF3wCJqCiIgAiIgAiIgQdczIAIiIAIiIAIOICBBd8AiagoiIAIiIAIiIEHXMyACIiACIiACDiAgQXfAImoKIiACIiACIiBB1zMgAiIgAiIgAg4gIEF3wCJqCiIgAiIgAiIgQdczIAIiIAIiIAIOICBBd8AiagoiIAIiIAIiIEHXMyACIiACIiACDiAgQXfAImoKIiACIiACIiBB1zMgAiIgAiIgAg4gIEF3wCJqCiIgAiIgAiIgQdczIAIiIAIiIAIOICBBd8AiagoiIAIiIAIiIEHXMyACIiACIiACDiAgQXfAImoKIiACIiACIiBB1zMgAiIgAiIgAg4gIEF3wCJqCiIgAiIgAiIgQdczIAIiIAIiIAIOICBBd8AiagoiIAIiIAIiIEHXMyACIiACIiACDiAgQXfAImoKIiACIiACIiBB1zMgAiIgAiIgAg4gIEF3wCJqCiIgAiIgAiIgQdczIAIiIAIiIAIOICBBd8AiagoiIAIiIAIiIEHXMyACIiACIiACDiAgQXfAImoKIiACIiACIiBB1zMgAiIgAiIgAg4gIEF3wCJqCiIgAiIgAiIgQdczIAIiIAIiIAIOICBBd8AiagoiIAIiIAIiIEHXMyACIiACIiACDiAgQXfAImoKIiACIiACIiBB1zMgAiIgAiIgAg4gIEF3wCJqCiIgAiIgAiIgQdczIAIiIAIiIAIOICBBd8AiagoiIAIiIAIiIEHXMyACIiACIiACDiAgQXfAImoKIiACIiACIiBB1zMgAiIgAiIgAg4gIEF3wCJqCiIgAiIgAiIgQdczIAIiIAIiIAIOICBBd8AiagoiIAIiIAIiIEHXMyACIiACIiACDiAgQXfAImoKIiACIiACIiBB1zMgAiIgAiIgAg4gIEF3wCJqCiIgAiIgAiIgQdczIAIiIAIiIAIOICBBd8AiagoiIAIiIAIiIEHXMyACIiACIiACDiAgQXfAImoKIiACIiACIiBB1zMgAiIgAiIgAg4gIEF3wCJqCiIgAiIgAiIgQdczIAIiIAIiIAIOICBBd8AiagoiIAIiIAIiIEHXMyACIiACIiACDiAgQXfAImoKIiACIiACIiBB1zMgAiIgAiIgAg4gIEF3wCJqCiIgAiIgAiIgQdczIAIiIAIiIAIOICBBd8AiagoiIAIiIAIiIEHXMyACIiACIiACDiAgQXfAImoKIiACIiACIiBB1zMgAiIgAiIgAg4gIEF3wCJqCiIgAiIgAiIgQdczIAIiIAIiIAIOICBBd8AiagoiIAIiIAIiIEHXMyACIiACIiACDiAgQXfAImoKIiACIiACIiBB1zMgAiIgAiIgAg4gIEF3wCJqCiIgAiIgAiIgQdczIAIiIAIiIAIOICBBd8AiagoiIAIiIAIiIEHXMyACIiACIiACDiAgQXfAImoKIiACIiACIiBB1zMgAiIgAiIgAg4gIEF3wCJqCiIgAiIgAiIgQdczIAIiIAIiIAIOICBBd8AiagoiIAIiIAIiIEHXMyACIvC3BLZs2RIsfPjwId68eROMjz/9rXjx4oVvrly5Xnl7e790N75ffvkl+OPHj0OmTp36/w/l2LFjXsGDB/99zO/HnjhxYt9o0aK9dvWY/fz8vPfv3x86fvz4QQ4ePOgXIkQI71SpUvnFiBHjNcMz4/FzN0Pd3xkEJOjOWEfNQgQCjAACFHT48OFRJkyYUODZs2eZeMUNHTq095MnT7z57PXy5cvHUaJE2RMmTJif+vbte/brr79+G2A39+eFjEiOHj06ApuOpPv27cv96NGj9Pzo73/PQoUK5fX69esgfHgz1t///erVq5dBgwbd7+vruxXxP+EqEf3mm2/CrFu3Lu/69euLMKaIjCUYQ/RlXPf5vLZWrVo7pkyZ8syf09bbROBfCUjQ9YCIgAj8TgCRDNG8efOEK1eurHrr1q2vEcH4Rh8RvyBhw4Z9i7BfRcTXJ0iQYPkXX3yxE8F/6iphfL9EZoxNmzaNu3bt2sJXr16th0Cnfvv2bTCEMjhfe/G1F0LuZb7mZP4GEX3AJuSXkCFDLi1btuyaGTNm3HHFmH/44YeQrVu3Ln7q1KlmjC07Fo2Q5r58PGcuO8qUKTO0evXqO92xGdLj7lwCEnTnrq1mJgL+IsApMviJEyei7ty5M+/58+er3717Nz/CE9qccLnAK062j/j3vpgxYy7ErL2JE+ctxMmlp/IlS5YEPX36dNQ5c+aUvHjxYjUEMh0m9Ui4A7zNOI2QMyavcOHC+fF/6Pjr14j4bUR9bN68eVe1aNHiSokSJQLdPQCnIFWqVIm5adOmcrdv324Gu2RmbIj6W8Z1jzEvLV++/ORFixadcjVDfz0MepOtCUjQbb18GrwIfBwBY7LmlBu+VatWeTh5579z504xxDERJ9tQiKIvZum7+M93RYgQYWvGjBl/yJkz5+3OnTs//Li7fdpPGV9+jRo1amM1aInVIAlWglCIYxAj4Aj276dxxv6GOb3CP30Y8fw5e/bsixnz2V69et13hXD++OOPYbt27Zrh0qVLxWBZnhknYKMRnM9vuP92xrQS8/r3JUuWvOGKjcWnEddP25WABN2uK6dxi8BHEDAnyKVLl4aZNm1aCk685a5du1aNw2xsTpJBEUbjZ36OaB7hJL6sYsWKyxHEewjSq4+4VYD9iNl8JEqUqCxiOZixJDYmdnNxI+Z8/Zb/v8/m4w6n30VJkyZdOXLkyHME7D1xhWndbDbgaSwH9eFW0Ww4EPKg3PsJQ7vH5mht6dKlJy9YsOC8q4PxAmwBdCHbEJCg22apNFAR+HgCRngIvkrK55KITqb79+8XQggjcKINhgC94sS7P06cOFt9fHzWd+jQ4USdOnXMyfbNx9/xw3+SaPUw/NTrzJkzm+jvP31gcg+xcOHCJASXdTLCiTk9CEF6lyNFirQVMd+I739bmjRp7rvq9Mt4QsMz4YEDB+rcu3cvFxuh9PjqQ8LR+Mh3M761mPlXfPXVV5f/bj4fTkc/IQL/TUCC/t+M9A4RsC0Bc7qdO3dutP79+xflNF4TwcmKiId5/vx50HdBY7ejRo26Om3atJMGDBhwKkeOHC9ccbJ9D9SMb+jQoeE2btyYBEGvFDly5PMdO3Zc3bBhwxt/Nw6CyZIi6u2wsMch9Wt63bp1fyL4zJzGXbL5MOMdP358LCwXDYisL4mQp4FjiKdPn75lDPciRoy4LF++fNO+/fbbkzqR2/bXxrYDl6Dbduk0cBH4ZwImyvry5cuRiUTPcuPGjQr4n0sgPJE4OXrjM3+CMJ0i9ewIgW6Libbei3/8gSuF3OSOEzgWDXN1OiLBS5PGlZv7f8aG40ns2LGXkbM9sU+fPr8VKVLk2R/HZQR11apV4YhwD9akSZNHrvCPG8rGwnHy5MkYw4YNy3b9+vUKbIjKYs0Ihagbd8RVNkUbyARYzaZoZ7Vq1R67kqV+D0TgPQEJup4FEXAQAZNDjuhEmzVrVsULFy5UQSgTGCFHYILh0zVR3ofjxYs3l6Cx9Qj6nbFjx5rUM5dFrDO+4Ahe7G3bthXGVN0AAY+H7z4q/u9g+PJ/z3NHLJ9z0j3J+GZiQp89bty4R+5aIhNzMHHixDjk5Re5cuVKbVgmJcDNB3O/KbjzCFFfQsGaRe3atTvIvFzK0l1MdF/rEpCgW3dtNDIR8DcBk59dr169qJwkCyA0JThFFkXAIyBAvgjlHQRyN9Hhu8kfX4U5+0L+/Plf+Pvin/hGc6pmgxFhzZo10fbs2VMM83QhfPi5MP1HZDMRlPH+fgdTAMaYrhH1B/j1f8Y3/gNCOh8LgssF3ZzIKVgTdcWKFdmwJlRj01HMuCrYgLzh6+uMdRNi/guBg0sxwZvAQVV7+8TnRD/+6QQk6J/OUFcQAbcRMGKJWT0+fugqiPiXiHgKvhcG36753X6COG5KkiTJfFK4duNvvuvKAC1zukXIfTCrZ9+6dWs9hDs9AW0xEOswpliNGbtJOePfvrgCzMn8thFJfOOz8Onvnjp16k3e938C5AITthkzwW6RMfeXZtPRCAGPwxiiI+ZB+fom49xDGt+EL7/8ci++/ueu8t0H5px1becQkKA7Zy01Ew8jYMqKLlu2LAsnyAaYgMtgtg6Df/wtp3JTL/wwEeCLEPLFVFa7yYncJUFj75fACGOhQoWSUru8Hab1fPiXkyDYQUxddVNoxbz+J1PO16SdvWbjcZw662OaNWu2uWDBgrddufH4w5i9cUWk/e2331qSh1+SU3gMRNyM9RVCfg4XwPBBgwatrFmzpskA8PWwx03TtQEBCboNFklDFIE/EsCnHJuTb1aCtMoiOEUQxCiIo/FB36UQzOZYsWKtMydcUqsuuDLS2gS6cbKNiyDmxn9fgE1FJk7kyXiFNBYD/m1O4V6Ity+fX7IBOYwrYAM55uszZcp0FZeBy1O8jJVgxIgRUZYvX56dcefH5F+M7yWBd3DG/ZgNyG4C3hayIdpDcZvzrkqL0xMvAh9DQIL+MdT0MyLgBgIm4I3Ta8xDhw5150ReGpGMjugEMxXSOE2eIOVrLgVVFpGvbUzVLgt0MyiMmFPytAhV0hpjqs4bPXr0METWm3o1poD57/XVTTE3BPItnx/iH/8O64FJlTvJadwtzUlMgF7RokWT7NixoxnBg6UZY2ymYoIHTfW5U3RDm/fZZ58t7dmz51lXWzjc8Hjplg4gIEF3wCJqCs4mgPAEwxQdlVKtpRDJCpwiv0Cwg/P9hwjkb/iddxO5Pm/69OlH3WGqfi/oNBr5ilrwHTmJp2Rsod6VZP29jjmCeRdxv8RY98eNG3dJ5cqVD3Xp0sUtwWRUdQs7ZsyYeKT1Vca0XocNRkysG6b6nDH9n0fQ937++edTyBbY78rgQWc/xZqdKwhI0F1BWfcQgY8k0KlTpwjz588vTcOUMpjXv6CUaERTxxwBuk+Z00F0PtvUvXv3cxQzcXnns79OyeS+t2nTJue5c+f6Mz5TwCaoaZKCuB8jt3w6Yrkbk/VpV6fKvR+n8eu3bNkyNkVfmj548KAQ40uNNSHUuwDCR2w8ZhJA+O3gwYMPFS9e3BSrkZ/8I59b/Zh7CEjQ3cNddxWBfyVgmn0g5umOHj3aFiEqiDk4LNpo8sgvYQr+kSCzBWfPnj3s6jrrjCUkEeve/3RyNdYEosC/OH78eFNOuhzIfX4mInw+/me3ma1NSVliDuKTglYWl0B13BQpsB6YxilP4HjOeAwoezuT9+zHDWBKt+pDBGxJQIJuy2XToJ1KwARpUco0OX27TdGVLzjVpqAamUnzekoA2XyC3lZWqlRpN6dIU43MZSdIM64GDRpEp+xqJfz3QdhsTOf1+O/WwZyER48eHYO+6kEHDhx419XlZP9wIg/WuHHj5N9//30N0xIW0/pn/F/Yd6lyL4laH4qvfxNxB0cpHvPQlTyd+vxqXu4lIEF3L3/dXQT+PwFM65EwCZdEwOsjPllM5DqfTRraQYrCzCdlag6+9CeuRGaEfMiQIT6LFy/OTFR9XaLTi5lmLgjhbIqqTKUl6CV3+e3/jQNmfR82PcUpe9sZjmmxFgQhqt6Pzy94/UjMwQzy3LcQFPfUlTx1LxEITAIS9MCkq2uLgD8IGDM2XbmSbt++vSJibhqomGhrX3y8ZziRL0Z8NhFBfoQuaC4THyPkdDCLTER9UtK5quJzLsAJNhliGMJ0LGWTYczVe1KmTDmaRiWbrJDOZbIA2PDEpkRrSiwJVRlvftwU8c2mCDG/i498O7n524oVK7aBanlnrbgR8cfjoreIwD8SkKDr4RABNxLAJBydNLM6nHzrID4xEZ7gCNATfM+LM2TIMIFo8HONGjVyabU0U/aUcqYpNm/e3Jko8KKYqCMYnzOC6M0YvUw+OWM0JWXvE6Q3F/dAbyLcH7oRoxc59xHIz8/HpqgHop2GjZEpYBOc0/kLxv2TqQtfoUKF1aNGjZKP3J0LpXsHKgEJeqDi1cVF4O8JmNMkDT2SIIaNOP1WQXjCI0CP0fMb+Mpn0u502T+1EA0spmZMpHRFpIxsPlK66iCK+TiJh0K8g5I37oW4m3rlvpjcH+DbP8sJ/Xv8+fMxb59zRy1zY0X4+eefQ5l2puvWrWtKlbxSMExmNh1wNJ3YbhtXBWb1JYsWLTqtMq2B9eToulYhIEG3ykpoHB5DwESwV61atTz55HUxr2cyvnI+rnKynEq61EJeNznxmracLvkwwkiFtwhEeRcljetLgt4KcSKPxJhM2tnvTVP4t5+pnIaIb6cS3bfly5dfT831O3Xq1HFZk5c/wpg5c2YoYg6yHz58+Cs2GhkZWyb+30SuP2fDcZxN0ZyECRNuxk1xDpY6lbvkSdJN3E1Agu7uFdD9PYaAif5GXBKQ9lUf4TTNSnyY/AOE81Dy5Mln0FnsR3zRLu0sZnLHKX2aYO/evfUQ7xoIYzTGZIqse1O/3I+CMMZffpuT73XM1pvoTz4OIb3qrtOuSUHDZ2+q5ZUgBa0JG6JkjNcb0/8zxn+VzyuyZcu2Ev//r1bw63vMw62JWoKABN0Sy6BBOJ2Ayc/OkydPpt27d/dkrnkQ8+D4os8R9Da5c+fOK9q2bXvN1eVa8TtHRvhq0zylCgL+GZaC0Aj37zXXzYdpFWqaklDLfGT8+PF/ql279iXcAKbDmMtbhTLWoMQaJNm4cWNtxpUPk//nWDhCm7HC9iJR91OIO9iIG+Oou6wGTn+GNT/rE5CgW3+NNEKbEzC+aZqPlKVITE++TspJ0tjYj8aMGXMQrTq/d/VJ0tRdJ9AuLQ1UapOfXc1UnzO55abeOqLux/hMhP1jNhuzCMxbSoT9AXeJpHEH4NMPR4pZ8YsXL7bh32nZDJnqbl5sLB7zeQscp/Xu3XszG46X7ths2Pzx1PAdRECC7qDF1FSsR8DUDZ87d26un376qTen4HSI0R1E6GdS0WYiVFtc6Ss3dExUPf3JixDw1hrhTslYwhohN8VWEEs//m0C87ZwAt6AeX3xggULTL11lxWw+eMKkv8envawWU+fPl2WwMEibDKSmrFyQn9IsNtPWA9+zJs37w8U4rmu5inWe/Y1ItcTkKC7nrnu6CEEZs+eHQWx6Y2/vBxCGRFz9hM6og0mdWouPbVd3pjECCR13/sg3jUZS2QE8vdOaKYLGkL5BqvBKQLgZhGwN53KaSZK3KUd294/FowpRLly5dJv2LChKT78Unzfh7EEgeFzxro1RYoUU6hdv4vodvUl95DfJU3TfwQk6P7jpHeJwAcRIB0tGuVPqxKF3YETrxGkSwjowjJlykzk1Hv/gy4WQG82QkmEei5O57UJfqvAZcMYIUfc7yHka3gtJOBsH9XqXBqY9356JkBv27ZtcegaV5JNUBXGm5mxGffEK4T8MDXsV9PnfTkV4M6oKEwAPRS6jKMISNAdtZyajBUI1K1bNwWR4P0RpGIIuTFnXyKKvQU+9C1W8PE2bdo0HOOrTN52Xcb4PHHixMOp077NlZXo/rhOxk9evXr18JzI2z58+LA+p/IobIJMRTpf0uTO8PUCItcXdOzY8aJM61Z4wjUGqxKQoFt1ZTQuWxJAnMJEixatNylVNZlASMToIlHiw8jxXmGluuFUgwvVo0eP1PQvf0MTlePuOvGa6PXly5cnp9d7JawGTRDxaDB8a3qoE6j3K13Q+mEx2IaYm3amLo+ut+VDqEF7LAEJuscuvSYe0ARIP0tI1bSGlHFtiCk7JOK0hSjxziNHjjzlypOlOfFito7ESfeVq5u5+Jepib/LmjVrWlrAmkI2tbBimPr1wRHtR7DbQBravCZNmuzo0qWLy2MN/DsHvU8ErEZAgm61FdF4bEnA+Kc5jbcj8roZ+dEROWGeR5Rak2q11ZXBZUYoCxYsGJeSqB3xPV+hEckcTsEmx90yp1uTk89GJwPd2/oSsZ6bBSeoPrQ3X18jen0e/zWzX79+51y5CbLlQ6dBi8BfCEjQ9UiIwCcSQDBDjBkzptj+/fuHIErREdLdRGKPwGe+AyF1WQlXxhGaoLb8bCJML3XTVCU4UfXLSU8bQyDcfleO5e+QGvM6hWESrl69ujS+ctOMJrWJMYDXTT4fIuhtAoVhfrKqVeETHxP9uAgEOgEJeqAj1g2cTMCciCnMUhn/bzMEKg2R7Jfixo3bGFPyPkTqpavmblqwUpq1FHXNu2Cy/hxzezDTHQ1hf0Rg2U6KwzScNm3aFVeN56/3MZuerl275qC1aWe4ZGZ8kUhDMwVsjlAYph8boIPff/+920rKuouL7isCAUlAgh6QNHUtjyJgfNUUX0lHdPYiJh4bcTqPqI4nLW0u5mKXNS0xJ3Oi1Evgu+/GqTy9GZfJL0fY/RDP/QjnWArcLHNHkxJTv55gwDik71W+ceOGqUqXGp+5N2O7ykbjRwrszGVsu90VlOdRD6wm63gCEnTHL7EmGFgEJk2aFKd9+/b98JlXwWx8P3bs2L0R84W5c+d+HFj3/Ot1TRlX0uSK//bbb0P5v2RGQLEWGKf0C77eSsT9QJqv/OImMQ8Kiwx79uzpgpAXYMMRnpP5c8Z2+PPPPx/FpmfToEGDHrqrEp2r1kj3EQFXEZCgu4q07uMoArt27QpdqlSpTjQ2acLEwiPoB2lBWr5bt243XTVRE1z2xRdfpNq3b994xDInAXnB3nVH86MQy0pSvvpg4j7iLsEsVKhQWsY2E395OlMoHuvBM4R9VZYsWYYOGzbMbalyrlof3UcEXE1Agu5q4rqf7QkYvznFWEqQw/0NOhUWU/vPRJYPWbNmjYlod0k0uTGrp0mTJjO++t74yfMzjlAmwIzPdxH29fQCH9KzZ89jnMxdXr4VsQ5LZ7SSp06dqk9cQUEsBm/Z8BwjtmABG5Cl9DK/7MrIf9s/cJqACPiTgATdn6D0NhF4T4DOXtF5TUGkinESfkBqWGUKo5iI9jeuomSavtABbRC57o0Q8BCczI2YP+PrydWqVRtPd7ILrtpc/HHOpnxrrVq1qtDFbTDfNxH/fgj6wWTJkrXFPfELXd6euYqR7iMCnkZAgu5pK675fhIBczpPmTJlLXzWg02nMkzIi+ia1sKVQmX85oh2nkuXLs1A0ONxCg6CcL5B0DfhBmhNh7Lf3CHmxgWQI0eObAcPHpyInzwtEfevGdPhVKlSDaEpzCpXd5b7pIXWD4uADQlI0G24aBqy+whQgjQVAj4JAc3B6fwiudPtbt68udqVI6LBS4qtW7eOIre8EJsKU10NXX97NkGCBC0xZ29yR0EWE4yXJ0+eLATADafATjbqxAcjin0TWQAticA/5+qe765cD91LBKxCQIJulZXQOCxPwFSDI2e6w+3btzsR4OUXKVKkcd98881gTp5PXDV4I5wEu5kx9OSeYcw4EPOH+PTbUu51oSvT5f44Z1LTYtEpbTSm/wqczr0Q9F1Esvc/dOjQelex0X1EwNMJSNA9/QnQ/P1N4J3vfByCVYao8iP0Da9M17LzrjRvm57mVINbgnWgqAmMQ8z9OBGbU3nd9evXX/b3ZAL4jQThVcIFMI4NRmTKtx4gha8lde0P6mQewKB1ORH4FwISdD0eIuBPAgX42LFjx0yCvCLRQa03p+TRrk4Jq1SpUnJ85DsR8qjmJMzG4hVm/4m7d+/ukihRIpcVs/kjMvLgY8+dO3chYm5S5+4Tzd6BCPfZ/sSqt4mACAQQAQl6AIHUZZxNwERvI1ydqXbWzpR3xcTdgOYiP7ty1sbkHzFixNrkdY/BPx0Ks7YXG4rruAFqXr16dbOrNxdm7mZMNKGpRrvYEcQVRORbPxE0WO/IkSPnXMlG9xIBEfDykqDrKRABfxBo2LBh/ClTpvxAffSkvH07FeEqly9f/q4/fjTA3oLJP+aoUaOmUzq1GCf0IJyG35qcc9q21qBOukvH8n5S2bJli4F4T8MFUJIxvfbx8elFsZ1RrqxjH2CAdSERsDkBCbrNF1DDD3wCJlUNs3ZlcqvHIFphCIabvmjRos4Egj0N/Lv/7x1Sp06d9fTp0zMYT2pS1byIcH/DBmPk0qVLe7rLV50zZ870VM1byMYiBa6IuwTClfz1119NYxqXFNhxJX/dSwSsTkCCbvUV0vjcTgABDYOJexgV2epjVn6CSbka0ds/ulq0CDQrc/369UmMJzaBZ15sLp6HDx++Fb78aa4ey/tFyZQpU37axn7LeCLgQ/+tadOmRUaOHOm24Dy3PywagAi4kYAE3Y3wdWt7EDBBXzNmzJiD7/wLTsanK1euXJ7SpiddPfokSZIUo9TrGO4bhpP5SzYYB8j9Hrx9+/YDrh7L+/vlypUrPxATYeUAACAASURBVJ3UllNEJiKbixPknBeToLtrNXRfTycgQff0J0Dz/08CFEfJtHHjxjWcQKNyQl/XrFmz+mPGjHFZE5b3A8RXnhA/fgFOw+e+/PLLi4ULF75DkZkn7jqdm3Fhcs+CyX0pYh4f3/4NyuAWogzu8f+EqjeIgAgEOAEJeoAj1QWdRgCRyoegryPwKyhiOn3WrFlt3NSO1Py+BuHl604R/+P61q5dOyE85iLouTilvyTivSqV81ZYZXxOexY1HxH4NwISdD0fIvAfBDiFFuEUuoa65N4I1+gHDx50RbBeC5yX161bt8JRVGYw+fANCIwLymvqihUrOlDoxmXV87QOIiAC/0NAgq4nQQT+gwANR0odPXr0O06gXgj6UGqo93JlZzUrL5ApRUtgXNYDBw7Mg0liBP0Evv7ax44d22flcWtsIuBEAhJ0J66q5hSgBLJnz16aSmzLOKH7kWc94P79+wPVz/t/EVPPPky3bt36wKU5Av82QoQIEwkiHFiuXLkHAboQupgIiMC/EpCg6wERgf8g8E7QvzVvIx99MNXi+uiE/mdopPIlp6XsQgQ9AxH4r2grO6Zfv35jmzRpclUPmAiIgGsISNBdw1l3sTGBLFmyFMOEvIJSq0ExuQ/H5N5Dgv7nBV2yZEk4erT3RsgbkE7ng0/9frx48bpdvnx5ko2XXkMXAVsRkKDbark0WHcQINf7C3K9V3DyDEcxlwlUROvkztKmpusbXd6isLEIGjlyZC9M3b50YbtZs2bNe+6MLkfUI1evXr05jFqRDRDp6dOn16k9Py1ZsmTz6JN+2h1rp3uKgCcRkKB70mprrh9FIF++fJl/+umnFcbiTqvSbyme0nTChAluqZ1uJsDGohqn4Fb49EORGx+EgjevCEZbO378+JG1atVy27jM2NhYxO7Ro8cIytJ+bdq7kur3IkqUKHPwp/ecNGnSbXduOD5q8fVDImAjAhJ0Gy2WhuoeAp06dYqPUM1FQHMhoOdq1KhRnnahR90zGi8vasjn+fHHH0dT5CYtYwhuxoFw3kI4+zCu6e6q627GYaLesWgkPHjwYHdcFPkpmRuPk/pr6t+vjBMnzkI4bmF8j9zFTvcVAScTkKA7eXU1twAh8Msvv4TJmzfvKPzCdRAsL0zIDen3Pdddke6MJziV4kpfuXJlKpuMSJyGvdlomI+Tpq3rmTNnfnbnSdiI+pw5cyJ17NixKG1VhzC+mLgp/LAs3CIGYTlpgLN69ux5NHPmzMrlD5AnVBcRgf8hIEHXkyAC/0HAdFvDF1yBPuTjQocOHQnhXPPdd9/VdudJc+XKleFp3zqNsZRF1EOaKSCcr3EJbKBaW59z58794o7+6H9EaXrIV6lSpQz176txWi+CmIcy1eRwEZwktW1mr169VjLW61Tde6WHUARE4NMJSNA/naGu4AEE6CIWc+rUqUvxVeegZvlB+pJXbNOmzQV3Td34pxMkSJDx2rVrEwlCy0QQWlBM216I+0s2HYc5BdejXO0Rd43v/X0ZZ7BGjRrFpsVrFbhV5d+pGG9QxvgAoT+LsC8mh31669atH7l7A+JuVrq/CHwqAQn6pxLUz3sEAWPmLlWqVCty0PtjOr6Jb7gV/dFNoJzbPsyY8OcXPnHixGTEMC4nX2/E0svY3hHMkaSRDaGZyx23DfAPNzan9Q4dOmQmV70v48yN+yI4Vg8/xvuEaP01bE7mDxs2bIs7auRbgY/GIAIBQUCCHhAUdQ2PIFCpUqWM33777UxOlikQzBUEeDVs2bKlWwO8qDEfmgYp1fDp98LkHgdh9zZ+foTyGpuO+aSyTZ44ceJ5d/rU/3BaD0qHuORXr17NwiakFN8vjEUhAlaPN+xBbpLDvjxVqlQ/0QxnL6f2m8r194hfK00yAAlI0AMQpi7lbAKmEQk+3wkIZzUE6CnV0RoeP378O4THrT5gU9SFnu3tMWm3ZAUiIuTe+NJ9aSLjizVhdtWqVXtSivWaVVbHuAsYb9Q1a9Y0wrdemdN6cngGZXymi9wLxr82duzYMwmc24mV4bEVNiNWYadxiMC/EZCg6/kQAX8SMNHbiRIlKkz1M2PijsdrHyfK1ocPH97jz0sE2tvo0R6FNqYNEMZ2CGQUc1Inrc2LT/c4rX9br169sdRcP2YlP7WxLmDlSLpv377iuC+yM84v2CxFJAWPL9/eIi5g92efffYDn38ePHjwBbrePQ80gLqwCDiAgATdAYuoKbiOAKfh0JwaB2J2b8wp2IvXCILRTClYP9eN4u/vZER98uTJY0xRF9LEgmPO9kLU/fj6LWbtVRSd6YhP/ay7x/nX+xv/+syZMyNt27atHlXvajDeZLzHm3n4ModXsD5IquCchg0bfte+fXsVp7HaAmo8liEgQbfMUmggdiGAjzfL5s2bJ3NiT4vYnMO3XnvRokX73JWX/kdujCXJ6tWr22HK/goxjIKgBzEbDzYdzzC/L0YYR7Vt2/Z0nTp1XliNt8n3HzBgQGLYVoFrcYQ9ARaHCJzQg/C1Mb1vT5o06UziAvYULFjwHm1bn1thI2U1jhqP5xKQoHvu2mvmH0kAIQ9J5bOm+Ki7I5ZhEc6Nxk/NKfPAR14ywH7M+KcR6wikiXWhPKwxwUc03+OEbk7qxte/n4ptE6gotyR//vxvAuzGAXghI+xExMcjPiE3eeu12ZxkRbhDMIe3nNrvwPwo/z5YpEiRGY0bNz5t1XkEIBJdSgT8RUCC7i9MepMI/JnAvHnzfAjsmsxJshTiEhLh3DRw4MAaXbt2dWst9fejrF+/fgyqtTVjbHXxSccy/n9zmkUQ3/LvS6SMDSCXfqW7a7//23O1ZcuWYLNnz05EPn2xe/fuVXv58mVGEzzHBsqk571mPqcJoFuSMGHCH44cOXLY3cGJ+h0RAXcTkKC7ewV0f9sSwHSdnCYtoxGaIgjlk7Rp0zajhvkyd3Ziew/TnMop6BKFk7rxSzfk+wkZVxDGaeqtG5/6dT4vou76WOrCX7Gy6dr42Pv375/x7NmzBanWVxRDQ1pEPTyi7kf64AvmcRRhX5Y7d+5tFNQ5QcnZJ1aej20feA3c8gQk6JZfIg3QygQqV66cGf/5SgQlKn7qO5iz+1JjfbpVcqjfFZ/JRynYsWw8EuFTD2qEkI9XfP0AtjPphDYc4X9oZc7vx0ajnAhYHrITyd8Ql0dezO8+Zk64F0wxHV/E/gfcIasqVqy4jtcdmePtsKoaY0ARkKAHFEldxyMJGH96tGjRmpF21YqvYyHkR2nk0mjr1q0HrBAkZxaFcYWgb3pBfNHNEfUknM6P+vj47CdI7jpf76Wk7Sk7CZ+prV+hQoVYnNhzkUKYFXHPxSstFehC4U4wm5VbzHcn89tYsmTJnwieu0SEvALoPPI31LMmLUH3rPXWbAOBgMmnpgRrjUuXLg3Ax2tMwb+mTp263dGjR3dZxfRrTPBdunSJSDW2MMmTJ7/H6fWFVcb2KUtiYgPKli0bkzWohIWkPCf1rJjjgxvXAuJuggDv0hRmBRuYlTTU2UGHt2efcj/9rAhYmYAE3cqro7HZhgCm7QgUPhmJmH9tTu2IyoYsWbK0+vnnn8/YZhI2HqipD0CJ29TEMNSnNnw+phKNlw+voKyH6fB2mX7xsygEtLF06dKnaAZj0uDe2njKGroI/B8CEnQ9FCIQQARIXUu8YMGCDghFDZMmxgnxp759+7blZHzaCafhAMIUqJcxwk4DnShUoMvOib0k4l6E+IbopL8F48Yv6e72ED/7ZkzyezmtL+vRo8cN9WUP1CXRxV1IQILuQti6lfMJ0CglGalWQwjWKohwmPKrP1LzvR9pVcetEijnn1UwbU+JfvcZOXJkdILMfMkLv2KnQi7Gz06Uf6S9e/cWPXPmTCliB9KwwUrI3ENxWg/Cv5/iY98VI0aMJQj6dnzs18hrN24Indr984DoPZYkIEG35LJoUHYlYHzVX375ZRpypzsgIOXxqZvyqwfxqXemZrllfOr/xNdExRNFnoJNSQlSxLLzvqSM/znitydfvnzz2rVrd8BuAXSTJk3yOXbsWOyFCxcWZpNlgugKE0sQGX+7KbbzgvmZfPb9CP1W5reVSPordn3+NG7PJiBB9+z11+wDgYARdfp6J6HVak986hU4rQehAM3W9OnTd8HHe8iq5ncj5kSPF7527dpI5hCPwLJQjP/3vxFsTl5TgvVArFixhpDnvd6OUeNmfpSWjUQAXembN2/WRMDTM78wzDOIaTnL6z5T3crma8ro0aP3soF5ZKVmNoHwqOqSDiMgQXfYgmo61iBgRL18+fKpMVv3J12sMJHWbxH1nQRjNRs0aJAl+pP/lZQxU3NyzYfIdef0ms50PuPlbawM5Hh74Yf2ZXNyiojxZXHjxl1Ez/KLbFyeWIO4/0dBBbpQdJ6LuXbt2sqc0DNwYs+GcMdi7iHelce9bFLe+PfqFi1aHClUqNB1+dn9z1fvdB8BCbr72OvODidgRJ3ObIloltIVMaz4rlLbz/htB1N8ZpsVfeomDYzgvmiIXgX6v/dkiUy0eBAj6qZ7m7EuIPgvMVHf5OuV5HlPprDOSataHf7tETP5+S1btoxAfEOMX3/9tTaFaorz/sSY4EOYanp8PGTO1+PFi7eYhjxr6GR3QuVlHf5La/PpSdBtvoAavrUJGFGnElvilStXjiXyvQAnQD9E4ijpU03oo37QqiZd0urDrlq1qgrWhTpYFrIZUed07s3XXpiqvfhs2sW+4CT7XfHixUcXLVr0GEFotszxNpsYesn79OnTJx0Fgqoz56qIeTDmFtxUqeHjCet2EKvElFatWm2khesdq66btX8bNLrAJiBBD2zCur4IQIC2pskXL17clNNfFfzRJj96X4IECUZfuHBhjVVPfcYET/OWmCtWrChL+lc5NiS5EPJQpjkKczC94I2om2YvN/h6ffz48Vd+9tlnW9gIPLbjopvNFyVww86YMSMx/vasCHtpXunYwMRC0IMyp0fvXA6bYseOvYM4gkPNmze/IXG342o7c8wSdGeuq2ZlMQJGLBDGCLQ2Hf7kyZOqiKARiBMZM2Yctn//fks0dPknZKY5CkFiiTZt2tQc0/vX+NWjMn5v02fdBJMZQeP1mu9dI897IcFkY6jKdstiS/BBwzGd3hD3qMw9P5uuxsz5M+YYljkG50Iv+dq0cd2Lf30oUf8nSOt7+kE30JtFIBAISNADAaouKQL/RKBZs2ZR1q9fX+306dPNOa3HRyBuEz0+k+CyGfRTv2Tl096wYcPC0kc97YkTJyojZsY0HZnxehMk50WKm5myH3N6xZwO8L0fea2l1vp+u+d202Y2ImuT+Pr16yXwsxdkPul4mT7zphnMHdZvB3Ndhcl+K6f262Zzo98AEXAHAQm6O6jrnh5NwNR+L1WqVEN6fLflj39sXo8xY2/CLN9r/vz5x60Mx1ga6AMflZS8ugT6NebEHpfx/t6j3JzYKdhigufeYKZ+y9emGtuw7Nmz/zRu3LhHVp7Xf43NzJuGOyEJokt2+/btolSj68jmJQKvYLghXsPhIe85QPnf6Q0aNFiDJebFf11T/y8CAU1Agh7QRHU9EfAHASPqVJWrdv78+UboQVpEPSiCuLhKlSqD+P5ZzLiWFgRjhh8zZkxSiuW0YGNSkBSvOJxWQxnhM4Fz6JyXadMKigek7C2k1OocTrBnatasec+OEfF/XFIz9/Hjx6dnDUviPsnFnE1/9iik9nkTa3CbmvELyQJYPXz48IM0wblv9/n643HWWyxCQIJukYXQMDyPgEmbIs85C+lQo5n955iqzcn2NNHVUxGNOblz57Z0cNn7uABq1aej09xXmOArMY8oBM+Z0qq/566bdqYI/Eu+f4Hvn8qQIcPQnj17/lKiRAnzPdt+mMh4Gu+EpMhOrFOnTuVgU2Pa56ZmQqa07Ety2y8z/32Uy53Hqf4nXCrPbTtZDdw2BCTotlkqDdSJBBCBYKSwFTh58mRfAq8+Z47BONneIrisN33KlyIEvzunrf5BM5TwgwcPrsopvRlNUZKbXG4TOGfamJocdvzMXnz/FaJ+htP6VPK65+OXvm31eflnfDSECUoGQ8rvv//+K+b6FeuXjM8h3lnj7+Nf79+2bdslvXr1Urqbf4DqPR9NQIL+0ej0gyIQMATMSZ1Wq6mPHz9eH0GsgRCE4rOJGJ83YsSIb/DHXrGD2daYos1pnahwk+ZWhnkkNmlufDZpbi+xPNylAt3OiBEj/pAsWbIfaZxiitMYs7ztP4y1YufOneGoA5+a0rmFrl69Wpw1TIMbJRxzv8mpfS8FauYVKFBgJ1XqTKqbI+Zt+4Vz2AQk6A5bUE3HvgTIf47WtGnT1oheLYQgGmL4ghPu95hth+zZs+eYFSvL/R1tI+yUvE04ZcqU2pjeayHoN/Axr0HQNpYtW3Y/0fLPrRzN/6lPkMnfx7ISh9KybXBD1OTf4Zi/iZ97grivhMFoXC2H7dTk5lOZ6OddQ0CC7hrOuosI+IuASZEiNawATVzaEmiWBXF/i/j9SiGT2Zx+59qlGps5sWJmjnTgwIF0+JLvFixY8CwV1p55ysnUzB9Rj8r8M3Fir4VPPT8PQHTm/5L/O0rVudlp06Zdy+bngt3T+vz1YOtNLiEgQXcJZt1EBPxPwARclS5dOu+aNWt6m+psJsAMc/UDrjCOlLGZEydOvOz/q+md7ibAaTwa9e5LcFpvQxxBKk7rpjjNaz5vo7JeD0oA73b3GHV/ZxCQoDtjHTULhxEwok4N+Aw0dunI1/l4RcFk+5Bgqx/q168/iFzn0+oAZp9FN8GPZC1kxvLSkVHnxPISxXSyY013Jk2atB892/dYPavBPrQ9d6QSdM9de83c4gSMqNMkJQaNXapxSq9LkFVSgqt8+f52crsnL1++/Hur56t/DGIzb3LWo9MBLRQlZE1A4JuPuY7VfsbMi8j+KLTQLULQYHesL8lZV1+sLxd4raLJzaCFCxfesdq4NR77EJCg22etNFIPJUDxmVDkbRc4c+ZMLwLlUoEhFGJwN1q0aO369u27gSj4u04IMjPBZDt27PChfWsWup41xkQdJ3Xq1GNIeduOwN+ye+76+8fXZDWkSZMmy2+//daBDVpmAuVis64Pmee3RMGPpLmNaUf71kMfd037EwhI0D8Bnn5UBFxFwDQL2bBhQxrS2KohAE3xv4Yi3/kaKWDbP//884H8/3E7i7o5vcaJE6c0PuavqQufjfnFe1eg5h6m6d9M61IyAL5zShMUM19iJCKTm16ewLlOiHkCLDCveJ4209xmMGu901MCCF31O+QJ95Gge8Iqa46OIUARk9D40Ptjsq1D9LgP0dNv+bwzZcqUHRGGX+1qnjaBY9R7X8z4cyDgIU2UuKkNb4rSmI0Km5f7mKXnUSt9BM1tHBMUaFL8aOhSkrz1Lmxg0mKCN8V4DhcuXLg9/2dE3RHuBsf8Alp8IhJ0iy+QhicCfyXQrVu3BIhfKUS9MWKekv9/i8l2V65cuUZR2GS9HU3TJmiMGugFCBYrg3iXQNjiY44Oytem2cv7uvDPCSJbVrRo0Rnkch9hY3PPCU+HMcHTRjeTMcEz76ImCp7vbcX8Pox8/o06qTthlV0zBwm6azjrLiIQoATMCbZ8+fImta0/Yp6D8qJ+pjEIwXJj6tWrN4d8dltWIzOmaMQ64+bNm9tiffgSQedgHsobof9d2I248b0XmKg3UUK2Hzn7B5xSoIVGLtFWrFjRjfWszSk9NPO8jkul9f37939g3sYcrw8R+FcCEnQ9ICJgUwKIX3BMs5m2b9/emZPdF5xew2G2fYT4fUcRmgH9+vUzRUtsV2LUBMch6klpV9qITUp5licalojQCLy3EXUT6c8cn2KSP548efIB5HLvxhVh6qTbbq5/ffSoMZCYZi4jmWNehD0sr5O4GXpSVnaVE+Zn01812wxbgm6bpdJAReDvCdByNerGjRsbIn61EPakvOsVJ9iNaOC0ZcuWbeIE+8SO7Ix/uUePHqkvX75c+tatWxWNe4GAwCCIHNrm7YXwm0jwB5xif0LcF+Ju2Eo1OlunfRnLCxH90ejA1/bmzZs1mGdk4gguFClSpCXm9y3yqdvxSXbdmCXormOtO4lAoBEg3Ss8fdQrIn5dEfVYnNaDIH43EiVKNDxPnjyLZs+ebds+5NR+D0ud+8I0fTFmeBMzEBkzvGnRagqz+HFqf8vXl03fdYrxTGSupoubUX3bntgpKBS1Vq1aLR88eNAIkY/IBm1z3rx5+7PJ2WXneQXaL4Au/DsBCboeBBFwCAETXEXEdDqKk1TlVFebaUUgl/sW5ttNnPCGIhK2afDy1yUxJ1cCAaOOHTu2yJUrV6pjci9ggsfMUd0EziHwxgz/gn/+gv95U6lSpeZTlMbWddIZf0SsL0OxSFRgjqFhsrty5cp1KSN7wSGPrKYRwAQk6AEMVJcTAXcSMMI3fPjwaL17925PTnfDsGHDhkf4Xj9+/HgzDVI6Y5o/aud89V9++SU4xXQSk3dflznVQMhjmL7rCJ53pEiR/O7du+fHBuYhKd3bKKU6vmvXrtvtGPX//hmaOnVqXFL6emCBqMa6vcbt8M28efMGY4kwtf31IQJ/IiBB1wMhAg4k0LFjx7gTJkz4GhN1HUQ+BaZpLwLmtmfNmnVIpUqV9tC17aGdp925c+dImOFLUoSmPGKXlfnFNqLOXL3wp/thofBlI3OWr4cRHPjjF198ccOOte/NBo2NWOxt27bNZeOSgzW7njhx4mGI+iyC5Z7beQ019oAnIEEPeKa6oghYgoAxwZOznZmqY+052ZXl1GpSvi4jcouJph5Kett9O/tjTe46LUp9OLVnImhuFBaJRAi7MU17m4I0CLqpe3+POV+gAcqk06dPL2K+zyyxOB8wCCPqRPIXP3HixBg2ZQnYwFwiNqLruXPnvlWQ3AeA9IC3StA9YJE1Rc8lYFLAChUqlHHTpk0DoZADE3UYvvcYUfiGMrLj2rVrZ/uqa6Ysbs2aNdMTFd6ETUtVguOCYY4Pxly9TP46Io+mvz3DCb0DXc3W2fGkzqYlDFaG5sRE9DBlf3ErLGvTpk3bgQMHXvfcp1sz/ysBCbqeCRFwOAFzwqOPelwipBveuXOnPtONiiC84Ps7kiRJ0p8o8l/s7Gc2y2fmyAYlCj7nfBcvXiyBedpUnIuENSKIiRlA6G/Gjh27EwF1S/j3SzsuuXEzDBkyZDpzKs18HpKu12/BggWT7b52dlwLq45Zgm7VldG4RCCACSDoPpioayAGLXgl5vJvEbfjiHoXzNFbnVCNzAg7RWmiU2ynFRXW6nNKD8sp3eTlz6tevXr3KVOm2DZ2wMwNEa9IXMQgIt8TIuznsmXLVg3/+j47u04C+DH36MtJ0D16+TV5TyNgTPDp+Dh16tQg5p6Hk2xIhMH41YdPmzZtMeVHHVFxzeTlEx2e5uTJk2U5me/mFLuTtDeTn27rD4rLhKW9bC1jekfYI+BemLd27dp2RPQ/tvXENPgAISBBDxCMuogI2IeAqZeO2CVHwFvjXzbV5UIy+rsEki3CTzucOuoX7TObfx6pOdHSmS0MOfgmP90x/cVNzfelS5eOxfpQDuvD5TJlynxND/WDTlgzzeHTCEjQP42ffloEbEsA33l0Ore1w/xehWIscRD3VwRcraTSWjtEwzR3cYwI2naR/mbgZkNG+uGX+/btG8uaReUtvYgdGFOnTp0XTpqn5vLhBCToH85MPyECjiFASlsEGrmU2b9/f0/EITHC/owT+wYi40fwfzsdM1GHTWTOnDnRKQ07l2kVQOBPZcqUqTmR8CYOwrblbh22RG6ZjgTdLdh1UxGwDgGTz40PtgIdvZpyQs+EsIfk1G4qrLWlPvxvBNJ5RAETc/LFHx3cDlHjJhYiZsyYzcha6EU0fzjqDCzBstKctbJt0J91fiPsOxIJun3XTiMXgQAjYFqxcipPdvDgQRMdXiNcuHBByeU+RFT1AiLDJyIUju7HTTpYeHqRFzp27Fha8tSnE0dwNcDgBtKFcIvEod77RAIbS3Ayv1e+fPnCy5cvPxxIt9NlbUBAgm6DRdIQRcBVBCg0k4AqcnOJoM6EmIek+tp9Tu/1ELi1ppa4q8bhyvsMGDAgBoLe4smTJ02Zo4n6n0cBml74pG+4chwfei9jWSEdrzmCPoA0tiBUk6t1/PjxJR96Hb3fOQQk6M5ZS81EBD6ZgDE7FyhQIO3hw4fr0OikPv8OSYOXw+Sqj2nWrNlKu9eA/ysgEwnP/OriYuiNMMYhhsCL18MoUaL0RuSnUYHu6SdDDcQLNG/ePPP48eO/ZQ6xuM0Cot9b4DJ4FIi31KUtTECCbuHF0dBEwF0EEO8onNS/wadeDNELjcg9wlfblxKyk/Lnz++oaOo4ceIUfPTo0ThcDKlMuViE3TR2uRQ5cuRm169f/9HK0f6Ufo3Sp0+fbWxIUrFOx2ivWp/2qnvc9dzovu4lIEF3L3/dXQQsSwBTe+IzZ860vnHjRg0GGQ6xO02eepd169b94CTz+zfffBOhffv2nRD0xswxoumxjsvhNebsdZjd23MCPm3V6HGq/4WklWp/xLwpa/SKjVd/is6MsnOLXMv+QthgYBJ0GyyShigC7iJg0tqKFSvWD6Goyck1NMVnziB6gxC8xU4SdawRkeiz3oCuba04ncdmvqYFq7FEzFm5cmVHK5uxM2bMWODAgQPTGXM8rCjbsK5UpHXuXXc9M7qv+whI0N3HXncWAVsQIHI6bpMmTTo/ePCgOCfBOAz6V/zs5qS+3UntO0n7ioJPegDBcXU4nYcgINCPJjankiVLVo/od8vm5Dds2DDW9OnTxyDmXxLQ94r67gUpfSuzuy1+uwJ2kBL0gOWpq4mAIwksWbIkAqJeg0C5buQ8R8asu4eSqv2oMbP7OQAAIABJREFULb7Zyj7mD10M3AyZEMNFCGMSEzCHSL4khW/O4sWL21v1lG6i3Qniq8XajGTcoagj0J3NyRinpxp+6Np6wvsl6J6wypqjCAQAAXOCbdCgwQgu9TUn1+CcZPdVqFChsZNyn2fOnBkKk3VHquW1RSgjYHb3w5R9BYtEFerC77KqL7179+4pCJDbwHhjs+FagKukmRq2BMBDb7NLSNBttmAargi4i4A5sebMmTPFzz//PJgxFEXUvehkNmrevHmDnCIeZo6tWrVKTeOaqYh6VvzpQcjxfk1Xs2GYtftbtWoe441cv3791Qw3A68t9EmvzVht313OXc+6Xe8rQbfrymncIuAmAgSQpWjduvUibp+WdKkH+JtHU7FsVNGiRS2ds/0huNiodLh27ZrZuATx8fHxJQhwx5o1ayoyx1sfch1XvXfLli3BihcvPoHuazWwIpyMGjVq3du3b//qqvvrPtYgIEG3xjpoFCJgGwLGLE3wWGuCxrpi3g2Hn/kyVcqqUDZ2t1PSpXLkyFGKZifzObGHZ2GML/3XL7/8sioblxMWXqheWE06scm6i6A3ps779xYeq4YWCAQk6IEAVZcUAacTGDx4cARKpjYgd7sDgViRsErv7tSpU3Wqq11ywtwJ+EuJz3weAWYZEHNjeb8eLVq0luTkL7Pq/FKlSlXv1KlTJtrdl6I4PQmSG23VsWpcgUNAgh44XHVVEXA8ga5du8YYMWLETPLTiyAi96NHj9765s2bC51wSqdgiw/NT8ZihajOhiUo83uG6b07jWtGWzUwLmXKlFVPnjw5hXGGpPKdCV7s7PiHUBP8EwEJuh4IERCBjyJgAsiSJk1a6ezZs5M5yYZD+HbTo7v65MmTL3zUBS30Q6b7HBuUxvihB4QMGTI8AXJvcC+MIF2vq1U3LMmTJy/ICX0OGGMy5jX16tWrRrzDEwth1VACmYAEPZAB6/Ii4GQC+JWT0HZ0EiJXEEF/GiNGjI74mafTgtTWndlMk5oECRIUpJb7AtwJUZkbGWG+8xcuXNjIqpHuqVOnTkcBnNmM9XOsJoe6dOlSjFS2m05+/jS3PxOQoOuJEAER+GgCCF+ICBEi1MfEOwQhCcu/VxBxXS9Pnjz3P/qiFvnBFClSZL5w4cIygswSmOI5CPqW3r17V+T1wCJD/NMwGFdsGrVMZ6xFGOtDMhEyjh492vbWEiuytuqYJOhWXRmNSwRsQqBjx46xR40atRARyU0Rll+zZs1ahWprp2wy/H8cJpH8KadMmbKGNyRB1N/yeSdFZ8pbtU46zMOTVjee1LXq+PxfVa9ePTs1Ag7ZfR00fv8TkKD7n5XeKQIi8DcETA40pvfWmKYHIHz3KEPagOA4I4S2/qALW3xE3bRPTYkJ+63ZrOCXLkGMgCVz0UmzC5MvX76BVPBrTlT+G1IJKxw5csR0xvOz9UJo8P4mIEH3Nyq9UQRE4J8IpE+fvvCvv/46j/8PHytWrG74nkfZndagQYMSYsbewkYlIXMxgv5L06ZNy44ZM8aSfmk2VqFKlizZgcC97gi6Ny6QtjTQmUz/+jd2XwuN338EJOj+46R3iYAI/AsBUqYynTt3bglm93iUSR1Keld3uwOjTn1qqsOtI8I9rhF0Trr7aFBTjsjxG1acm4lnoKBMQ/LPhzLW4Ih6bzYjw/j6lRXHqzEFPAEJesAz1RVFwOMIkL6W5NKlS4swuWfgJDsJH24LO0MwKXlx4sTJQSGZ7xDE6KZYC/PZ3qJFi4rjxo2zZI10xhyUAMXKBChOYawhKck7eePGjR2ov//czmuhsfufgATd/6z0ThEQgX8gQJWyBBQ1WcB/ZycHetbatWsb2dnUa8Qxfvz4pS5fvjyNcqpROen6slFZ3a5du1pUw3toxQfBbEKoEFcc68hixheKj1kEyrUihfCZFcerMQU8AQl6wDPVFUXA4wiYALI2bdosxn+bhckv4+s6RL7b9mRozNcE97XAfN2XDUoYzO6+uBKmDR8+vHmjRo0sm2MfNmzYwqzBStYgKD70JfSrb8LGSsVlPOQ3UoLuIQutaYpAYBKgmUlS2qqaoLhMESNGnEW6VzMKsNjWd4ugh0bQB1H6tRER7qGY1+tIkSINpHJcHytHjSPohRD0VYwXPQ++fPPmzQ2c0to2MJ9fp1xbgu6UldQ8RMCNBDJlypRx//798wjESkqJ1JGkTnWxsvD9F6pbt26FS5gw4SDEsRymay9yu58mSpRoAIF/c608r3eCvpoNSTBcBd9yQq+nE/p/rbZz/l+C7py11ExEwG0EsmfPnm/Pnj1G0KPSHKQXftwhbhtMANzY+NDT8EGN+ngE+vny76f169c/1r59+zsBcPlAu4QRdKwKq7mBEfTlCHp9CXqg4bbchSXollsSDUgE7EcgXbp0lQ4fPjyD0+trTrZtOMnOtN8s7D/ivwj6MgS9gQTd/uvq3xlI0P1LSu8TARH4WwJLliwJwem18/Pnz3twQr9Kl7KGRIevFy7XEjBR7qStFSFt7TvuHARXwTyi3Fsqyt216+DOu0nQ3Ulf9xYBBxAYNmxY9J49ey4nEjwXqV07EidO3OA3PhwwNVtNwbgJcHeUfvz4sQlONEFxk9evX9+JE/oLW01Eg/1oAhL0j0anHxQBETBtRjG3Z6FmuAnEikoxk9Wkq9UjtcvSvmYnrhy13IMj3tUR9EnMLxjpdiNoZduzRIkSL504X83p/xKQoOupEAER+GgCiHiYcOHC9aHkaysiwYMgIsNJleqj6mQfjfSjf5C1CMlaNMP1MZD18GIt2quW+0fjtOUPStBtuWwatAhYg0DFihVTrFixwqRyZeb1OFmyZF9xWt/E16ZUqj5cSGDXrl2hOaGb+u1tzG3Jm//6zp07K62cZudCPB5xKwm6RyyzJikCgUOAgjLl9u3bN5viK2FI8fq+Ro0a9WfOnGnJWueBQ8A6V6XufFjiF4aRO98A18fb4sWL51i+fPlB64xQIwlsAhL0wCas64uAQwkYn22BAgW6ElXdg5znp5h7e969e3ecTufuWXA2UhHr1KkzjsI+VTG7P2/WrFnqCRMmXHTPaHRXdxCQoLuDuu4pAg4ggLk9GkFXpiFLAdLVTlEqtTp90Pc7YGq2nEKWLFniUQtgKtkGhZjAlVatWmWzau92WwK2waAl6DZYJA1RBKxGwDQviREjRh1KpPammElUqpNtnj17dtVatWrdtdpYPWU873rST2NtPid9cFuDBg3K0ur1kafMX/P08pKg6ykQARH4YALlypVLxel8HMKRh17hLxH31ojHPDs3ZDEQSLmLOH369KRE7Adjo+KLG8G3cOHCl3r37n3rgyG5+AcyZMhQ8ODBg9NYkzisyTwK/jRgPd66eBi6nRsJSNDdCF+3FgE7EqBVapjmzZv3Y+wtSI96i4AsHDhwYEer1zn3D2tq0n+9e/duI4rBOemaGu53okWLNvDmzZtTrR4bQE/6SqdPn55MgGIIAhT783mQf+as9ziHgATdOWupmYiASwhwEo/dqVOn1ZxiP0fQr8SLF6/1pUuXVltd8P4Ljilhi5m6J1HiHTnhBje53Mzpcty4cevboZQtJvdap06dGms2WeSgd8WXPvm/5qz/dxYBCbqz1lOzEYFAJbBly5ZglStXrkk0ez+EIzKn1zF9+aAy3LNAvbELLo4gJr927dp8ovYzESlu/jb6cco9gNn6y/nz519xwRA+6RaxYsVqTVBiH1LWHiDmzdmUmK5r+vAgAhJ0D1psTVUEPpXAl19+mYQOXt+QFZWHaz3Db/sVfttNn3pdd/+86R+OpaHxlStXejOWKO/G8xxhX71hw4b6uXPnfuzuMf7X/RnrMNalMe87Gj9+/OZYTZRx8F/QHPb/EnSHLaimIwKBRYA851Bt27ZtQ6/z7uYeCMjKiRMntiX3+UZg3dNV123atGm8KVOmTMP3bFK+gvDyxaVwO0mSJI3PnDmzyuruBOMuwJKwAN9/Kcb6AwVlmpctW/aaq/jpPtYgIEG3xjpoFCJgeQK5cuXKfODAgVGcArPRyWt3kyZNmpLnfMzupUXN6ZwKa1XPnz8/HkEPh5nd/F18GT58+DW0hW1F5PtVqy/O2LFjoxGU+MOrV68+Z6O1lBTCZgj8Q6uPW+MLWAIS9IDlqauJgCMJkKIWkRzzHviXa3EKfPTZZ59158S+lF7br+0+YfzjkVq0aDH33r17hfE/h8D37IcP+iZ93dsT3b6IDYvlU79q166ddtasWWtZi6i8ZuIWaV+0aNGndl8bjf/DCEjQP4yX3i0CHkeAEq9hqlSpUoOUqH6czMNyApwzbdq0bpwA7zkBBpaH7Dt37pxO+dpUnHC9qXr3gjlu69WrV62OHTta3p2AhSF45MiR6z18+HAoYw9FsGKHvXv3TnTCZssJz5cr5yBBdyVt3UsEbEiAAKtcRE9PQjiSY46+Q4nX5nTxMmlqlj+5/hdu08+d+bSgh7jpUhaRDYsfovgEce9HRP9oO4jiu6Ysg0m3q8/4fZMnT17k2LFjO/9r7vp/5xGQoDtvTTUjEQgwAsOGDQvLSXUIYlEzVKhQz3x8fIYNHz58cs2aNW1vzkXMvatWrZqCALLpnGqz4D8PTiCcH/AuUR2uGtHtthDFSpUqJWcO45jDF7wuMqciCxYsUFOWAPstsM+FJOj2WSuNVARcSsCYcnPmzFn0559//obe2j5Et28cMWJEy3bt2l126UAC6WbGlVCkSJF2+M5N1H5wLA7enMxfYoVYNGPGjHZ2qUtPC9uitLCdju8/MpuuFXRZa8Cmy/YbrkBadkdfVoLu6OXV5ETg4wlkypQp48mTJ/sicF9gjr5DIFyPI0eOmCCxNx9/Vev85Oeff56NlLSxnMqzEOjnzRzfYm6/xjybMM91dnApkK4WtE2bNi2vXr3az6wLr34I+yirp9lZ5ylw1kgk6M5aT81GBAKEAFHfPpMmTZpnxBxxeIypfdyDBw9G8/XLALmBBS4SMWLE7sypI0MJz8ncjOgVJutVmK/rksNt+UIyZsDz5s3zIbVuGV/mZWNymeC4plTx22j3VEILPB62HIIE3ZbLpkGLQOAR4NQXjuYr1RCGAZxY3xLxPYVyr8MpvOKYvOaGDRtGIO3uRzYsmQkkC4p7wY8T+r106dK1PnTo0LzAoxuwV54wYUI8TujriM5PQgzAFjZhtalHfzNg76Kr2YWABN0uK6VxioALCKBrQePEiVOJKPZOiERyxO4A5V6rL1269LwLbu+SWxC9HqpkyZLVONGaRiahualxn7/C/7yfmIHGmzZtOuySgQTATQoVKpR948aNS9l4RWfjNZZNSk/SCZ8HwKV1CRsSkKDbcNE0ZBEILAJETCdZs2bN0qdPnyajUto5RGLorVu35gfW/dxxXVLRMpDWNZ4TeQ4T6W5O5wj7Q3qfdyN9bbpd3Aom5Y7mOHXZfA3ldB6CnvS18aUb87s+PJSABN1DF17TFoG/EsBvHm3u3LnN8Cs3I0jsMf7Yvl27dl2BSfeBk2hRn73hxYsXB2Fuj2Tmhf/c+M631q1btyG93i/bxf9sUgrpQz+E7IM6rNcLrA5FV61a9YuT1kpz+TACEvQP46V3i4AjCRif8rJly7pzMq9O2dMgnM6nIQ698ufP74iI9veLRl32iF26dPkWc7vpFheMvuF+uBYuI/LNiXi3VbvRMmXKZMCaMpMNyGdEtp8m/7w0+efnHPmAalL+IiBB9xcmvUkEnEtg165dofGT18R025GTqg+V05bR6GMIwnfBSbPGRB0SH3kF8urHI+QRTRMWhPANX6+iDnoLytvapjuZiXVImjRptQsXLoxnDkGJdZjFvDrgTrB9X3onPXOunosE3dXEdT8RsBABUzwGESi5f//+fgRWJcb8vIcqcLWJaL9koWEGyFDe1WwfR/BbRk7oQfjsi6g/pSFLV+qgTzGBcQFyIxdcZMeOHeHp0T6LMZdh3W5R+Kfj7du3Fyr/3AXwLXwLCbqFF0dDE4HAJGACwjixpqdi2mjuk5aT3vUECRKMOnfunBEKR5naf/jhh5D16tXrRfe0tmxaQiDo5m+fOc0eJHag8rhx464EJuuAvvbQoUNjDhgw4AdK8qbi2kd79uxZuUePHmcD+j66nr0ISNDttV4arQgEGAFyluO0bdt2CP3NS2KyvUFTjxFTp06dj8g7Lu2J6P1Uixcv/pbTbBLcCsHRdBPcfgL3Qgcaz6y1SyCcWXyzEYsdO3Zuxj2DdYvF2PsTzDe6Tp06LwLs4dCFbElAgm7LZdOgReDTCCDccYlgb4eZthoiZyK9x1KnfTR1wJ982pWt99MIYAiEuykpaf34OiwC6EXKmi9iiGdhSleE0FZR/MZ/jom9OcGLvdiMvaKRTAW7NJKx3tPhrBFJ0J21npqNCPwnASrBRatdu3YPzLWVyF8OhqCvxRzdkxO7IyOk8+bNm4rmJZMQvzzMNQiAOKT7PqUoSxmEcJvd/M4TJ06MhIl9HEGM5YgD2PnVV1/VogTs9f9ceL3B8QQk6I5fYk1QBP6XAKbZCN26dWtH7nITc3LltaV169bdRo4cedxOZmf/rinzity3b98h5NZX5UQempO5N5+foetbiOKv3rt3b7udzr0LFiyYZ/PmzfPYi/mQXjiFbnE97FIMx7/rpvd9HAEJ+sdx00+JgO0IEBjmU7169XpPnjxpTnR3TIqRnMK33IxiMrvtdkr1D3xjmo4XL16lK1eujETEozHHIOScm45qJ2LGjNmNqmqr7baJMdHtCHpv1q8+DJ7FihWr3eXLl00HPF//MNF7nE1Agu7s9dXsROB3ApiWI1SsWLE90d2NeVHRNfSxNGnSdN27d+9mu4maf5eUzUssTNFTEfOixrWAyd386AtKvI6g3/lgap7bLl6ANctJFsIEE93OlH6mUlyVjh073vAvE73P2QQk6M5eX81OBH4nULRo0bI//fTTEE6oCTi5XuKE2mXMmDFrndrIw9Q5p995aaq/fYOQRwNBECwSfqTm3c2TJ0/J7du377Xbo2HmRL32BtTWH8JcvNiYDFm4cOHIEiVKOKalrd3WxGrjlaBbbUU0HhEIQAIEwIXmBFeU/OtRCFsMTuMXU6RI0ZcAuKVOK+v6HptJ66KKWr6zZ89O5HtJEL/gRgAxUz8gmn8p6Wvt7NLv/I+PAvUCwhDIN45o/aq4Dc4R7FebznD7AvBx0aVsTkCCbvMF1PBF4N8IpEqVqtDJkyeHm3rfiMCz6NGjD+jevfu0pk2b3ncqOVqIhiK/fsSjR4+MnzmESVND5N9get9B/nZHTNa2FEHq7Sch3XA1ke1JsLQsXbFiRevSpUvfceo6al4fTkCC/uHM9BMiYHkCpjLanDlzci9atGgw/vK0nM5vkYs9meYdYzC/P7X8BD5ygOZ0Tl52GnqEz8fH/BmXCUqK2hte19jcdDp+/Pi3dirx+h6DWc8GDRpUopiM6eHuHTFixBFkKgy241w+cmn1Y/4gIEH3ByS9RQTsRMCIWrJkyUrhP+7OuNNzonvh4+MzfPz48ZPxmd+201w+dKzUoY+yfPnyzghdQ6L5Q2Jqx23+9hH+5iU1atTojavBlpYJshGSf//99+OZU27W8zLrWGP27Nn7nBrQ+KHrrvf/DwEJup4EEXAQAXOSmzZtWubVq1ePxMSekbzrm5zQ5/z444+DaObx2EFT/duptGrVKgaWiS8R8VgInxfV1J7x+W62bNl2rFy58pRdBTB+/PgNL126NIC5hGHiC6hw15rNi2MtLU5/TgNrfhL0wCKr64qAiwkYMacCXEWKqLTDx5oCk7MvQWAziGYfgLn2pouH47bbmfxzuscFyZQpkxmDn3kh5G/dNqBPvDHFgMJQDGgKleG+Zh7nSF1rfuTIkY2feFn9uAMJSNAduKiakucRIJo9aJs2bb7gj/4kTuUJ6fH9hKjuhaVKler73Xff3fI8Is6ZMfX1E0yYMGE9QX0JcR0s7tSpU4vOnTs/dM4MNZOAIiBBDyiSuo4IuImAieru169fSaK3TWvQjAj588iRI4/je1OaNGly1U3D0m0DgACukrBYV+pS7a6/Ce4jHa/l6dOnFzutvW0AoNIlICBB12MgAjYmYMzLiRMnLnHt2rVh+IvNyfx5mDBhlmJm746PVSdzG6+tGXqWLFlMv/ppuE/SYXm5MmTIkDyc0G3Vu93mS2Cr4UvQbbVcGqwI/C8BfKuxiFwvRZ55K4Q9KQFT5zNmzDiofv366yTm9n9S3uXT9+Nk3vThw4d+mNtn4lppr8pw9l/bwJqBBD2wyOq6IhCIBDi1BS9QoEAnzOutyDGPgKA/pWjKYBqOjFbnrUAE78JLUxwnHt3idnLLOPjPjxAM1/LgwYPbXDgE3cpmBCToNlswDVcEOLlFJOq5GEVGhmGKjUF62g1qfM/AZz6uVq1ad0XI/gSMKyVt2rTFTpw4MRsxD886T163bl13T0g9tP/quW8GEnT3sdedReCDCZh63lR6a3X37t36FE2JxwVuUzRmNOb36RQbuffBF9QPWJIAGQuR6QjXj7rt9TG5PypWrFi5tWvX7rRrHr0lITtwUBJ0By6qpuRMAsOHD486YsSI8oj5QPLMwyPo1+iHPYkiI5Pxqz5y5qw9b1am0h+d4socPXp0JLOPywn9VO/evfN17dpV1hfPexw+aMYS9A/CpTeLgHsIEAwVgRS0ThSNqcSJLS7V3+6SmtZzwIAB38nM7p41Cay7UukvcosWLcYQG1ERU/sD1nokjWZG2Lk4TmCx0nX/TECCridCBCxOYPDgwfH79+/fnjreDcgzD8bp/DT5yAPIR14gE6zFF+8Dh2eCHanbXofWr8PIWgjx4sWLJZSz7UgaosdU+vtAZHr7HwhI0PU4iIBFCZjAqOLFi8ej53UHcpC/wvTqg5n9Sty4cdt26NBhU6NGjZ5ZdOga1kcSwLQeneDGUfx4WSwxT3ClVFyzZo3xnft+5CX1Yx5EQILuQYutqdqHAGIeBD9qak7hQxDznPxBD8Lod0WLFm0ARWR26GRun7X8kJESxV5o3759U2guE5NnYAVtYOvmz5//xYdcQ+/1XAISdM9de83cogRMUNQXX3yRdPfu3X0wrxfmVB6cP/C/Nm7cuA3tPw/Ll2rRhfvEYdFcx6devXq9bt261diczgl47ENdgUnavH0iWA/6cQm6By22pmp9Aoh5iPTp02c9duxYF0abgz/sbynluqhChQqT6X99zPozCNwRGjfE0qVLvbBUeHNyfRO4d3Pd1c28UqVKVZyqf5NwrUQhGO5AlSpV6pG69pvrRqE72Z2ABN3uK6jxO4aAyTGvUaNG6TNnzrTnRJ6CiT0KGzbsbEq5TqRi2DVPO6kZS0W7du3iHjp0KDXBYexrwoTEHB0dsQsePnz4S2XLll0/evToB054AHbs2BG+ZMmSQ4lmr8187sWJE6fn5cuX57Lmr5wwP83BNQQk6K7hrLuIwL8SWLlyZXhKfdY+f/58K07lMXjz7eTJk48gun02BWOeeCI+UvWiVa9efQg8vsTtEJrmM3wK6svrKa6IhZiouzol/57NSU4qwU0jXiIWaWrL582b175cuXKO2Kx44rPrrjlL0N1FXvcVgXcEWrduHYvc4/qkpdXlW9H4g349Xrx4o7dt2zYrZsyYTz0RFKfz4JigTfpWX0QuOgy84eJFbvZzvv6ladOmLSdOnPirE9iwcQnHfHrSy74J3fKuU7O9OdaaDZ5mkXHCWrp7DhJ0d6+A7u/RBGrXrp1wxYoVzSkYU5s/4MH4g36Fz9/gL5/GydyIl8d9GH8ybUOzY2ofh5inw7wehM9emN19YbOjTJky3WHmiFQuk83w2WefFcB3Po6FjoeLZRcblerqludxj32ATFiCHiAYdRER+DAC5g953bp108+dO7c/HdNyUjDGG9PyfoSs+65du/Z7csc0XA0p8R9P5jCeG6pBCBLzRtDf8vX1nDlz1tu5c+dGp+RlU/0vMZkLU3AjZOd1L0mSJB2PHz++VJkMH/b7pHf/DwEJup4EEXADgYYNG6akBvsATuQFECsjWlcwMXejPeYa/pg7Jnr7Q9HOmTMnLIFwrW/fvt2ZILhw+Mq92Oj48bqH4C1ctmxZD6f4lk3QX4YMGYr/+uuv8+AUlE3dGnzprYniv/2h3PR+EZCg6xkQARcTMK1Pe/Tokf3KlSut6ZKWlajm11GjRv2WDmrjCIQ648lRzUOHDo05aNCgOvfv329PS9iIiHgQRNyPiP9X0aNHn85Hr9KlS99x8ZIF2u3MfLt3726qwpVCzC9gfWj1448/bpHvPNCQO/7COqE7fok1QasQMHW6SU2qiWC14lSeiHG9xj/8/ZAhQ3pger1glXG6axyUtK0PmwGwiWJOrMZvzin2lSl3mzlz5lp79uzZ4a6xBfR9CYQL2qVLlxrnzp3razYvbFq20wK3KuV8Hwb0vXQ9zyEgQfectdZM3UgAP2mcjh07Vqe/dQtTOASxOk+P6yEtW7b8zimpVx+LF3EL0bNnz3y//fbbRAQ8EXyCcDo3Yv6a194cOXL0xW++2SmuCBM/Ubhw4byUdR3LXFMwr4v58uWrvX79+l0fy1A/JwIyuesZEAEXEECwIlMwpgfBb19TFCUS+dRPIkWK1OvEiRNzPDUt7Y/Y06ZNmxcWvWGTF0ZBeXlhgvbl1HqJAis9Ll68uBjRe+2CpXLJLUwRmfLly4+jxGt5BD0o6XjTFi1a1MPTN3Yuge/wm+iE7vAF1vTcR8CY2OlV/tmFCxfaPHv2rCQns9CI1vYIESJ8Q3T7Wv6Av3Tf6KxxZ4IDYxEINxMRL2TEHD5eCJwvloz7fJ7dq1evvp07d3aUGTpdunRZDx8+PIOgv6QE/R3CUlN31apVx+U7t8YzaedRSNDtvHoau2UJmJrspKAVPHqzEwO/AAAgAElEQVT0aAvyp3ORX+yLqO8ih7ozOdQnnGI+/pQFQMwjfPvtt63IwW8Hr/D4yr0ROD98ys8Q9lXNmjXrScnbs04SOnrbRyDwb9DDhw9rwu5NxowZu+3fv/8bPQ+f8iTpZ98TkKDrWRCBACZgxJxqX6VpsNKDtLTkiNRTRGo5ZvcRs2bNOh3At7Pl5WAUjHzzetSt78bXcU2uOR9emNlfwOoI/JqSwveLLSf3D4P+g+98QahQoSLgejlBV73GW7duddQ8nbRmdpuLBN1uK6bxWpaAySsmcjkiudLl8Pu2JrArAQJ1I1GiRPMI7JrPx3knnTY/diGMmGN2zkRZ12kUj0mF6Tko4uaFyf0V/2fK3nbBDP+d0/qAU/0vSosWLUaRqlgedo8SJ07cl2DJuaQsemR53499fvRz/0xAgq6nQwQCgIARc0zIn+Ebb44wVeAVBPE+T1nPwWvWrPkeUX8RALex/SVMWdfcuXOnJAhu6L179woT/BbcFI8x5me+voS4j16wYMEUJ8YXsFEpQwW8UZzOozPXKdQj6NmhQweJue2fautMQIJunbXQSGxKwFQ3mzx58ueUbG2L7ze3idIm8G0zIj4Bs7FHl3H945Iak3PWrFk/JyCsByfyYgS9hcaC4c33fXk9osd5H+qYz3JKJbj3czebPfLLE9PbfCxf58Fyc4ACOW0IhDto00dew7YoAQm6RRdGw7IHASp7hSUFqSl55ZUR8mT8sb5LBbj59erVmzRq1Kir9piFa0ZZpUqVqN9///0oxPxreIVA3Lzwl5vSrk8JiNtM1bS6vXv3dkwluPdUidKPNH78+J5006tPcORrNjHDsVCMlNXGNc+dJ91Fgu5Jq625BhgBc9qk5nZEepiXo4xrDwQpCq9rBHetHDdu3DAar6ge9x9oUwUtzOjRo79CyEZgxYhiTq189sPc/oKvt5ERMHDv3r3bnRhjQI3+ckbAmW8sno/9BEfWo47/yQB7GHUhEXhHQIKuR0EEPpCA6dWdLVu2PESxVyUVLR+W4yicuq7jF+1KkNPm6tWrP/rASzr67aZ+PRXx6pNb3ihcuHAJYRWMVL7fy7oicrsxPzcmfe2UEzuMUdY3/LBhwybS67wsz8kDSv12vXnz5kInztXRD7FNJidBt8lCaZjWIGBS0ojQLnD69OmemI1TYS5+zqnrAF2zviG9eC2R2R7bKe3vVuiHH34I2bx585KXLl2ahIhFNZ3l2PiYk7kJgjtKxbzhN27cWOSUdqh/ZGBK2uJCKE471El8PwJi/gNpiy0rVKhw3RpPs0bhNAISdKetqOYTaAQ6deoUgcCmcrT2bI6Ip0KcHnHqWjB27Nih9evXv6NT15/RG7M6/b0LENndB1bZ+d+gxmeOkL/hhH4hV65c3bt167bCiRHthkSmTJkyEgA4Dg7pTEoe86xKDMEGPSeB9ivq8ReWoHv8IyAA/0XgXX55AvzAjegGVgdfuQ9m43ucuEZTtnMGvvR7/3UNT/z/ihUrJoLNYjY/GbBkBEPIvcg790XU79EydhIpW0OcmrZlYizYzHSgm1qXiBEj+rGhmUNgXKc6deoofdETfxlcNGcJuotA6zb2JGDypoliT0OKUTcEqRCCFJIT1rHIkSNPxF++7Ouvv35iz5kF7qirVq0aifz7Zoh3F0q7huazNxshX4TtKRzXEDQ4EH7HnBgEZ8ScYjHJN2/ebGrUp4H0z5je2/I6GrjUdXVPJyBB9/QnQPP/RwL4f30qVapUDn9vG/4wp+RU7ksQ1y5MqS13795t6rH7Cd//JWBqtNM9rA8V0erwvz7mHe/S056QtrWcVqndcV9ccSq7nDlzJjl06NAY3Ap52MS8Jve++vbt22Vqd+qCW2heEnQLLYaGYh0CplMap8wKBHP1R8hjcrJ8jpjvjx8/fndKlh5wYhBXQNDndBqSFLRK8BsDrwim4YrZ+MDvFV+fTpAgQbNTp07tcCo/89xQGKcDcQOd4Gn+vu7jZF6F162A4KtriMC/EZCg6/kQgT8QMClpefPmzUCFt2qY10vz72j4fy/jB52EwC+lktkNAft7AkbMsGiUvHbt2mDYpTCn8nen81cwPImYD8CnvAIx/73WqxM/iBvItHLlytlYdVJQxvZQ8eLFmy1fvnyPE+eqOVmPgATdemuiEbmJgBHzPHny5Nq5c2dv/hhnIMfcm4Cua4h5P/KJlyug6Z8X5l0t+3SkZY3jNJ4V0cZVHsKPqnBv6Th3OlasWP0IKlzl5EYkuGF8iGTvRY36htRr9yYDov+GDRtGZM6c+bWbHmnd1sMISNA9bME13b8n0KpVqxSkpJWm+EkdhCipOV3iN1+DAA3s06fPYf1R/vcnhxz8pP379x/99OnTL3hnGMztvvB7i7Cfo679ILIDFjv5ZG7q+bdp06bV3bt32zD38LhpdlHqtg6NZi7qd04EXEVAgu4q0rqPJQmYkyWVvGL06tXL1Bgvip83PKfzRw8fPtxGAZABmEvVq9ofK4c5vTjxBi3YDMU2Ndp53UbAb8WOHXvV1KlT1xUuXPihPy5jy7eYqPb06dOXIBBuCBNIxun8Kr3e2/PvlTBQoSFbrqo9By1Bt+e6adQBRKBJkyafU5q0CRHJtblkcF7nY8SIsZRGIeOpcHbDqcFbAYTv/1+Gqmih6QEfHheFtzmZszF6EydOnDf4lJ87vZAKc4+AO2YscQMVAPKKrnHDqec/ipTG5wHNWdcTgX8jIEHX8+GRBHbs2BG+WrVquRGh3gBIiZ/XdP36LXXq1L3pkraNEq7KL/fIJ+PDJm0CAcuWLVvt6tWrQ/nJsFh3NrZu3brhwIEDb37YlfRuEfh0AhL0T2eoK9iMgGl5yumpOSb2BrziYjJ9jd9zXYsWLYaVKVPmgOqx22xB3ThcLBDpV6xYMYHNYDaeoesEUPamNv0sp1sl3Ihct/4XAhJ0PR4eQ8A0VilQoEBa6muXI3ipxruWpxfw+37HieobBP2qisV4zOPwyRM1ndT69es3gGyIGgj6m+jRo0+ivOsINouOjRf4ZGi6QKASkKAHKl5d3CoEEPNg/MGtQBvL1owpFWIeAl/vzdy5c7elstn6mjVrPrXKWDUO6xMwJYGzZ8+eY8+ePYsZbThcNhumT5/emta5jq2AZ/1V0Qgl6HoGHE3ARLH36NEjMX9syyDmjUlHi4eZ/T7NQeZ99dVXc6knbkq4vnU0BE0uQAmYqPb/1965QGdVXXkcEpR3TKAW6Aqv8AowqBR5W2AkIo9SQUWQAgYI78JIAgQIjAQmPMJDHg2GCAMhyaQIBEfUynsBlRSpolKcyCNIeQQBIQEktArM/1hmTTur0yaY78u95/6yVlYQvtx7zm9v7//uc/bZW1n9T+bl5c3QhdvqiFpe27ZtBx04cOC3JFGWKGouVkwCCHoxgfFxdxFQ9F0nIyNjjs5HP6WHbRWzX65oaq2qec1VpzS6pLnLnI4Y7bRp0x5eunTpZmW1t9G++W19p2vpPdrWznGOgM4gikQAQS8SJj7kNgKm0IeagDxx8eLFkTqS9rTG/432OQ83adIkTf3L37C5YpnbbOWm8aphT/nIyMj+8quV2rYJ1DG9vcOHD49JSko66qZ5MFY7CSDodtrV07PSAzdYEbjpXT5Cz9yaJipXsY+9o0aNiluyZMlxmyuWedrwfph806ZNI06cOJEgn3pMS+0FtWvXHqijj3vYtvEDfG7xDwkg6P8QER9wCwEV+Hhw48aNDbOysmL1wH1a30H6PqWWnWtV2jVDmex5bpkL43QWAZOLoRfCMJUHTtafO2l0hXpJ3LR3794JKgt801mjZTReJYCge9Xyls1bYl5txIgRz+kIUaSagzQ309Pe5s6WLVumJiYm7tDZ8luWTZnp+JGAltqDlEQ5z1QUlF+VUXSe1blz5xm7d++mVrsf7cCt/j4BBB0PcT2BhISEGoq+X9bDdpSW2CupdWWBoqe3deY8Tg9i2p263sKlP4Hw8PDO6uO+TgmVoUqGOx4REfGcOqnlULeg9G3DCP6XAIKON7iWgMpuVoqLiwtXu9NIPWSf11JosCZzpmHDhqvq1KmzaefOnX9w7eQYuCMImKX2AQMGhKka3IJ7zXsKTfc4FSZazr65I0zEIP6CAIKOO7iSwJ49eypoiX2gOnzFaAI1Tf9tReZn9LBdkJ+fn+rKSTFoxxFQGdfK9erVW6wl9hd0SqKCVoCylHQ5OSUlhXwMx1mLASHo+ICrCJiIKSoqKmT//v29tAQaq8HX13e+vj/t0aPHwilTpnxAYxVXmdSxg1VeRmBycnJXNfJZoKqCYRL0T2JiYkYvWrTIFCO669iBMzDPEkDQPWt6903cVOjq06dP8+3btw9RNP68HqohipgKqlatukylWzfqSNoZ982KETuRgPG1Z599tsPbb78drz+3k6CfqF+//qRTp07tcOJ4GRMEDAEEHT9wBQG1NA1evXp1V0XlE5XF3lSZxoVqqvJRWFjYKkVNu9SPmiz2+7SkqUvevn37xno5CpVwfXcVk8mtF6ZAlcq92aFDhyPz58+/ep+Xd+WvqbVu6KZNm1bI1yIUmV/Xsvu6VatWJVCQyJXm9MygEXTPmNqdEzVL7LGxsbXS09PHnz9/vo+pxa5M4yv6ma4a7cn6t/MSnj+rEF/3RUDnqP/pyJEjJumrhUS9oniWlbDf0cX+qO8Lqq43KCcn55hXlpnlc+Vr1qw5StXgTK32cupxvkWReqy2ci7fF2B+CQJ+IoCg+wk0tyk+ARM5NmrU6JEvvvgiXgLTWWU2AxQxfanGKr9cuXLlWtpUFp/p//2N6OjoxtqqmC3RMmf4A7XqYc5YlxHrb/XzePXq1RdkZmb+h1d6xJul9saNG5uSwcsKCgqa6OXxv1q3bj1W++gHvz9trgAB3xJA0H3Ll6vfJwFF3g+98847T+Tm5o6S0DyhiNyIzG7tl2+WmG+TmNNY5T7Z/s+vmX7es2bNmi4RG69l5cp6WfpuqV0/zYpHrk4MxM2YMePXXmo6ooS3uuoBsFQ+FyGfK1SVwcS33nrrlxQm+p7Oxq/7hQCC7hfM3KSoBExUrnO/DbR/Ga/f6aj/ri6x+bJatWoZEvEVyjq+WNRr8bn/n8DUqVND9GI07vr165Ml4lUk4gFGzLUS8q1enHJatWr1SnZ29havLLMbUqbxysCBA6eKSbRWJwqDg4NTxGmxvgvwJQi4gQCC7gYreWSMZr9cmcRttMQ+TlPure8H9X1e+5mv60jaWtXRvuwlgfGV2Y1wKelrqM7rT5eI/0jiFSiuZqn9G93zogR9pk4SZHopKjVL7dre6aS6BubMeWNVGvzN+PHjxykZMNdXduC6EChpAgh6SRPlesUmYIS8WbNmdfQw7a++5WO1jxuiQPGaRGZfmzZtlq1YseKwEreM2PD1PQmYBjYTJ07sf+7cucUS7uriHCD+ZSpWrHhbP0/r7xLWrFmTqtWQ29/zVq75dbMqpEz+CK1IzNOgG+v77KOPPjrmk08+2eOaSTBQCIgAgo4blCoB8zCdNGlSqDkSJDHvbjKMNaAr2r9NnjNnTpqipHNE5SVjIsNax6+6SczNdsbjikTLGjEPCgq6c+3atbNaYl6i3IX106ZN89QRNZ03D1WTFZME91PlaNzQvvmry5YtW0HSZcn4HVfxHwEE3X+sudNfEDBR+ZgxY+oqg/p5PUjN8nprReaFEpkdvXv3/ne1O93npSVfXzuHeD+o0wEv6KXpFTGurz3zQHNPZXHfVpGeLzp16jRt3Lhx/ykR+5Ovx+Kk6yspMFjiPVv75oNM+oAYpakF7xSqDTrJSoylqAQQ9KKS4nMlRsDsV0o8whSVT9NFe0tgghUVFUhk3lGLytkZGRmnaXxRYrjLmJcnFURpo+5gS0zVM2VvB5jjafrzHZ09zzd9vdVDfnLPnj2vldxdnX8l09ynf//+w0+ePDlHSOSClY898sgjv1CzH5banW8+Rvg3CCDouIVfCeg8b1VFge2vXr36kjqk9ZVwB0hQ8vTn1f369TPRER3SStAi904NNFZhlERdtqtazFbUPnkZ/TSFY65KxN5UgZ7ZyuT2HPfatWt3O3PmzDKtUoTpZfKizuL/mxIv18s/C0vQBFwKAn4jgKD7DbW3b2SixKeeeqr20aNHR6v15LN6gNYSEZOQ9aEqkSXt3bv3XWWzf+1tSiU7e8O8e/fuzdSZboaW1Z9RRnsFLSub/+fvStTz9e+7tWc+Uf3kPVcDf+TIkbUk3ul6oWwnX8yvVavWQi2/p4waNepmyVqBq0HAfwQQdP+x9uydTGa19ikbqbzoVBXs6C5ReUhR+WUtc77ZvHnzlA8++OD3lG8tWfcw2xqDBg36kSLzmcpRGKCrB5lldomXicxv6N+3tmjRYoFscqRk7+z8q0m4ay5fvnzMlStX/kXReaD8MUuJmTNVaMdzqxTOtxYjLA4BBL04tPhssQiYCDE+Pr5GUlLSC5cuXRqiX25sGn5IWE6avuUqObpV56Gvk8VeLKxF+rDO7bfct29fvLYynlBhnmBF5KZE+11F6l8rqz1LbWanx8XFmTr4nmoDarYgatSoEa3SrtGqWx+i/I0jitYHK5/jc6+xKJIj8SFXEUDQXWUudw1WkdAPFfVEK/EqSg/LKnqY3lRE9LGWgf91woQJvyOL3Tf2FPcKOrs/X4VjhkqwdBKralllcZvI/LaW3T9W4teEjz766Le+ubtzr2pWLUz73a1bt66XPzYSm7M6xhevlqhvkITpXLsxsqITQNCLzopPFpGAyR4eNmxY+xMnToyVmD+pSKiKIsNcNb1YpQIeW9euXXuCaKiIMIvxMbMi0rdv37qKzIdLwMdoeb2a2Jc1JV3F/ysVj9mjAj7xhw4dMp3TPHU8zYh5ly5dOh88eHCKhLyzqVevynATdGzyDRUtYt+8GH7GR51LAEF3rm1cOTLTVCUtLa2HosOp2ptsbtpw6uukko5eVfvTVK8JiT+NqBelYBXieUVnzQdLwKppa+O7/78l5re05H6oadOmkz/99FNPdg1T05UfaJ98g5i0E48A8Xg/Kiqq32uvveapIjr+9Efu5X8CCLr/mVt5RxMBKfoO01LuOAl4pCZZWZHQV0p8+zA8PHyWSb6SmJv+2nz5gIA5Dqgz/H1V8W2xBKu6blHWtEEV81uK0H/foEGDRZ999plptuKpyNygXr9+feXp06cP0FFJU42wmv7qNzqX/8q2bdv2+8AUXBICpUYAQS819PbcWJFhhdWrV//k8OHD43S++ScS9EoSkWvaL1+gVpRvKAGL8q0+NLf2gCuo0lukBGus+IdLyBWAPmAicyPep9TTPOHy5csbvCjmphGNKhL2unDhwhxt/zTUC+Y1Lb0P27Vr1685WeFDp+TSpUIAQS8V7Hbc1GQMjx07tu66detGKJt6hInKTUSofdv3JTBJqsK1U+d6aariQ3PrjHkFvVC119HA17W9UVff5bRXXkb2KJR45ant7HwV60nzYgKimASqhHCEMtpX6iUn1PBQgmC6EgbnDRkyhJoHPvRLLl06BBD00uHu+ruayEdduzqePn16siKftnpYVlFkfl7H0VK7du2aqX7mx8kc9q2ZJeZVhg4d2kvtZqdrNaSJRKu8BL2MbPGtVkhyJOYrU1NT12t52ZPipQTBplu2bFmh1YoOpsyt6rTP0tJ7qk5YXPKtZbg6BEqHAIJeOtxdfVcTFeph+bSCwLmmd7Qelt9qQnkNGzack5yc7Kk+2qVlSLM6okTD57SUvFAReS29VD2gF6oySvq6o5X2q2FhYTO1rLxW/eVvldYYS/O+2jf/oRIEZ2sLYrDYlFFZ13dVD2G8XoAulOa4uDcEfEkAQfclXcuubRLf9EBs8N577/1M+7VRelDWUxR+IyQk5E2d5920ePHi9+lS5Xuj39sX/rGWkhfphaq1jmA9oKj8rrY6TOGYc4pEf/Xiiy8u1NKyJyNRLbVX1Fn8sUoCfFnReYgsclwvNpM///zz3fJXcx6fLwhYSQBBt9KsJT8pIyI64tNOmcHzJSDNVLq1in5e1p1eXbhwYbKW3/NL/q5c8W8R0LbGk4o8l5gkL4l4RZPNLuG6pZ9fqtnKa2pyk6w65de9SE8vneXUM6CLVieS9edQMfhDq1atJqo2wjaS4LzoEd6aM4LuLXsXe7amWInO8FZKTEwcprPlQyTizSXmARKUUyohmqQs9l/pfK8Rdr78QMDYQysig3X8arTJW9At72qp/Wv9/SWVNH1XVfg2rlmz5oofhuK4Wxg2S5cuDZc/ztLLzU+VR5AfGhq6XEmDSawcOc5cDMgHBBB0H0C15ZLaKy/30ksvPZqXlxcpIR+oeZVXRHhVD8vdioJSRowYcUitJj13rrm07WuWlHXevKIZhynp+vDDD5viPbcHDx58y8uJiBEREXX279+/SkLeSS88d5TRnpGenj75mWee8eRqRWn7Kff3PwEE3f/MHX9HE+ls3769kpKKWubm5iYqEgzX3qzyrR48qyjwdZ05T+vWrdtl9iMdb0rPDFDCHRQdHT1RTYCmmlwPifouCfnkzZs3H/UMBCbqeQIIuudd4K8BmOxpNbBopj3Ifopyeisib6SjUF9LzN9VJJimM83ZqghXCDYIOIWAOXWh7nKxesGM0lZQTfPi2atXr0ES82xeOp1iJcbhDwIIuj8ou+QeJqGoZ8+eLdTcY67EvJMehgrOA/Ik6plz5859NSYm5iuaqrjEmB4ZpllNUsnbVhLv95QYGKT/vqal9iUZGRmL5cuUGvaIHzDNPxNA0PGE7wiYfVmVyOxx48YNcxyti5Ys72qvPEdZ0ykqxPGmBP1LUEHAaQR0jLKZkt4mScx/bpIDJeYr5s2blyJfPue0sTIeCPiaAILua8IOv75JfFN51obHjh2LlIhHarhV9LNASXDvP/bYY4t13Od3Xk60crj5PDs8E5kPGDAgfMOGDSk6d/9j1aoPDA4OzkhJSfmFEjXZEvKsZ3h74gi6h+1vmqokJCS0Vd/yOEU4bbW0Xk57kOYs80odVcscPXr0BcTcww7i4Knv2LHjIVUrnK1VpChVLCwnPz3YpEmT2JycnGwHD5uhQcCnBBB0n+J15sVNFrCOnTVRdB6jB2JfCXiQltnvKPntgM44z8jKyjqoc7umnCtfEHAcAZVwrRIbGztZ20MT7vUQyG3Xrl2f7Oxs0z8Av3WcxRiQvwgg6P4i7aD7qPhIPZVvna+H3z/rgRgkUTdnyXOGDRv2ss4yH0LMHWQshvJXBPQyWr5jx469Dxw4kKhs9po6TnlT++ardC5/JhntOIvXCSDoHvOAkSNHVtKZ3Z/fvHmzpSLzyhLzP+oh+bGE/C2dLz/rMRxM12UE5L8/yMzMHGKaAikJrrx6CHyovfR01W6n9LDLbMlwS54Agl7yTB19RZNMpKXJCurGFXD27Nm79wb7zeOPP07fckdbjsEZAsZ/9eMB+XCgtokCu3Tp8idF5lQrxD0gIAIIOm4AAQhAAAIQsIAAgm6BEZkCBCAAAQhAAEHHByAAAQhAAAIWEEDQLTAiU4AABCAAAQgg6PgABCAAAQhAwAICCLoFRmQKEIAABCAAAQQdH4AABCAAAQhYQABBt8CITAECEIAABCCAoOMDEIAABCAAAQsIIOgWGJEpQAACEIAABBB0fAACEIAABCBgAQEE3QIjMgUIQAACEIAAgo4PQAACEIAABCwggKBbYESmAAEIQAACEEDQ8QEIQAACEICABQQQdAuMyBQgAAEIQAACCDo+AAEIQAACELCAAIJugRGZAgQgAAEIQABBxwcgAAEIQAACFhBA0C0wIlOAAAQgAAEIIOj4AAQgAAEIQMACAgi6BUZkChCAAAQgAAEEHR+AAAQgAAEIWEAAQbfAiEwBAhCAAAQggKDjAxCAAAQgAAELCCDoFhiRKUAAAhCAAAQQdHwAAhCAAAQgYAEBBN0CIzIFCEAAAhCAAIKOD0AAAhCAAAQsIICgW2BEpgABCEAAAhBA0PEBCEAAAhCAgAUEEHQLjMgUIAABCEAAAgg6PgABCEAAAhCwgACCboERmQIEIAABCEAAQccHIAABCEAAAhYQQNAtMCJTgAAEIAABCCDo+AAEIAABCEDAAgIIugVGZAoQgAAEIAABBB0fgAAEIAABCFhAAEG3wIhMAQIQgAAEIICg4wMQgAAEIAABCwgg6BYYkSlAAAIQgAAEEHR8AAIQgAAEIGABAQTdAiMyBQhAAAIQgACCjg9AAAIQgAAELCCAoFtgRKYAAQhAAAIQQNDxAQhAAAIQgIAFBBB0C4zIFCAAAQhAAAIIOj4AAQhAAAIQsIAAgm6BEZkCBCAAAQhAAEHHByAAAQhAAAIWEEDQLTAiU4AABCAAAQgg6PgABCAAAQhAwAICCLoFRmQKEIAABCAAAQQdH4AABCAAAQhYQABBt8CITAECEIAABCCAoOMDEIAABCAAAQsIIOgWGJEpQAACEIAABBB0fAACEIAABCBgAQEE3QIjMgUIQAACEIAAgo4PQAACEIAABCwggKBbYESmAAEIQAACEEDQ8QEIQAACEICABQQQdAuMyBQgAAEIQAACCDo+AAEIQAACELCAAIJugRGZAgQgAAEIQABBxwcgAAEIQAACFhBA0C0wIlOAAAQgAAEIIOj4AAQgAAEIQMACAgi6BUZkChCAAAQgAAEEHR+AAAQgAAEIWEAAQbfAiEwBAhCAAAQggKDjAxCAAAQgAAELCCDoFhiRKUAAAhCAAAQQdHwAAhCAAAQgYAEBBN0CIzIFCEAAAhCAAIKOD0AAAhCAAAQsIICgW2BEpgABCEAAAhBA0PEBCEAAAhCAgAUEEHQLjMgUIAABCEAAAgg6PgABCEAAAhCwgACCboERmQIEIAABCEAAQccHIAABCEAAAhYQQNAtMCJTgFeBNsMAAAFASURBVAAEIAABCCDo+AAEIAABCEDAAgIIugVGZAoQgAAEIAABBB0fgAAEIAABCFhAAEG3wIhMAQIQgAAEIICg4wMQgAAEIAABCwgg6BYYkSlAAAIQgAAEEHR8AAIQgAAEIGABAQTdAiMyBQhAAAIQgACCjg9AAAIQgAAELCCAoFtgRKYAAQhAAAIQQNDxAQhAAAIQgIAFBBB0C4zIFCAAAQhAAAIIOj4AAQhAAAIQsIAAgm6BEZkCBCAAAQhAAEHHByAAAQhAAAIWEEDQLTAiU4AABCAAAQgg6PgABCAAAQhAwAICCLoFRmQKEIAABCAAAQQdH4AABCAAAQhYQABBt8CITAECEIAABCCAoOMDEIAABCAAAQsIIOgWGJEpQAACEIAABBB0fAACEIAABCBgAQEE3QIjMgUIQAACEIDAfwMRfcgQsngqgAAAAABJRU5ErkJggg==;" vertex="1" parent="1">
          <mxGeometry x="277" y="170" width="120" height="120" as="geometry" />
        </mxCell>
        <mxCell id="pwwUaT36gZQOdsGTII0K-13" style="edgeStyle=orthogonalEdgeStyle;rounded=0;orthogonalLoop=1;jettySize=auto;html=1;exitX=1;exitY=0.25;exitDx=0;exitDy=0;" edge="1" parent="1" source="pwwUaT36gZQOdsGTII0K-8">
          <mxGeometry relative="1" as="geometry">
            <mxPoint x="557" y="239.75862068965523" as="targetPoint" />
          </mxGeometry>
        </mxCell>
        <mxCell id="pwwUaT36gZQOdsGTII0K-14" style="edgeStyle=orthogonalEdgeStyle;rounded=0;orthogonalLoop=1;jettySize=auto;html=1;exitX=1;exitY=0.5;exitDx=0;exitDy=0;" edge="1" parent="1" source="pwwUaT36gZQOdsGTII0K-8">
          <mxGeometry relative="1" as="geometry">
            <mxPoint x="557" y="270.1034482758621" as="targetPoint" />
          </mxGeometry>
        </mxCell>
        <mxCell id="pwwUaT36gZQOdsGTII0K-15" style="edgeStyle=orthogonalEdgeStyle;rounded=0;orthogonalLoop=1;jettySize=auto;html=1;exitX=1;exitY=0.75;exitDx=0;exitDy=0;" edge="1" parent="1" source="pwwUaT36gZQOdsGTII0K-8">
          <mxGeometry relative="1" as="geometry">
            <mxPoint x="557" y="299.75862068965523" as="targetPoint" />
          </mxGeometry>
        </mxCell>
        <mxCell id="pwwUaT36gZQOdsGTII0K-18" style="edgeStyle=orthogonalEdgeStyle;rounded=0;orthogonalLoop=1;jettySize=auto;html=1;exitX=1;exitY=1;exitDx=0;exitDy=0;" edge="1" parent="1" source="pwwUaT36gZQOdsGTII0K-8">
          <mxGeometry relative="1" as="geometry">
            <mxPoint x="557" y="330" as="targetPoint" />
            <Array as="points">
              <mxPoint x="557" y="330" />
            </Array>
          </mxGeometry>
        </mxCell>
        <mxCell id="pwwUaT36gZQOdsGTII0K-8" value="" style="shape=image;verticalLabelPosition=bottom;labelBackgroundColor=default;verticalAlign=top;aspect=fixed;imageAspect=0;image=data:image/png,iVBORw0KGgoAAAANSUhEUgAAAfQAAAH0CAYAAADL1t+KAAAgAElEQVR4XuydBXRVR7i2E1yDuzsUKO5S3KVAKe7u7u7uWtydFmuheLEiBYpT3N1dk/+ZXvhv21sJkJyz9z5v1jorIZzsPfPMTt6ZT7299CECIiACIiACImB7At62n4EmIAIiIAIiIAIi4CVB10MgAiIgAiIgAg4gIEF3wCJqCiIgAiIgAiIgQdczIAIiIAIiIAIOICBBd8AiagoiIAIiIAIiIEHXMyACIiACIiACDiAgQXfAImoKIiACIiACIiBB1zMgAiIgAiIgAg4gIEF3wCJqCiIgAiIgAiIgQdczIAIiIAIiIAIOICBBd8AiagoiIAIiIAIiIEHXMyACIiACIiACDiAgQXfAImoKIiACIiACIiBB1zMgAiIgAiIgAg4gIEF3wCJqCiIgAiIgAiIgQdczIAIiIAIiIAIOICBBd8AiagoiIAIiIAIiIEHXMyACIiACIiACDiAgQXfAImoKIiACIiACIiBB1zMgAiIgAiIgAg4gIEF3wCJqCiIgAiIgAiIgQdczIAIiIAIiIAIOICBBd8AiagoiIAIiIAIiIEHXMyACIiACIiACDiAgQXfAImoKIiACIiACIiBB1zMgAiIgAiIgAg4gIEF3wCJqCiIgAiIgAiIgQdczIAIiIAIiIAIOICBBd8AiagoiIAIiIAIiIEHXMyACIiACIiACDiAgQXfAImoKIiACIiACIiBB1zMgAiIgAiIgAg4gIEF3wCJqCiIgAiIgAiIgQdczIAIiIAIiIAIOICBBd8AiagoiIAIiIAIiIEHXMyACIiACIiACDiAgQXfAImoKIiACIiACIiBB1zMgAiIgAiIgAg4gIEF3wCJqCiIgAiIgAiIgQdczIAIiIAIiIAIOICBBd8AiagoiIAIiIAIiIEHXMyACIiACIiACDiAgQXfAImoKIiACIiACIiBB1zMgAiIgAiIgAg4gIEF3wCJqCiIgAiIgAiIgQdczIAIiIAIiIAIOICBBd8AiagoiIAIiIAIiIEHXMyACIiACIiACDiAgQXfAImoKIiACIiACIiBB1zMgAiIgAiIgAg4gIEF3wCJqCiIgAiIgAiIgQdczIAIiIAIiIAIOICBBd8AiagoiIAIiIAIiIEHXMyACIiACIiACDiAgQXfAImoKIiACIiACIiBB1zMgAiIgAiIgAg4gIEF3wCJqCiIgAiIgAiIgQdczIAIiIAIiIAIOICBBd8AiagoiIAIiIAIiIEHXMyACIiACIiACDiAgQXfAImoKIiACIiACIiBB1zMgAiIgAiIgAg4gIEF3wCJqCiIgAiIgAiIgQdczIAIiIAIiIAIOICBBd8AiagoiIAIiIAIiIEHXMyACIiACIiACDiAgQXfAImoKIiACIiACIiBB1zMgAiIgAiIgAg4gIEF3wCJqCiIgAiIgAiIgQdczIAIiIAIiIAIOICBBd8AiagoiIAIiIAIiIEHXMyACIiACIiACDiAgQXfAImoKIiACIiACIiBB1zMgAiIgAiIgAg4gIEF3wCJqCiIgAiIgAiIgQdczIAIiIAIiIAIOICBBd8AiagoiIAIiIAIiIEHXMyACIiACIiACDiAgQXfAImoKIiACIiACIiBB1zMgAiIgAiIgAg4gIEF3wCJqCiIgAiIgAiIgQdczIAIiIAIiIAIOICBBd8AiagoiIAIiIAIiIEHXMyACIiACIiACDiAgQXfAImoKIiACIiACIiBB1zMgAiIgAiIgAg4gIEF3wCJqCiIgAiIgAiIgQdczIAIiIAIiIAIOICBBd8AiagoiIAIiIAIiIEHXMyACIiACIiACDiAgQXfAImoKIiACIiACIiBB1zMgAiIgAiIgAg4gIEF3wCJqCiIgAiIgAiIgQdczIAIiIAIiIAIOICBBd8AiagoiIAIiIAIiIEHXMyACIiACIiACDiAgQXfAImoKIiACIiACIiBB1zMgAiIgAiIgAg4gIEF3wCJqCiIgAiIgAiIgQdczIAIiIAIiIAIOICBBd8AiagoiIAIiIAIiIEHXMyACIiACIiACDiAgQXfAImoKIiACIiACIiBB1zMgAiIgAiIgAg4gIEF3wCJqCiIgAiIgAiIgQdczIAIiIAIiIAIOICBBd8AiagoiIAIiIAIiIEHXMyACIvC3BLZs2RIsfPjwId68eROMjz/9rXjx4oVvrly5Xnl7e790N75ffvkl+OPHj0OmTp36/w/l2LFjXsGDB/99zO/HnjhxYt9o0aK9dvWY/fz8vPfv3x86fvz4QQ4ePOgXIkQI71SpUvnFiBHjNcMz4/FzN0Pd3xkEJOjOWEfNQgQCjAACFHT48OFRJkyYUODZs2eZeMUNHTq095MnT7z57PXy5cvHUaJE2RMmTJif+vbte/brr79+G2A39+eFjEiOHj06ApuOpPv27cv96NGj9Pzo73/PQoUK5fX69esgfHgz1t///erVq5dBgwbd7+vruxXxP+EqEf3mm2/CrFu3Lu/69euLMKaIjCUYQ/RlXPf5vLZWrVo7pkyZ8syf09bbROBfCUjQ9YCIgAj8TgCRDNG8efOEK1eurHrr1q2vEcH4Rh8RvyBhw4Z9i7BfRcTXJ0iQYPkXX3yxE8F/6iphfL9EZoxNmzaNu3bt2sJXr16th0Cnfvv2bTCEMjhfe/G1F0LuZb7mZP4GEX3AJuSXkCFDLi1btuyaGTNm3HHFmH/44YeQrVu3Ln7q1KlmjC07Fo2Q5r58PGcuO8qUKTO0evXqO92xGdLj7lwCEnTnrq1mJgL+IsApMviJEyei7ty5M+/58+er3717Nz/CE9qccLnAK062j/j3vpgxYy7ErL2JE+ctxMmlp/IlS5YEPX36dNQ5c+aUvHjxYjUEMh0m9Ui4A7zNOI2QMyavcOHC+fF/6Pjr14j4bUR9bN68eVe1aNHiSokSJQLdPQCnIFWqVIm5adOmcrdv324Gu2RmbIj6W8Z1jzEvLV++/ORFixadcjVDfz0MepOtCUjQbb18GrwIfBwBY7LmlBu+VatWeTh5579z504xxDERJ9tQiKIvZum7+M93RYgQYWvGjBl/yJkz5+3OnTs//Li7fdpPGV9+jRo1amM1aInVIAlWglCIYxAj4Aj276dxxv6GOb3CP30Y8fw5e/bsixnz2V69et13hXD++OOPYbt27Zrh0qVLxWBZnhknYKMRnM9vuP92xrQS8/r3JUuWvOGKjcWnEddP25WABN2uK6dxi8BHEDAnyKVLl4aZNm1aCk685a5du1aNw2xsTpJBEUbjZ36OaB7hJL6sYsWKyxHEewjSq4+4VYD9iNl8JEqUqCxiOZixJDYmdnNxI+Z8/Zb/v8/m4w6n30VJkyZdOXLkyHME7D1xhWndbDbgaSwH9eFW0Ww4EPKg3PsJQ7vH5mht6dKlJy9YsOC8q4PxAmwBdCHbEJCg22apNFAR+HgCRngIvkrK55KITqb79+8XQggjcKINhgC94sS7P06cOFt9fHzWd+jQ4USdOnXMyfbNx9/xw3+SaPUw/NTrzJkzm+jvP31gcg+xcOHCJASXdTLCiTk9CEF6lyNFirQVMd+I739bmjRp7rvq9Mt4QsMz4YEDB+rcu3cvFxuh9PjqQ8LR+Mh3M761mPlXfPXVV5f/bj4fTkc/IQL/TUCC/t+M9A4RsC0Bc7qdO3dutP79+xflNF4TwcmKiId5/vx50HdBY7ejRo26Om3atJMGDBhwKkeOHC9ccbJ9D9SMb+jQoeE2btyYBEGvFDly5PMdO3Zc3bBhwxt/Nw6CyZIi6u2wsMch9Wt63bp1fyL4zJzGXbL5MOMdP358LCwXDYisL4mQp4FjiKdPn75lDPciRoy4LF++fNO+/fbbkzqR2/bXxrYDl6Dbduk0cBH4ZwImyvry5cuRiUTPcuPGjQr4n0sgPJE4OXrjM3+CMJ0i9ewIgW6Libbei3/8gSuF3OSOEzgWDXN1OiLBS5PGlZv7f8aG40ns2LGXkbM9sU+fPr8VKVLk2R/HZQR11apV4YhwD9akSZNHrvCPG8rGwnHy5MkYw4YNy3b9+vUKbIjKYs0Ihagbd8RVNkUbyARYzaZoZ7Vq1R67kqV+D0TgPQEJup4FEXAQAZNDjuhEmzVrVsULFy5UQSgTGCFHYILh0zVR3ofjxYs3l6Cx9Qj6nbFjx5rUM5dFrDO+4Ahe7G3bthXGVN0AAY+H7z4q/u9g+PJ/z3NHLJ9z0j3J+GZiQp89bty4R+5aIhNzMHHixDjk5Re5cuVKbVgmJcDNB3O/KbjzCFFfQsGaRe3atTvIvFzK0l1MdF/rEpCgW3dtNDIR8DcBk59dr169qJwkCyA0JThFFkXAIyBAvgjlHQRyN9Hhu8kfX4U5+0L+/Plf+Pvin/hGc6pmgxFhzZo10fbs2VMM83QhfPi5MP1HZDMRlPH+fgdTAMaYrhH1B/j1f8Y3/gNCOh8LgssF3ZzIKVgTdcWKFdmwJlRj01HMuCrYgLzh6+uMdRNi/guBg0sxwZvAQVV7+8TnRD/+6QQk6J/OUFcQAbcRMGKJWT0+fugqiPiXiHgKvhcG36753X6COG5KkiTJfFK4duNvvuvKAC1zukXIfTCrZ9+6dWs9hDs9AW0xEOswpliNGbtJOePfvrgCzMn8thFJfOOz8Onvnjp16k3e938C5AITthkzwW6RMfeXZtPRCAGPwxiiI+ZB+fom49xDGt+EL7/8ci++/ueu8t0H5px1becQkKA7Zy01Ew8jYMqKLlu2LAsnyAaYgMtgtg6Df/wtp3JTL/wwEeCLEPLFVFa7yYncJUFj75fACGOhQoWSUru8Hab1fPiXkyDYQUxddVNoxbz+J1PO16SdvWbjcZw662OaNWu2uWDBgrddufH4w5i9cUWk/e2331qSh1+SU3gMRNyM9RVCfg4XwPBBgwatrFmzpskA8PWwx03TtQEBCboNFklDFIE/EsCnHJuTb1aCtMoiOEUQxCiIo/FB36UQzOZYsWKtMydcUqsuuDLS2gS6cbKNiyDmxn9fgE1FJk7kyXiFNBYD/m1O4V6Ity+fX7IBOYwrYAM55uszZcp0FZeBy1O8jJVgxIgRUZYvX56dcefH5F+M7yWBd3DG/ZgNyG4C3hayIdpDcZvzrkqL0xMvAh9DQIL+MdT0MyLgBgIm4I3Ta8xDhw5150ReGpGMjugEMxXSOE2eIOVrLgVVFpGvbUzVLgt0MyiMmFPytAhV0hpjqs4bPXr0METWm3o1poD57/XVTTE3BPItnx/iH/8O64FJlTvJadwtzUlMgF7RokWT7NixoxnBg6UZY2ymYoIHTfW5U3RDm/fZZ58t7dmz51lXWzjc8Hjplg4gIEF3wCJqCs4mgPAEwxQdlVKtpRDJCpwiv0Cwg/P9hwjkb/iddxO5Pm/69OlH3WGqfi/oNBr5ilrwHTmJp2Rsod6VZP29jjmCeRdxv8RY98eNG3dJ5cqVD3Xp0sUtwWRUdQs7ZsyYeKT1Vca0XocNRkysG6b6nDH9n0fQ937++edTyBbY78rgQWc/xZqdKwhI0F1BWfcQgY8k0KlTpwjz588vTcOUMpjXv6CUaERTxxwBuk+Z00F0PtvUvXv3cxQzcXnns79OyeS+t2nTJue5c+f6Mz5TwCaoaZKCuB8jt3w6Yrkbk/VpV6fKvR+n8eu3bNkyNkVfmj548KAQ40uNNSHUuwDCR2w8ZhJA+O3gwYMPFS9e3BSrkZ/8I59b/Zh7CEjQ3cNddxWBfyVgmn0g5umOHj3aFiEqiDk4LNpo8sgvYQr+kSCzBWfPnj3s6jrrjCUkEeve/3RyNdYEosC/OH78eFNOuhzIfX4mInw+/me3ma1NSVliDuKTglYWl0B13BQpsB6YxilP4HjOeAwoezuT9+zHDWBKt+pDBGxJQIJuy2XToJ1KwARpUco0OX27TdGVLzjVpqAamUnzekoA2XyC3lZWqlRpN6dIU43MZSdIM64GDRpEp+xqJfz3QdhsTOf1+O/WwZyER48eHYO+6kEHDhx419XlZP9wIg/WuHHj5N9//30N0xIW0/pn/F/Yd6lyL4laH4qvfxNxB0cpHvPQlTyd+vxqXu4lIEF3L3/dXQT+PwFM65EwCZdEwOsjPllM5DqfTRraQYrCzCdlag6+9CeuRGaEfMiQIT6LFy/OTFR9XaLTi5lmLgjhbIqqTKUl6CV3+e3/jQNmfR82PcUpe9sZjmmxFgQhqt6Pzy94/UjMwQzy3LcQFPfUlTx1LxEITAIS9MCkq2uLgD8IGDM2XbmSbt++vSJibhqomGhrX3y8ZziRL0Z8NhFBfoQuaC4THyPkdDCLTER9UtK5quJzLsAJNhliGMJ0LGWTYczVe1KmTDmaRiWbrJDOZbIA2PDEpkRrSiwJVRlvftwU8c2mCDG/i498O7n524oVK7aBanlnrbgR8cfjoreIwD8SkKDr4RABNxLAJBydNLM6nHzrID4xEZ7gCNATfM+LM2TIMIFo8HONGjVyabU0U/aUcqYpNm/e3Jko8KKYqCMYnzOC6M0YvUw+OWM0JWXvE6Q3F/dAbyLcH7oRoxc59xHIz8/HpqgHop2GjZEpYBOc0/kLxv2TqQtfoUKF1aNGjZKP3J0LpXsHKgEJeqDi1cVF4O8JmNMkDT2SIIaNOP1WQXjCI0CP0fMb+Mpn0u502T+1EA0spmZMpHRFpIxsPlK66iCK+TiJh0K8g5I37oW4m3rlvpjcH+DbP8sJ/Xv8+fMxb59zRy1zY0X4+eefQ5l2puvWrWtKlbxSMExmNh1wNJ3YbhtXBWb1JYsWLTqtMq2B9eToulYhIEG3ykpoHB5DwESwV61atTz55HUxr2cyvnI+rnKynEq61EJeNznxmracLvkwwkiFtwhEeRcljetLgt4KcSKPxJhM2tnvTVP4t5+pnIaIb6cS3bfly5dfT831O3Xq1HFZk5c/wpg5c2YoYg6yHz58+Cs2GhkZWyb+30SuP2fDcZxN0ZyECRNuxk1xDpY6lbvkSdJN3E1Agu7uFdD9PYaAif5GXBKQ9lUf4TTNSnyY/AOE81Dy5Mln0FnsR3zRLu0sZnLHKX2aYO/evfUQ7xoIYzTGZIqse1O/3I+CMMZffpuT73XM1pvoTz4OIb3qrtOuSUHDZ2+q5ZUgBa0JG6JkjNcb0/8zxn+VzyuyZcu2Ev//r1bw63vMw62JWoKABN0Sy6BBOJ2Ayc/OkydPpt27d/dkrnkQ8+D4os8R9Da5c+fOK9q2bXvN1eVa8TtHRvhq0zylCgL+GZaC0Aj37zXXzYdpFWqaklDLfGT8+PF/ql279iXcAKbDmMtbhTLWoMQaJNm4cWNtxpUPk//nWDhCm7HC9iJR91OIO9iIG+Oou6wGTn+GNT/rE5CgW3+NNEKbEzC+aZqPlKVITE++TspJ0tjYj8aMGXMQrTq/d/VJ0tRdJ9AuLQ1UapOfXc1UnzO55abeOqLux/hMhP1jNhuzCMxbSoT9AXeJpHEH4NMPR4pZ8YsXL7bh32nZDJnqbl5sLB7zeQscp/Xu3XszG46X7ths2Pzx1PAdRECC7qDF1FSsR8DUDZ87d26un376qTen4HSI0R1E6GdS0WYiVFtc6Ss3dExUPf3JixDw1hrhTslYwhohN8VWEEs//m0C87ZwAt6AeX3xggULTL11lxWw+eMKkv8envawWU+fPl2WwMEibDKSmrFyQn9IsNtPWA9+zJs37w8U4rmu5inWe/Y1ItcTkKC7nrnu6CEEZs+eHQWx6Y2/vBxCGRFz9hM6og0mdWouPbVd3pjECCR13/sg3jUZS2QE8vdOaKYLGkL5BqvBKQLgZhGwN53KaSZK3KUd294/FowpRLly5dJv2LChKT78Unzfh7EEgeFzxro1RYoUU6hdv4vodvUl95DfJU3TfwQk6P7jpHeJwAcRIB0tGuVPqxKF3YETrxGkSwjowjJlykzk1Hv/gy4WQG82QkmEei5O57UJfqvAZcMYIUfc7yHka3gtJOBsH9XqXBqY9356JkBv27ZtcegaV5JNUBXGm5mxGffEK4T8MDXsV9PnfTkV4M6oKEwAPRS6jKMISNAdtZyajBUI1K1bNwWR4P0RpGIIuTFnXyKKvQU+9C1W8PE2bdo0HOOrTN52Xcb4PHHixMOp077NlZXo/rhOxk9evXr18JzI2z58+LA+p/IobIJMRTpf0uTO8PUCItcXdOzY8aJM61Z4wjUGqxKQoFt1ZTQuWxJAnMJEixatNylVNZlASMToIlHiw8jxXmGluuFUgwvVo0eP1PQvf0MTlePuOvGa6PXly5cnp9d7JawGTRDxaDB8a3qoE6j3K13Q+mEx2IaYm3amLo+ut+VDqEF7LAEJuscuvSYe0ARIP0tI1bSGlHFtiCk7JOK0hSjxziNHjjzlypOlOfFito7ESfeVq5u5+Jepib/LmjVrWlrAmkI2tbBimPr1wRHtR7DbQBravCZNmuzo0qWLy2MN/DsHvU8ErEZAgm61FdF4bEnA+Kc5jbcj8roZ+dEROWGeR5Rak2q11ZXBZUYoCxYsGJeSqB3xPV+hEckcTsEmx90yp1uTk89GJwPd2/oSsZ6bBSeoPrQ3X18jen0e/zWzX79+51y5CbLlQ6dBi8BfCEjQ9UiIwCcSQDBDjBkzptj+/fuHIErREdLdRGKPwGe+AyF1WQlXxhGaoLb8bCJML3XTVCU4UfXLSU8bQyDcfleO5e+QGvM6hWESrl69ujS+ctOMJrWJMYDXTT4fIuhtAoVhfrKqVeETHxP9uAgEOgEJeqAj1g2cTMCciCnMUhn/bzMEKg2R7Jfixo3bGFPyPkTqpavmblqwUpq1FHXNu2Cy/hxzezDTHQ1hf0Rg2U6KwzScNm3aFVeN56/3MZuerl275qC1aWe4ZGZ8kUhDMwVsjlAYph8boIPff/+920rKuouL7isCAUlAgh6QNHUtjyJgfNUUX0lHdPYiJh4bcTqPqI4nLW0u5mKXNS0xJ3Oi1Evgu+/GqTy9GZfJL0fY/RDP/QjnWArcLHNHkxJTv55gwDik71W+ceOGqUqXGp+5N2O7ykbjRwrszGVsu90VlOdRD6wm63gCEnTHL7EmGFgEJk2aFKd9+/b98JlXwWx8P3bs2L0R84W5c+d+HFj3/Ot1TRlX0uSK//bbb0P5v2RGQLEWGKf0C77eSsT9QJqv/OImMQ8Kiwx79uzpgpAXYMMRnpP5c8Z2+PPPPx/FpmfToEGDHrqrEp2r1kj3EQFXEZCgu4q07uMoArt27QpdqlSpTjQ2acLEwiPoB2lBWr5bt243XTVRE1z2xRdfpNq3b994xDInAXnB3nVH86MQy0pSvvpg4j7iLsEsVKhQWsY2E395OlMoHuvBM4R9VZYsWYYOGzbMbalyrlof3UcEXE1Agu5q4rqf7QkYvznFWEqQw/0NOhUWU/vPRJYPWbNmjYlod0k0uTGrp0mTJjO++t74yfMzjlAmwIzPdxH29fQCH9KzZ89jnMxdXr4VsQ5LZ7SSp06dqk9cQUEsBm/Z8BwjtmABG5Cl9DK/7MrIf9s/cJqACPiTgATdn6D0NhF4T4DOXtF5TUGkinESfkBqWGUKo5iI9jeuomSavtABbRC57o0Q8BCczI2YP+PrydWqVRtPd7ILrtpc/HHOpnxrrVq1qtDFbTDfNxH/fgj6wWTJkrXFPfELXd6euYqR7iMCnkZAgu5pK675fhIBczpPmTJlLXzWg02nMkzIi+ia1sKVQmX85oh2nkuXLs1A0ONxCg6CcL5B0DfhBmhNh7Lf3CHmxgWQI0eObAcPHpyInzwtEfevGdPhVKlSDaEpzCpXd5b7pIXWD4uADQlI0G24aBqy+whQgjQVAj4JAc3B6fwiudPtbt68udqVI6LBS4qtW7eOIre8EJsKU10NXX97NkGCBC0xZ29yR0EWE4yXJ0+eLATADafATjbqxAcjin0TWQAticA/5+qe765cD91LBKxCQIJulZXQOCxPwFSDI2e6w+3btzsR4OUXKVKkcd98881gTp5PXDV4I5wEu5kx9OSeYcw4EPOH+PTbUu51oSvT5f44Z1LTYtEpbTSm/wqczr0Q9F1Esvc/dOjQelex0X1EwNMJSNA9/QnQ/P1N4J3vfByCVYao8iP0Da9M17LzrjRvm57mVINbgnWgqAmMQ8z9OBGbU3nd9evXX/b3ZAL4jQThVcIFMI4NRmTKtx4gha8lde0P6mQewKB1ORH4FwISdD0eIuBPAgX42LFjx0yCvCLRQa03p+TRrk4Jq1SpUnJ85DsR8qjmJMzG4hVm/4m7d+/ukihRIpcVs/kjMvLgY8+dO3chYm5S5+4Tzd6BCPfZ/sSqt4mACAQQAQl6AIHUZZxNwERvI1ydqXbWzpR3xcTdgOYiP7ty1sbkHzFixNrkdY/BPx0Ks7YXG4rruAFqXr16dbOrNxdm7mZMNKGpRrvYEcQVRORbPxE0WO/IkSPnXMlG9xIBEfDykqDrKRABfxBo2LBh/ClTpvxAffSkvH07FeEqly9f/q4/fjTA3oLJP+aoUaOmUzq1GCf0IJyG35qcc9q21qBOukvH8n5S2bJli4F4T8MFUJIxvfbx8elFsZ1RrqxjH2CAdSERsDkBCbrNF1DDD3wCJlUNs3ZlcqvHIFphCIabvmjRos4Egj0N/Lv/7x1Sp06d9fTp0zMYT2pS1byIcH/DBmPk0qVLe7rLV50zZ870VM1byMYiBa6IuwTClfz1119NYxqXFNhxJX/dSwSsTkCCbvUV0vjcTgABDYOJexgV2epjVn6CSbka0ds/ulq0CDQrc/369UmMJzaBZ15sLp6HDx++Fb78aa4ey/tFyZQpU37axn7LeCLgQ/+tadOmRUaOHOm24Dy3PywagAi4kYAE3Y3wdWt7EDBBXzNmzJiD7/wLTsanK1euXJ7SpiddPfokSZIUo9TrGO4bhpP5SzYYB8j9Hrx9+/YDrh7L+/vlypUrPxATYeUAACAASURBVJ3UllNEJiKbixPknBeToLtrNXRfTycgQff0J0Dz/08CFEfJtHHjxjWcQKNyQl/XrFmz+mPGjHFZE5b3A8RXnhA/fgFOw+e+/PLLi4ULF75DkZkn7jqdm3Fhcs+CyX0pYh4f3/4NyuAWogzu8f+EqjeIgAgEOAEJeoAj1QWdRgCRyoegryPwKyhiOn3WrFlt3NSO1Py+BuHl604R/+P61q5dOyE85iLouTilvyTivSqV81ZYZXxOexY1HxH4NwISdD0fIvAfBDiFFuEUuoa65N4I1+gHDx50RbBeC5yX161bt8JRVGYw+fANCIwLymvqihUrOlDoxmXV87QOIiAC/0NAgq4nQQT+gwANR0odPXr0O06gXgj6UGqo93JlZzUrL5ApRUtgXNYDBw7Mg0liBP0Evv7ax44d22flcWtsIuBEAhJ0J66q5hSgBLJnz16aSmzLOKH7kWc94P79+wPVz/t/EVPPPky3bt36wKU5Av82QoQIEwkiHFiuXLkHAboQupgIiMC/EpCg6wERgf8g8E7QvzVvIx99MNXi+uiE/mdopPIlp6XsQgQ9AxH4r2grO6Zfv35jmzRpclUPmAiIgGsISNBdw1l3sTGBLFmyFMOEvIJSq0ExuQ/H5N5Dgv7nBV2yZEk4erT3RsgbkE7ng0/9frx48bpdvnx5ko2XXkMXAVsRkKDbark0WHcQINf7C3K9V3DyDEcxlwlUROvkztKmpusbXd6isLEIGjlyZC9M3b50YbtZs2bNe+6MLkfUI1evXr05jFqRDRDp6dOn16k9Py1ZsmTz6JN+2h1rp3uKgCcRkKB70mprrh9FIF++fJl/+umnFcbiTqvSbyme0nTChAluqZ1uJsDGohqn4Fb49EORGx+EgjevCEZbO378+JG1atVy27jM2NhYxO7Ro8cIytJ+bdq7kur3IkqUKHPwp/ecNGnSbXduOD5q8fVDImAjAhJ0Gy2WhuoeAp06dYqPUM1FQHMhoOdq1KhRnnahR90zGi8vasjn+fHHH0dT5CYtYwhuxoFw3kI4+zCu6e6q627GYaLesWgkPHjwYHdcFPkpmRuPk/pr6t+vjBMnzkI4bmF8j9zFTvcVAScTkKA7eXU1twAh8Msvv4TJmzfvKPzCdRAsL0zIDen3Pdddke6MJziV4kpfuXJlKpuMSJyGvdlomI+Tpq3rmTNnfnbnSdiI+pw5cyJ17NixKG1VhzC+mLgp/LAs3CIGYTlpgLN69ux5NHPmzMrlD5AnVBcRgf8hIEHXkyAC/0HAdFvDF1yBPuTjQocOHQnhXPPdd9/VdudJc+XKleFp3zqNsZRF1EOaKSCcr3EJbKBaW59z58794o7+6H9EaXrIV6lSpQz176txWi+CmIcy1eRwEZwktW1mr169VjLW61Tde6WHUARE4NMJSNA/naGu4AEE6CIWc+rUqUvxVeegZvlB+pJXbNOmzQV3Td34pxMkSJDx2rVrEwlCy0QQWlBM216I+0s2HYc5BdejXO0Rd43v/X0ZZ7BGjRrFpsVrFbhV5d+pGG9QxvgAoT+LsC8mh31669atH7l7A+JuVrq/CHwqAQn6pxLUz3sEAWPmLlWqVCty0PtjOr6Jb7gV/dFNoJzbPsyY8OcXPnHixGTEMC4nX2/E0svY3hHMkaSRDaGZyx23DfAPNzan9Q4dOmQmV70v48yN+yI4Vg8/xvuEaP01bE7mDxs2bIs7auRbgY/GIAIBQUCCHhAUdQ2PIFCpUqWM33777UxOlikQzBUEeDVs2bKlWwO8qDEfmgYp1fDp98LkHgdh9zZ+foTyGpuO+aSyTZ44ceJ5d/rU/3BaD0qHuORXr17NwiakFN8vjEUhAlaPN+xBbpLDvjxVqlQ/0QxnL6f2m8r194hfK00yAAlI0AMQpi7lbAKmEQk+3wkIZzUE6CnV0RoeP378O4THrT5gU9SFnu3tMWm3ZAUiIuTe+NJ9aSLjizVhdtWqVXtSivWaVVbHuAsYb9Q1a9Y0wrdemdN6cngGZXymi9wLxr82duzYMwmc24mV4bEVNiNWYadxiMC/EZCg6/kQAX8SMNHbiRIlKkz1M2PijsdrHyfK1ocPH97jz0sE2tvo0R6FNqYNEMZ2CGQUc1Inrc2LT/c4rX9br169sdRcP2YlP7WxLmDlSLpv377iuC+yM84v2CxFJAWPL9/eIi5g92efffYDn38ePHjwBbrePQ80gLqwCDiAgATdAYuoKbiOAKfh0JwaB2J2b8wp2IvXCILRTClYP9eN4u/vZER98uTJY0xRF9LEgmPO9kLU/fj6LWbtVRSd6YhP/ay7x/nX+xv/+syZMyNt27atHlXvajDeZLzHm3n4ModXsD5IquCchg0bfte+fXsVp7HaAmo8liEgQbfMUmggdiGAjzfL5s2bJ3NiT4vYnMO3XnvRokX73JWX/kdujCXJ6tWr22HK/goxjIKgBzEbDzYdzzC/L0YYR7Vt2/Z0nTp1XliNt8n3HzBgQGLYVoFrcYQ9ARaHCJzQg/C1Mb1vT5o06UziAvYULFjwHm1bn1thI2U1jhqP5xKQoHvu2mvmH0kAIQ9J5bOm+Ki7I5ZhEc6Nxk/NKfPAR14ywH7M+KcR6wikiXWhPKwxwUc03+OEbk7qxte/n4ptE6gotyR//vxvAuzGAXghI+xExMcjPiE3eeu12ZxkRbhDMIe3nNrvwPwo/z5YpEiRGY0bNz5t1XkEIBJdSgT8RUCC7i9MepMI/JnAvHnzfAjsmsxJshTiEhLh3DRw4MAaXbt2dWst9fejrF+/fgyqtTVjbHXxSccy/n9zmkUQ3/LvS6SMDSCXfqW7a7//23O1ZcuWYLNnz05EPn2xe/fuVXv58mVGEzzHBsqk571mPqcJoFuSMGHCH44cOXLY3cGJ+h0RAXcTkKC7ewV0f9sSwHSdnCYtoxGaIgjlk7Rp0zajhvkyd3Ziew/TnMop6BKFk7rxSzfk+wkZVxDGaeqtG5/6dT4vou76WOrCX7Gy6dr42Pv375/x7NmzBanWVxRDQ1pEPTyi7kf64AvmcRRhX5Y7d+5tFNQ5QcnZJ1aej20feA3c8gQk6JZfIg3QygQqV66cGf/5SgQlKn7qO5iz+1JjfbpVcqjfFZ/JRynYsWw8EuFTD2qEkI9XfP0AtjPphDYc4X9oZc7vx0ajnAhYHrITyd8Ql0dezO8+Zk64F0wxHV/E/gfcIasqVqy4jtcdmePtsKoaY0ARkKAHFEldxyMJGH96tGjRmpF21YqvYyHkR2nk0mjr1q0HrBAkZxaFcYWgb3pBfNHNEfUknM6P+vj47CdI7jpf76Wk7Sk7CZ+prV+hQoVYnNhzkUKYFXHPxSstFehC4U4wm5VbzHcn89tYsmTJnwieu0SEvALoPPI31LMmLUH3rPXWbAOBgMmnpgRrjUuXLg3Ax2tMwb+mTp263dGjR3dZxfRrTPBdunSJSDW2MMmTJ7/H6fWFVcb2KUtiYgPKli0bkzWohIWkPCf1rJjjgxvXAuJuggDv0hRmBRuYlTTU2UGHt2efcj/9rAhYmYAE3cqro7HZhgCm7QgUPhmJmH9tTu2IyoYsWbK0+vnnn8/YZhI2HqipD0CJ29TEMNSnNnw+phKNlw+voKyH6fB2mX7xsygEtLF06dKnaAZj0uDe2njKGroI/B8CEnQ9FCIQQARIXUu8YMGCDghFDZMmxgnxp759+7blZHzaCafhAMIUqJcxwk4DnShUoMvOib0k4l6E+IbopL8F48Yv6e72ED/7ZkzyezmtL+vRo8cN9WUP1CXRxV1IQILuQti6lfMJ0CglGalWQwjWKohwmPKrP1LzvR9pVcetEijnn1UwbU+JfvcZOXJkdILMfMkLv2KnQi7Gz06Uf6S9e/cWPXPmTCliB9KwwUrI3ENxWg/Cv5/iY98VI0aMJQj6dnzs18hrN24Indr984DoPZYkIEG35LJoUHYlYHzVX375ZRpypzsgIOXxqZvyqwfxqXemZrllfOr/xNdExRNFnoJNSQlSxLLzvqSM/znitydfvnzz2rVrd8BuAXSTJk3yOXbsWOyFCxcWZpNlgugKE0sQGX+7KbbzgvmZfPb9CP1W5reVSPordn3+NG7PJiBB9+z11+wDgYARdfp6J6HVak986hU4rQehAM3W9OnTd8HHe8iq5ncj5kSPF7527dpI5hCPwLJQjP/3vxFsTl5TgvVArFixhpDnvd6OUeNmfpSWjUQAXembN2/WRMDTM78wzDOIaTnL6z5T3crma8ro0aP3soF5ZKVmNoHwqOqSDiMgQXfYgmo61iBgRL18+fKpMVv3J12sMJHWbxH1nQRjNRs0aJAl+pP/lZQxU3NyzYfIdef0ms50PuPlbawM5Hh74Yf2ZXNyiojxZXHjxl1Ez/KLbFyeWIO4/0dBBbpQdJ6LuXbt2sqc0DNwYs+GcMdi7iHelce9bFLe+PfqFi1aHClUqNB1+dn9z1fvdB8BCbr72OvODidgRJ3ObIloltIVMaz4rlLbz/htB1N8ZpsVfeomDYzgvmiIXgX6v/dkiUy0eBAj6qZ7m7EuIPgvMVHf5OuV5HlPprDOSataHf7tETP5+S1btoxAfEOMX3/9tTaFaorz/sSY4EOYanp8PGTO1+PFi7eYhjxr6GR3QuVlHf5La/PpSdBtvoAavrUJGFGnElvilStXjiXyvQAnQD9E4ijpU03oo37QqiZd0urDrlq1qgrWhTpYFrIZUed07s3XXpiqvfhs2sW+4CT7XfHixUcXLVr0GEFotszxNpsYesn79OnTJx0Fgqoz56qIeTDmFtxUqeHjCet2EKvElFatWm2khesdq66btX8bNLrAJiBBD2zCur4IQIC2pskXL17clNNfFfzRJj96X4IECUZfuHBhjVVPfcYET/OWmCtWrChL+lc5NiS5EPJQpjkKczC94I2om2YvN/h6ffz48Vd+9tlnW9gIPLbjopvNFyVww86YMSMx/vasCHtpXunYwMRC0IMyp0fvXA6bYseOvYM4gkPNmze/IXG342o7c8wSdGeuq2ZlMQJGLBDGCLQ2Hf7kyZOqiKARiBMZM2Yctn//fks0dPknZKY5CkFiiTZt2tQc0/vX+NWjMn5v02fdBJMZQeP1mu9dI897IcFkY6jKdstiS/BBwzGd3hD3qMw9P5uuxsz5M+YYljkG50Iv+dq0cd2Lf30oUf8nSOt7+kE30JtFIBAISNADAaouKQL/RKBZs2ZR1q9fX+306dPNOa3HRyBuEz0+k+CyGfRTv2Tl096wYcPC0kc97YkTJyojZsY0HZnxehMk50WKm5myH3N6xZwO8L0fea2l1vp+u+d202Y2ImuT+Pr16yXwsxdkPul4mT7zphnMHdZvB3Ndhcl+K6f262Zzo98AEXAHAQm6O6jrnh5NwNR+L1WqVEN6fLflj39sXo8xY2/CLN9r/vz5x60Mx1ga6AMflZS8ugT6NebEHpfx/t6j3JzYKdhigufeYKZ+y9emGtuw7Nmz/zRu3LhHVp7Xf43NzJuGOyEJokt2+/btolSj68jmJQKvYLghXsPhIe85QPnf6Q0aNFiDJebFf11T/y8CAU1Agh7QRHU9EfAHASPqVJWrdv78+UboQVpEPSiCuLhKlSqD+P5ZzLiWFgRjhh8zZkxSiuW0YGNSkBSvOJxWQxnhM4Fz6JyXadMKigek7C2k1OocTrBnatasec+OEfF/XFIz9/Hjx6dnDUviPsnFnE1/9iik9nkTa3CbmvELyQJYPXz48IM0wblv9/n643HWWyxCQIJukYXQMDyPgEmbIs85C+lQo5n955iqzcn2NNHVUxGNOblz57Z0cNn7uABq1aej09xXmOArMY8oBM+Z0qq/566bdqYI/Eu+f4Hvn8qQIcPQnj17/lKiRAnzPdt+mMh4Gu+EpMhOrFOnTuVgU2Pa56ZmQqa07Ety2y8z/32Uy53Hqf4nXCrPbTtZDdw2BCTotlkqDdSJBBCBYKSwFTh58mRfAq8+Z47BONneIrisN33KlyIEvzunrf5BM5TwgwcPrsopvRlNUZKbXG4TOGfamJocdvzMXnz/FaJ+htP6VPK65+OXvm31eflnfDSECUoGQ8rvv//+K+b6FeuXjM8h3lnj7+Nf79+2bdslvXr1Urqbf4DqPR9NQIL+0ej0gyIQMATMSZ1Wq6mPHz9eH0GsgRCE4rOJGJ83YsSIb/DHXrGD2daYos1pnahwk+ZWhnkkNmlufDZpbi+xPNylAt3OiBEj/pAsWbIfaZxiitMYs7ztP4y1YufOneGoA5+a0rmFrl69Wpw1TIMbJRxzv8mpfS8FauYVKFBgJ1XqTKqbI+Zt+4Vz2AQk6A5bUE3HvgTIf47WtGnT1oheLYQgGmL4ghPu95hth+zZs+eYFSvL/R1tI+yUvE04ZcqU2pjeayHoN/Axr0HQNpYtW3Y/0fLPrRzN/6lPkMnfx7ISh9KybXBD1OTf4Zi/iZ97grivhMFoXC2H7dTk5lOZ6OddQ0CC7hrOuosI+IuASZEiNawATVzaEmiWBXF/i/j9SiGT2Zx+59qlGps5sWJmjnTgwIF0+JLvFixY8CwV1p55ysnUzB9Rj8r8M3Fir4VPPT8PQHTm/5L/O0rVudlp06Zdy+bngt3T+vz1YOtNLiEgQXcJZt1EBPxPwARclS5dOu+aNWt6m+psJsAMc/UDrjCOlLGZEydOvOz/q+md7ibAaTwa9e5LcFpvQxxBKk7rpjjNaz5vo7JeD0oA73b3GHV/ZxCQoDtjHTULhxEwok4N+Aw0dunI1/l4RcFk+5Bgqx/q168/iFzn0+oAZp9FN8GPZC1kxvLSkVHnxPISxXSyY013Jk2atB892/dYPavBPrQ9d6QSdM9de83c4gSMqNMkJQaNXapxSq9LkFVSgqt8+f52crsnL1++/Hur56t/DGIzb3LWo9MBLRQlZE1A4JuPuY7VfsbMi8j+KLTQLULQYHesL8lZV1+sLxd4raLJzaCFCxfesdq4NR77EJCg22etNFIPJUDxmVDkbRc4c+ZMLwLlUoEhFGJwN1q0aO369u27gSj4u04IMjPBZDt27PChfWsWup41xkQdJ3Xq1GNIeduOwN+ye+76+8fXZDWkSZMmy2+//daBDVpmAuVis64Pmee3RMGPpLmNaUf71kMfd037EwhI0D8Bnn5UBFxFwDQL2bBhQxrS2KohAE3xv4Yi3/kaKWDbP//884H8/3E7i7o5vcaJE6c0PuavqQufjfnFe1eg5h6m6d9M61IyAL5zShMUM19iJCKTm16ewLlOiHkCLDCveJ4209xmMGu901MCCF31O+QJ95Gge8Iqa46OIUARk9D40Ptjsq1D9LgP0dNv+bwzZcqUHRGGX+1qnjaBY9R7X8z4cyDgIU2UuKkNb4rSmI0Km5f7mKXnUSt9BM1tHBMUaFL8aOhSkrz1Lmxg0mKCN8V4DhcuXLg9/2dE3RHuBsf8Alp8IhJ0iy+QhicCfyXQrVu3BIhfKUS9MWKekv9/i8l2V65cuUZR2GS9HU3TJmiMGugFCBYrg3iXQNjiY44Oytem2cv7uvDPCSJbVrRo0Rnkch9hY3PPCU+HMcHTRjeTMcEz76ImCp7vbcX8Pox8/o06qTthlV0zBwm6azjrLiIQoATMCbZ8+fImta0/Yp6D8qJ+pjEIwXJj6tWrN4d8dltWIzOmaMQ64+bNm9tiffgSQedgHsobof9d2I248b0XmKg3UUK2Hzn7B5xSoIVGLtFWrFjRjfWszSk9NPO8jkul9f37939g3sYcrw8R+FcCEnQ9ICJgUwKIX3BMs5m2b9/emZPdF5xew2G2fYT4fUcRmgH9+vUzRUtsV2LUBMch6klpV9qITUp5licalojQCLy3EXUT6c8cn2KSP548efIB5HLvxhVh6qTbbq5/ffSoMZCYZi4jmWNehD0sr5O4GXpSVnaVE+Zn01812wxbgm6bpdJAReDvCdByNerGjRsbIn61EPakvOsVJ9iNaOC0ZcuWbeIE+8SO7Ix/uUePHqkvX75c+tatWxWNe4GAwCCIHNrm7YXwm0jwB5xif0LcF+Ju2Eo1OlunfRnLCxH90ejA1/bmzZs1mGdk4gguFClSpCXm9y3yqdvxSXbdmCXormOtO4lAoBEg3Ss8fdQrIn5dEfVYnNaDIH43EiVKNDxPnjyLZs+ebds+5NR+D0ud+8I0fTFmeBMzEBkzvGnRagqz+HFqf8vXl03fdYrxTGSupoubUX3bntgpKBS1Vq1aLR88eNAIkY/IBm1z3rx5+7PJ2WXneQXaL4Au/DsBCboeBBFwCAETXEXEdDqKk1TlVFebaUUgl/sW5ttNnPCGIhK2afDy1yUxJ1cCAaOOHTu2yJUrV6pjci9ggsfMUd0EziHwxgz/gn/+gv95U6lSpeZTlMbWddIZf0SsL0OxSFRgjqFhsrty5cp1KSN7wSGPrKYRwAQk6AEMVJcTAXcSMMI3fPjwaL17925PTnfDsGHDhkf4Xj9+/HgzDVI6Y5o/aud89V9++SU4xXQSk3dflznVQMhjmL7rCJ53pEiR/O7du+fHBuYhKd3bKKU6vmvXrtvtGPX//hmaOnVqXFL6emCBqMa6vcbt8M28efMGY4kwtf31IQJ/IiBB1wMhAg4k0LFjx7gTJkz4GhN1HUQ+BaZpLwLmtmfNmnVIpUqV9tC17aGdp925c+dImOFLUoSmPGKXlfnFNqLOXL3wp/thofBlI3OWr4cRHPjjF198ccOOte/NBo2NWOxt27bNZeOSgzW7njhx4mGI+iyC5Z7beQ019oAnIEEPeKa6oghYgoAxwZOznZmqY+052ZXl1GpSvi4jcouJph5Kett9O/tjTe46LUp9OLVnImhuFBaJRAi7MU17m4I0CLqpe3+POV+gAcqk06dPL2K+zyyxOB8wCCPqRPIXP3HixBg2ZQnYwFwiNqLruXPnvlWQ3AeA9IC3StA9YJE1Rc8lYFLAChUqlHHTpk0DoZADE3UYvvcYUfiGMrLj2rVrZ/uqa6Ysbs2aNdMTFd6ETUtVguOCYY4Pxly9TP46Io+mvz3DCb0DXc3W2fGkzqYlDFaG5sRE9DBlf3ErLGvTpk3bgQMHXvfcp1sz/ysBCbqeCRFwOAFzwqOPelwipBveuXOnPtONiiC84Ps7kiRJ0p8o8l/s7Gc2y2fmyAYlCj7nfBcvXiyBedpUnIuENSKIiRlA6G/Gjh27EwF1S/j3SzsuuXEzDBkyZDpzKs18HpKu12/BggWT7b52dlwLq45Zgm7VldG4RCCACSDoPpioayAGLXgl5vJvEbfjiHoXzNFbnVCNzAg7RWmiU2ynFRXW6nNKD8sp3eTlz6tevXr3KVOm2DZ2wMwNEa9IXMQgIt8TIuznsmXLVg3/+j47u04C+DH36MtJ0D16+TV5TyNgTPDp+Dh16tQg5p6Hk2xIhMH41YdPmzZtMeVHHVFxzeTlEx2e5uTJk2U5me/mFLuTtDeTn27rD4rLhKW9bC1jekfYI+BemLd27dp2RPQ/tvXENPgAISBBDxCMuogI2IeAqZeO2CVHwFvjXzbV5UIy+rsEki3CTzucOuoX7TObfx6pOdHSmS0MOfgmP90x/cVNzfelS5eOxfpQDuvD5TJlynxND/WDTlgzzeHTCEjQP42ffloEbEsA33l0Ore1w/xehWIscRD3VwRcraTSWjtEwzR3cYwI2naR/mbgZkNG+uGX+/btG8uaReUtvYgdGFOnTp0XTpqn5vLhBCToH85MPyECjiFASlsEGrmU2b9/f0/EITHC/owT+wYi40fwfzsdM1GHTWTOnDnRKQ07l2kVQOBPZcqUqTmR8CYOwrblbh22RG6ZjgTdLdh1UxGwDgGTz40PtgIdvZpyQs+EsIfk1G4qrLWlPvxvBNJ5RAETc/LFHx3cDlHjJhYiZsyYzcha6EU0fzjqDCzBstKctbJt0J91fiPsOxIJun3XTiMXgQAjYFqxcipPdvDgQRMdXiNcuHBByeU+RFT1AiLDJyIUju7HTTpYeHqRFzp27Fha8tSnE0dwNcDgBtKFcIvEod77RAIbS3Ayv1e+fPnCy5cvPxxIt9NlbUBAgm6DRdIQRcBVBCg0k4AqcnOJoM6EmIek+tp9Tu/1ELi1ppa4q8bhyvsMGDAgBoLe4smTJ02Zo4n6n0cBml74pG+4chwfei9jWSEdrzmCPoA0tiBUk6t1/PjxJR96Hb3fOQQk6M5ZS81EBD6ZgDE7FyhQIO3hw4fr0OikPv8OSYOXw+Sqj2nWrNlKu9eA/ysgEwnP/OriYuiNMMYhhsCL18MoUaL0RuSnUYHu6SdDDcQLNG/ePPP48eO/ZQ6xuM0Cot9b4DJ4FIi31KUtTECCbuHF0dBEwF0EEO8onNS/wadeDNELjcg9wlfblxKyk/Lnz++oaOo4ceIUfPTo0ThcDKlMuViE3TR2uRQ5cuRm169f/9HK0f6Ufo3Sp0+fbWxIUrFOx2ivWp/2qnvc9dzovu4lIEF3L3/dXQQsSwBTe+IzZ860vnHjRg0GGQ6xO02eepd169b94CTz+zfffBOhffv2nRD0xswxoumxjsvhNebsdZjd23MCPm3V6HGq/4WklWp/xLwpa/SKjVd/is6MsnOLXMv+QthgYBJ0GyyShigC7iJg0tqKFSvWD6Goyck1NMVnziB6gxC8xU4SdawRkeiz3oCuba04ncdmvqYFq7FEzFm5cmVHK5uxM2bMWODAgQPTGXM8rCjbsK5UpHXuXXc9M7qv+whI0N3HXncWAVsQIHI6bpMmTTo/ePCgOCfBOAz6V/zs5qS+3UntO0n7ioJPegDBcXU4nYcgINCPJjankiVLVo/od8vm5Dds2DDW9OnTxyDmXxLQ94r67gUpfSuzuy1+uwJ2kBL0gOWpq4mAIwksWbIkAqJeg0C5buQ8R8asu4eSqv2oMbP7OQAAIABJREFULb7Zyj7mD10M3AyZEMNFCGMSEzCHSL4khW/O4sWL21v1lG6i3Qniq8XajGTcoagj0J3NyRinpxp+6Np6wvsl6J6wypqjCAQAAXOCbdCgwQgu9TUn1+CcZPdVqFChsZNyn2fOnBkKk3VHquW1RSgjYHb3w5R9BYtEFerC77KqL7179+4pCJDbwHhjs+FagKukmRq2BMBDb7NLSNBttmAargi4i4A5sebMmTPFzz//PJgxFEXUvehkNmrevHmDnCIeZo6tWrVKTeOaqYh6VvzpQcjxfk1Xs2GYtftbtWoe441cv3791Qw3A68t9EmvzVht313OXc+6Xe8rQbfrymncIuAmAgSQpWjduvUibp+WdKkH+JtHU7FsVNGiRS2ds/0huNiodLh27ZrZuATx8fHxJQhwx5o1ayoyx1sfch1XvXfLli3BihcvPoHuazWwIpyMGjVq3du3b//qqvvrPtYgIEG3xjpoFCJgGwLGLE3wWGuCxrpi3g2Hn/kyVcqqUDZ2t1PSpXLkyFGKZifzObGHZ2GML/3XL7/8sioblxMWXqheWE06scm6i6A3ps779xYeq4YWCAQk6IEAVZcUAacTGDx4cARKpjYgd7sDgViRsErv7tSpU3Wqq11ywtwJ+EuJz3weAWYZEHNjeb8eLVq0luTkL7Pq/FKlSlXv1KlTJtrdl6I4PQmSG23VsWpcgUNAgh44XHVVEXA8ga5du8YYMWLETPLTiyAi96NHj9765s2bC51wSqdgiw/NT8ZihajOhiUo83uG6b07jWtGWzUwLmXKlFVPnjw5hXGGpPKdCV7s7PiHUBP8EwEJuh4IERCBjyJgAsiSJk1a6ezZs5M5yYZD+HbTo7v65MmTL3zUBS30Q6b7HBuUxvihB4QMGTI8AXJvcC+MIF2vq1U3LMmTJy/ICX0OGGMy5jX16tWrRrzDEwth1VACmYAEPZAB6/Ii4GQC+JWT0HZ0EiJXEEF/GiNGjI74mafTgtTWndlMk5oECRIUpJb7AtwJUZkbGWG+8xcuXNjIqpHuqVOnTkcBnNmM9XOsJoe6dOlSjFS2m05+/jS3PxOQoOuJEAER+GgCCF+ICBEi1MfEOwQhCcu/VxBxXS9Pnjz3P/qiFvnBFClSZL5w4cIygswSmOI5CPqW3r17V+T1wCJD/NMwGFdsGrVMZ6xFGOtDMhEyjh492vbWEiuytuqYJOhWXRmNSwRsQqBjx46xR40atRARyU0Rll+zZs1ahWprp2wy/H8cJpH8KadMmbKGNyRB1N/yeSdFZ8pbtU46zMOTVjee1LXq+PxfVa9ePTs1Ag7ZfR00fv8TkKD7n5XeKQIi8DcETA40pvfWmKYHIHz3KEPagOA4I4S2/qALW3xE3bRPTYkJ+63ZrOCXLkGMgCVz0UmzC5MvX76BVPBrTlT+G1IJKxw5csR0xvOz9UJo8P4mIEH3Nyq9UQRE4J8IpE+fvvCvv/46j/8PHytWrG74nkfZndagQYMSYsbewkYlIXMxgv5L06ZNy44ZM8aSfmk2VqFKlizZgcC97gi6Ny6QtjTQmUz/+jd2XwuN338EJOj+46R3iYAI/AsBUqYynTt3bglm93iUSR1Keld3uwOjTn1qqsOtI8I9rhF0Trr7aFBTjsjxG1acm4lnoKBMQ/LPhzLW4Ih6bzYjw/j6lRXHqzEFPAEJesAz1RVFwOMIkL6W5NKlS4swuWfgJDsJH24LO0MwKXlx4sTJQSGZ7xDE6KZYC/PZ3qJFi4rjxo2zZI10xhyUAMXKBChOYawhKck7eePGjR2ov//czmuhsfufgATd/6z0ThEQgX8gQJWyBBQ1WcB/ZycHetbatWsb2dnUa8Qxfvz4pS5fvjyNcqpROen6slFZ3a5du1pUw3toxQfBbEKoEFcc68hixheKj1kEyrUihfCZFcerMQU8AQl6wDPVFUXA4wiYALI2bdosxn+bhckv4+s6RL7b9mRozNcE97XAfN2XDUoYzO6+uBKmDR8+vHmjRo0sm2MfNmzYwqzBStYgKD70JfSrb8LGSsVlPOQ3UoLuIQutaYpAYBKgmUlS2qqaoLhMESNGnEW6VzMKsNjWd4ugh0bQB1H6tRER7qGY1+tIkSINpHJcHytHjSPohRD0VYwXPQ++fPPmzQ2c0to2MJ9fp1xbgu6UldQ8RMCNBDJlypRx//798wjESkqJ1JGkTnWxsvD9F6pbt26FS5gw4SDEsRymay9yu58mSpRoAIF/c608r3eCvpoNSTBcBd9yQq+nE/p/rbZz/l+C7py11ExEwG0EsmfPnm/Pnj1G0KPSHKQXftwhbhtMANzY+NDT8EGN+ngE+vny76f169c/1r59+zsBcPlAu4QRdKwKq7mBEfTlCHp9CXqg4bbchSXollsSDUgE7EcgXbp0lQ4fPjyD0+trTrZtOMnOtN8s7D/ivwj6MgS9gQTd/uvq3xlI0P1LSu8TARH4WwJLliwJwem18/Pnz3twQr9Kl7KGRIevFy7XEjBR7qStFSFt7TvuHARXwTyi3Fsqyt216+DOu0nQ3Ulf9xYBBxAYNmxY9J49ey4nEjwXqV07EidO3OA3PhwwNVtNwbgJcHeUfvz4sQlONEFxk9evX9+JE/oLW01Eg/1oAhL0j0anHxQBETBtRjG3Z6FmuAnEikoxk9Wkq9UjtcvSvmYnrhy13IMj3tUR9EnMLxjpdiNoZduzRIkSL504X83p/xKQoOupEAER+GgCiHiYcOHC9aHkaysiwYMgIsNJleqj6mQfjfSjf5C1CMlaNMP1MZD18GIt2quW+0fjtOUPStBtuWwatAhYg0DFihVTrFixwqRyZeb1OFmyZF9xWt/E16ZUqj5cSGDXrl2hOaGb+u1tzG3Jm//6zp07K62cZudCPB5xKwm6RyyzJikCgUOAgjLl9u3bN5viK2FI8fq+Ro0a9WfOnGnJWueBQ8A6V6XufFjiF4aRO98A18fb4sWL51i+fPlB64xQIwlsAhL0wCas64uAQwkYn22BAgW6ElXdg5znp5h7e969e3ecTufuWXA2UhHr1KkzjsI+VTG7P2/WrFnqCRMmXHTPaHRXdxCQoLuDuu4pAg4ggLk9GkFXpiFLAdLVTlEqtTp90Pc7YGq2nEKWLFniUQtgKtkGhZjAlVatWmWzau92WwK2waAl6DZYJA1RBKxGwDQviREjRh1KpPammElUqpNtnj17dtVatWrdtdpYPWU873rST2NtPid9cFuDBg3K0ur1kafMX/P08pKg6ykQARH4YALlypVLxel8HMKRh17hLxH31ojHPDs3ZDEQSLmLOH369KRE7Adjo+KLG8G3cOHCl3r37n3rgyG5+AcyZMhQ8ODBg9NYkzisyTwK/jRgPd66eBi6nRsJSNDdCF+3FgE7EqBVapjmzZv3Y+wtSI96i4AsHDhwYEer1zn3D2tq0n+9e/duI4rBOemaGu53okWLNvDmzZtTrR4bQE/6SqdPn55MgGIIAhT783mQf+as9ziHgATdOWupmYiASwhwEo/dqVOn1ZxiP0fQr8SLF6/1pUuXVltd8P4Ljilhi5m6J1HiHTnhBje53Mzpcty4cevboZQtJvdap06dGms2WeSgd8WXPvm/5qz/dxYBCbqz1lOzEYFAJbBly5ZglStXrkk0ez+EIzKn1zF9+aAy3LNAvbELLo4gJr927dp8ovYzESlu/jb6cco9gNn6y/nz519xwRA+6RaxYsVqTVBiH1LWHiDmzdmUmK5r+vAgAhJ0D1psTVUEPpXAl19+mYQOXt+QFZWHaz3Db/sVfttNn3pdd/+86R+OpaHxlStXejOWKO/G8xxhX71hw4b6uXPnfuzuMf7X/RnrMNalMe87Gj9+/OZYTZRx8F/QHPb/EnSHLaimIwKBRYA851Bt27ZtQ6/z7uYeCMjKiRMntiX3+UZg3dNV123atGm8KVOmTMP3bFK+gvDyxaVwO0mSJI3PnDmzyuruBOMuwJKwAN9/Kcb6AwVlmpctW/aaq/jpPtYgIEG3xjpoFCJgeQK5cuXKfODAgVGcArPRyWt3kyZNmpLnfMzupUXN6ZwKa1XPnz8/HkEPh5nd/F18GT58+DW0hW1F5PtVqy/O2LFjoxGU+MOrV68+Z6O1lBTCZgj8Q6uPW+MLWAIS9IDlqauJgCMJkKIWkRzzHviXa3EKfPTZZ59158S+lF7br+0+YfzjkVq0aDH33r17hfE/h8D37IcP+iZ93dsT3b6IDYvlU79q166ddtasWWtZi6i8ZuIWaV+0aNGndl8bjf/DCEjQP4yX3i0CHkeAEq9hqlSpUoOUqH6czMNyApwzbdq0bpwA7zkBBpaH7Dt37pxO+dpUnHC9qXr3gjlu69WrV62OHTta3p2AhSF45MiR6z18+HAoYw9FsGKHvXv3TnTCZssJz5cr5yBBdyVt3UsEbEiAAKtcRE9PQjiSY46+Q4nX5nTxMmlqlj+5/hdu08+d+bSgh7jpUhaRDYsfovgEce9HRP9oO4jiu6Ysg0m3q8/4fZMnT17k2LFjO/9r7vp/5xGQoDtvTTUjEQgwAsOGDQvLSXUIYlEzVKhQz3x8fIYNHz58cs2aNW1vzkXMvatWrZqCALLpnGqz4D8PTiCcH/AuUR2uGtHtthDFSpUqJWcO45jDF7wuMqciCxYsUFOWAPstsM+FJOj2WSuNVARcSsCYcnPmzFn0559//obe2j5Et28cMWJEy3bt2l126UAC6WbGlVCkSJF2+M5N1H5wLA7enMxfYoVYNGPGjHZ2qUtPC9uitLCdju8/MpuuFXRZa8Cmy/YbrkBadkdfVoLu6OXV5ETg4wlkypQp48mTJ/sicF9gjr5DIFyPI0eOmCCxNx9/Vev85Oeff56NlLSxnMqzEOjnzRzfYm6/xjybMM91dnApkK4WtE2bNi2vXr3az6wLr34I+yirp9lZ5ylw1kgk6M5aT81GBAKEAFHfPpMmTZpnxBxxeIypfdyDBw9G8/XLALmBBS4SMWLE7sypI0MJz8ncjOgVJutVmK/rksNt+UIyZsDz5s3zIbVuGV/mZWNymeC4plTx22j3VEILPB62HIIE3ZbLpkGLQOAR4NQXjuYr1RCGAZxY3xLxPYVyr8MpvOKYvOaGDRtGIO3uRzYsmQkkC4p7wY8T+r106dK1PnTo0LzAoxuwV54wYUI8TujriM5PQgzAFjZhtalHfzNg76Kr2YWABN0uK6VxioALCKBrQePEiVOJKPZOiERyxO4A5V6rL1269LwLbu+SWxC9HqpkyZLVONGaRiahualxn7/C/7yfmIHGmzZtOuySgQTATQoVKpR948aNS9l4RWfjNZZNSk/SCZ8HwKV1CRsSkKDbcNE0ZBEILAJETCdZs2bN0qdPnyajUto5RGLorVu35gfW/dxxXVLRMpDWNZ4TeQ4T6W5O5wj7Q3qfdyN9bbpd3Aom5Y7mOHXZfA3ldB6CnvS18aUb87s+PJSABN1DF17TFoG/EsBvHm3u3LnN8Cs3I0jsMf7Yvl27dl2BSfeBk2hRn73hxYsXB2Fuj2Tmhf/c+M631q1btyG93i/bxf9sUgrpQz+E7IM6rNcLrA5FV61a9YuT1kpz+TACEvQP46V3i4AjCRif8rJly7pzMq9O2dMgnM6nIQ698ufP74iI9veLRl32iF26dPkWc7vpFheMvuF+uBYuI/LNiXi3VbvRMmXKZMCaMpMNyGdEtp8m/7w0+efnHPmAalL+IiBB9xcmvUkEnEtg165dofGT18R025GTqg+V05bR6GMIwnfBSbPGRB0SH3kF8urHI+QRTRMWhPANX6+iDnoLytvapjuZiXVImjRptQsXLoxnDkGJdZjFvDrgTrB9X3onPXOunosE3dXEdT8RsBABUzwGESi5f//+fgRWJcb8vIcqcLWJaL9koWEGyFDe1WwfR/BbRk7oQfjsi6g/pSFLV+qgTzGBcQFyIxdcZMeOHeHp0T6LMZdh3W5R+Kfj7du3Fyr/3AXwLXwLCbqFF0dDE4HAJGACwjixpqdi2mjuk5aT3vUECRKMOnfunBEKR5naf/jhh5D16tXrRfe0tmxaQiDo5m+fOc0eJHag8rhx464EJuuAvvbQoUNjDhgw4AdK8qbi2kd79uxZuUePHmcD+j66nr0ISNDttV4arQgEGAFyluO0bdt2CP3NS2KyvUFTjxFTp06dj8g7Lu2J6P1Uixcv/pbTbBLcCsHRdBPcfgL3Qgcaz6y1SyCcWXyzEYsdO3Zuxj2DdYvF2PsTzDe6Tp06LwLs4dCFbElAgm7LZdOgReDTCCDccYlgb4eZthoiZyK9x1KnfTR1wJ982pWt99MIYAiEuykpaf34OiwC6EXKmi9iiGdhSleE0FZR/MZ/jom9OcGLvdiMvaKRTAW7NJKx3tPhrBFJ0J21npqNCPwnASrBRatdu3YPzLWVyF8OhqCvxRzdkxO7IyOk8+bNm4rmJZMQvzzMNQiAOKT7PqUoSxmEcJvd/M4TJ06MhIl9HEGM5YgD2PnVV1/VogTs9f9ceL3B8QQk6I5fYk1QBP6XAKbZCN26dWtH7nITc3LltaV169bdRo4cedxOZmf/rinzity3b98h5NZX5UQempO5N5+foetbiOKv3rt3b7udzr0LFiyYZ/PmzfPYi/mQXjiFbnE97FIMx7/rpvd9HAEJ+sdx00+JgO0IEBjmU7169XpPnjxpTnR3TIqRnMK33IxiMrvtdkr1D3xjmo4XL16lK1eujETEozHHIOScm45qJ2LGjNmNqmqr7baJMdHtCHpv1q8+DJ7FihWr3eXLl00HPF//MNF7nE1Agu7s9dXsROB3ApiWI1SsWLE90d2NeVHRNfSxNGnSdN27d+9mu4maf5eUzUssTNFTEfOixrWAyd386AtKvI6g3/lgap7bLl6ANctJFsIEE93OlH6mUlyVjh073vAvE73P2QQk6M5eX81OBH4nULRo0bI//fTTEE6oCTi5XuKE2mXMmDFrndrIw9Q5p995aaq/fYOQRwNBECwSfqTm3c2TJ0/J7du377Xbo2HmRL32BtTWH8JcvNiYDFm4cOHIEiVKOKalrd3WxGrjlaBbbUU0HhEIQAIEwIXmBFeU/OtRCFsMTuMXU6RI0ZcAuKVOK+v6HptJ66KKWr6zZ89O5HtJEL/gRgAxUz8gmn8p6Wvt7NLv/I+PAvUCwhDIN45o/aq4Dc4R7FebznD7AvBx0aVsTkCCbvMF1PBF4N8IpEqVqtDJkyeHm3rfiMCz6NGjD+jevfu0pk2b3ncqOVqIhiK/fsSjR4+MnzmESVND5N9get9B/nZHTNa2FEHq7Sch3XA1ke1JsLQsXbFiRevSpUvfceo6al4fTkCC/uHM9BMiYHkCpjLanDlzci9atGgw/vK0nM5vkYs9meYdYzC/P7X8BD5ygOZ0Tl52GnqEz8fH/BmXCUqK2hte19jcdDp+/Pi3dirx+h6DWc8GDRpUopiM6eHuHTFixBFkKgy241w+cmn1Y/4gIEH3ByS9RQTsRMCIWrJkyUrhP+7OuNNzonvh4+MzfPz48ZPxmd+201w+dKzUoY+yfPnyzghdQ6L5Q2Jqx23+9hH+5iU1atTojavBlpYJshGSf//99+OZU27W8zLrWGP27Nn7nBrQ+KHrrvf/DwEJup4EEXAQAXOSmzZtWubVq1ePxMSekbzrm5zQ5/z444+DaObx2EFT/duptGrVKgaWiS8R8VgInxfV1J7x+W62bNl2rFy58pRdBTB+/PgNL126NIC5hGHiC6hw15rNi2MtLU5/TgNrfhL0wCKr64qAiwkYMacCXEWKqLTDx5oCk7MvQWAziGYfgLn2pouH47bbmfxzuscFyZQpkxmDn3kh5G/dNqBPvDHFgMJQDGgKleG+Zh7nSF1rfuTIkY2feFn9uAMJSNAduKiakucRIJo9aJs2bb7gj/4kTuUJ6fH9hKjuhaVKler73Xff3fI8Is6ZMfX1E0yYMGE9QX0JcR0s7tSpU4vOnTs/dM4MNZOAIiBBDyiSuo4IuImAieru169fSaK3TWvQjAj588iRI4/je1OaNGly1U3D0m0DgACukrBYV+pS7a6/Ce4jHa/l6dOnFzutvW0AoNIlICBB12MgAjYmYMzLiRMnLnHt2rVh+IvNyfx5mDBhlmJm746PVSdzG6+tGXqWLFlMv/ppuE/SYXm5MmTIkDyc0G3Vu93mS2Cr4UvQbbVcGqwI/C8BfKuxiFwvRZ55K4Q9KQFT5zNmzDiofv366yTm9n9S3uXT9+Nk3vThw4d+mNtn4lppr8pw9l/bwJqBBD2wyOq6IhCIBDi1BS9QoEAnzOutyDGPgKA/pWjKYBqOjFbnrUAE78JLUxwnHt3idnLLOPjPjxAM1/LgwYPbXDgE3cpmBCToNlswDVcEOLlFJOq5GEVGhmGKjUF62g1qfM/AZz6uVq1ad0XI/gSMKyVt2rTFTpw4MRsxD886T163bl13T0g9tP/quW8GEnT3sdedReCDCZh63lR6a3X37t36FE2JxwVuUzRmNOb36RQbuffBF9QPWJIAGQuR6QjXj7rt9TG5PypWrFi5tWvX7rRrHr0lITtwUBJ0By6qpuRMAsOHD486YsSI8oj5QPLMwyPo1+iHPYkiI5Pxqz5y5qw9b1am0h+d4socPXp0JLOPywn9VO/evfN17dpV1hfPexw+aMYS9A/CpTeLgHsIEAwVgRS0ThSNqcSJLS7V3+6SmtZzwIAB38nM7p41Cay7UukvcosWLcYQG1ERU/sD1nokjWZG2Lk4TmCx0nX/TECCridCBCxOYPDgwfH79+/fnjreDcgzD8bp/DT5yAPIR14gE6zFF+8Dh2eCHanbXofWr8PIWgjx4sWLJZSz7UgaosdU+vtAZHr7HwhI0PU4iIBFCZjAqOLFi8ej53UHcpC/wvTqg5n9Sty4cdt26NBhU6NGjZ5ZdOga1kcSwLQeneDGUfx4WSwxT3ClVFyzZo3xnft+5CX1Yx5EQILuQYutqdqHAGIeBD9qak7hQxDznPxBD8Lod0WLFm0ARWR26GRun7X8kJESxV5o3759U2guE5NnYAVtYOvmz5//xYdcQ+/1XAISdM9de83cogRMUNQXX3yRdPfu3X0wrxfmVB6cP/C/Nm7cuA3tPw/Ll2rRhfvEYdFcx6devXq9bt261diczgl47ENdgUnavH0iWA/6cQm6By22pmp9Aoh5iPTp02c9duxYF0abgz/sbynluqhChQqT6X99zPozCNwRGjfE0qVLvbBUeHNyfRO4d3Pd1c28UqVKVZyqf5NwrUQhGO5AlSpV6pG69pvrRqE72Z2ABN3uK6jxO4aAyTGvUaNG6TNnzrTnRJ6CiT0KGzbsbEq5TqRi2DVPO6kZS0W7du3iHjp0KDXBYexrwoTEHB0dsQsePnz4S2XLll0/evToB054AHbs2BG+ZMmSQ4lmr8187sWJE6fn5cuX57Lmr5wwP83BNQQk6K7hrLuIwL8SWLlyZXhKfdY+f/58K07lMXjz7eTJk48gun02BWOeeCI+UvWiVa9efQg8vsTtEJrmM3wK6svrKa6IhZiouzol/57NSU4qwU0jXiIWaWrL582b175cuXKO2Kx44rPrrjlL0N1FXvcVgXcEWrduHYvc4/qkpdXlW9H4g349Xrx4o7dt2zYrZsyYTz0RFKfz4JigTfpWX0QuOgy84eJFbvZzvv6ladOmLSdOnPirE9iwcQnHfHrSy74J3fKuU7O9OdaaDZ5mkXHCWrp7DhJ0d6+A7u/RBGrXrp1wxYoVzSkYU5s/4MH4g36Fz9/gL5/GydyIl8d9GH8ybUOzY2ofh5inw7wehM9emN19YbOjTJky3WHmiFQuk83w2WefFcB3Po6FjoeLZRcblerqludxj32ATFiCHiAYdRER+DAC5g953bp108+dO7c/HdNyUjDGG9PyfoSs+65du/Z7csc0XA0p8R9P5jCeG6pBCBLzRtDf8vX1nDlz1tu5c+dGp+RlU/0vMZkLU3AjZOd1L0mSJB2PHz++VJkMH/b7pHf/DwEJup4EEXADgYYNG6akBvsATuQFECsjWlcwMXejPeYa/pg7Jnr7Q9HOmTMnLIFwrW/fvt2ZILhw+Mq92Oj48bqH4C1ctmxZD6f4lk3QX4YMGYr/+uuv8+AUlE3dGnzprYniv/2h3PR+EZCg6xkQARcTMK1Pe/Tokf3KlSut6ZKWlajm11GjRv2WDmrjCIQ648lRzUOHDo05aNCgOvfv329PS9iIiHgQRNyPiP9X0aNHn85Hr9KlS99x8ZIF2u3MfLt3726qwpVCzC9gfWj1448/bpHvPNCQO/7COqE7fok1QasQMHW6SU2qiWC14lSeiHG9xj/8/ZAhQ3pger1glXG6axyUtK0PmwGwiWJOrMZvzin2lSl3mzlz5lp79uzZ4a6xBfR9CYQL2qVLlxrnzp3razYvbFq20wK3KuV8Hwb0vXQ9zyEgQfectdZM3UgAP2mcjh07Vqe/dQtTOASxOk+P6yEtW7b8zimpVx+LF3EL0bNnz3y//fbbRAQ8EXyCcDo3Yv6a194cOXL0xW++2SmuCBM/Ubhw4byUdR3LXFMwr4v58uWrvX79+l0fy1A/JwIyuesZEAEXEECwIlMwpgfBb19TFCUS+dRPIkWK1OvEiRNzPDUt7Y/Y06ZNmxcWvWGTF0ZBeXlhgvbl1HqJAis9Ll68uBjRe+2CpXLJLUwRmfLly4+jxGt5BD0o6XjTFi1a1MPTN3Yuge/wm+iE7vAF1vTcR8CY2OlV/tmFCxfaPHv2rCQns9CI1vYIESJ8Q3T7Wv6Av3Tf6KxxZ4IDYxEINxMRL2TEHD5eCJwvloz7fJ7dq1evvp07d3aUGTpdunRZDx8+PIOgv6QE/R3CUlN31apVx+U7t8YzaedRSNDtvHoau2UJmJrspKAVPHqzEwO/AAAgAElEQVT0aAvyp3ORX+yLqO8ih7ozOdQnnGI+/pQFQMwjfPvtt63IwW8Hr/D4yr0ROD98ys8Q9lXNmjXrScnbs04SOnrbRyDwb9DDhw9rwu5NxowZu+3fv/8bPQ+f8iTpZ98TkKDrWRCBACZgxJxqX6VpsNKDtLTkiNRTRGo5ZvcRs2bNOh3At7Pl5WAUjHzzetSt78bXcU2uOR9emNlfwOoI/JqSwveLLSf3D4P+g+98QahQoSLgejlBV73GW7duddQ8nbRmdpuLBN1uK6bxWpaAySsmcjkiudLl8Pu2JrArAQJ1I1GiRPMI7JrPx3knnTY/diGMmGN2zkRZ12kUj0mF6Tko4uaFyf0V/2fK3nbBDP+d0/qAU/0vSosWLUaRqlgedo8SJ07cl2DJuaQsemR53499fvRz/0xAgq6nQwQCgIARc0zIn+Ebb44wVeAVBPE+T1nPwWvWrPkeUX8RALex/SVMWdfcuXOnJAhu6L179woT/BbcFI8x5me+voS4j16wYMEUJ8YXsFEpQwW8UZzOozPXKdQj6NmhQweJue2fautMQIJunbXQSGxKwFQ3mzx58ueUbG2L7ze3idIm8G0zIj4Bs7FHl3H945Iak3PWrFk/JyCsByfyYgS9hcaC4c33fXk9osd5H+qYz3JKJbj3czebPfLLE9PbfCxf58Fyc4ACOW0IhDto00dew7YoAQm6RRdGw7IHASp7hSUFqSl55ZUR8mT8sb5LBbj59erVmzRq1Kir9piFa0ZZpUqVqN9///0oxPxreIVA3Lzwl5vSrk8JiNtM1bS6vXv3dkwluPdUidKPNH78+J5006tPcORrNjHDsVCMlNXGNc+dJ91Fgu5Jq625BhgBc9qk5nZEepiXo4xrDwQpCq9rBHetHDdu3DAar6ge9x9oUwUtzOjRo79CyEZgxYhiTq189sPc/oKvt5ERMHDv3r3bnRhjQI3+ckbAmW8sno/9BEfWo47/yQB7GHUhEXhHQIKuR0EEPpCA6dWdLVu2PESxVyUVLR+W4yicuq7jF+1KkNPm6tWrP/rASzr67aZ+PRXx6pNb3ihcuHAJYRWMVL7fy7oicrsxPzcmfe2UEzuMUdY3/LBhwybS67wsz8kDSv12vXnz5kInztXRD7FNJidBt8lCaZjWIGBS0ojQLnD69OmemI1TYS5+zqnrAF2zviG9eC2R2R7bKe3vVuiHH34I2bx585KXLl2ahIhFNZ3l2PiYk7kJgjtKxbzhN27cWOSUdqh/ZGBK2uJCKE471El8PwJi/gNpiy0rVKhw3RpPs0bhNAISdKetqOYTaAQ6deoUgcCmcrT2bI6Ip0KcHnHqWjB27Nih9evXv6NT15/RG7M6/b0LENndB1bZ+d+gxmeOkL/hhH4hV65c3bt167bCiRHthkSmTJkyEgA4Dg7pTEoe86xKDMEGPSeB9ivq8ReWoHv8IyAA/0XgXX55AvzAjegGVgdfuQ9m43ucuEZTtnMGvvR7/3UNT/z/ihUrJoLNYjY/GbBkBEPIvcg790XU79EydhIpW0OcmrZlYizYzHSgm1qXiBEj+rGhmUNgXKc6deoofdETfxlcNGcJuotA6zb2JGDypoliT0OKUTcEqRCCFJIT1rHIkSNPxF++7Ouvv35iz5kF7qirVq0aifz7Zoh3F0q7huazNxshX4TtKRzXEDQ4EH7HnBgEZ8ScYjHJN2/ebGrUp4H0z5je2/I6GrjUdXVPJyBB9/QnQPP/RwL4f30qVapUDn9vG/4wp+RU7ksQ1y5MqS13795t6rH7Cd//JWBqtNM9rA8V0erwvz7mHe/S056QtrWcVqndcV9ccSq7nDlzJjl06NAY3Ap52MS8Jve++vbt22Vqd+qCW2heEnQLLYaGYh0CplMap8wKBHP1R8hjcrJ8jpjvjx8/fndKlh5wYhBXQNDndBqSFLRK8BsDrwim4YrZ+MDvFV+fTpAgQbNTp07tcCo/89xQGKcDcQOd4Gn+vu7jZF6F162A4KtriMC/EZCg6/kQgT8QMClpefPmzUCFt2qY10vz72j4fy/jB52EwC+lktkNAft7AkbMsGiUvHbt2mDYpTCn8nen81cwPImYD8CnvAIx/73WqxM/iBvItHLlytlYdVJQxvZQ8eLFmy1fvnyPE+eqOVmPgATdemuiEbmJgBHzPHny5Nq5c2dv/hhnIMfcm4Cua4h5P/KJlyug6Z8X5l0t+3SkZY3jNJ4V0cZVHsKPqnBv6Th3OlasWP0IKlzl5EYkuGF8iGTvRY36htRr9yYDov+GDRtGZM6c+bWbHmnd1sMISNA9bME13b8n0KpVqxSkpJWm+EkdhCipOV3iN1+DAA3s06fPYf1R/vcnhxz8pP379x/99OnTL3hnGMztvvB7i7Cfo679ILIDFjv5ZG7q+bdp06bV3bt32zD38LhpdlHqtg6NZi7qd04EXEVAgu4q0rqPJQmYkyWVvGL06tXL1Bgvip83PKfzRw8fPtxGAZABmEvVq9ofK4c5vTjxBi3YDMU2Ndp53UbAb8WOHXvV1KlT1xUuXPihPy5jy7eYqPb06dOXIBBuCBNIxun8Kr3e2/PvlTBQoSFbrqo9By1Bt+e6adQBRKBJkyafU5q0CRHJtblkcF7nY8SIsZRGIeOpcHbDqcFbAYTv/1+Gqmih6QEfHheFtzmZszF6EydOnDf4lJ87vZAKc4+AO2YscQMVAPKKrnHDqec/ipTG5wHNWdcTgX8jIEHX8+GRBHbs2BG+WrVquRGh3gBIiZ/XdP36LXXq1L3pkraNEq7KL/fIJ+PDJm0CAcuWLVvt6tWrQ/nJsFh3NrZu3brhwIEDb37YlfRuEfh0AhL0T2eoK9iMgGl5yumpOSb2BrziYjJ9jd9zXYsWLYaVKVPmgOqx22xB3ThcLBDpV6xYMYHNYDaeoesEUPamNv0sp1sl3Ihct/4XAhJ0PR4eQ8A0VilQoEBa6muXI3ipxruWpxfw+37HieobBP2qisV4zOPwyRM1ndT69es3gGyIGgj6m+jRo0+ivOsINouOjRf4ZGi6QKASkKAHKl5d3CoEEPNg/MGtQBvL1owpFWIeAl/vzdy5c7elstn6mjVrPrXKWDUO6xMwJYGzZ8+eY8+ePYsZbThcNhumT5/emta5jq2AZ/1V0Qgl6HoGHE3ARLH36NEjMX9syyDmjUlHi4eZ/T7NQeZ99dVXc6knbkq4vnU0BE0uQAmYqPb/1965QGdVXXkcEpR3TKAW6Aqv8AowqBR5W2AkIo9SQUWQAgYI78JIAgQIjAQmPMJDHg2GCAMhyaQIBEfUynsBlRSpolKcyCNIeQQBIQEktArM/1hmTTur0yaY78u95/6yVlYQvtx7zm9v7//uc/bZW1n9T+bl5c3QhdvqiFpe27ZtBx04cOC3JFGWKGouVkwCCHoxgfFxdxFQ9F0nIyNjjs5HP6WHbRWzX65oaq2qec1VpzS6pLnLnI4Y7bRp0x5eunTpZmW1t9G++W19p2vpPdrWznGOgM4gikQAQS8SJj7kNgKm0IeagDxx8eLFkTqS9rTG/432OQ83adIkTf3L37C5YpnbbOWm8aphT/nIyMj+8quV2rYJ1DG9vcOHD49JSko66qZ5MFY7CSDodtrV07PSAzdYEbjpXT5Cz9yaJipXsY+9o0aNiluyZMlxmyuWedrwfph806ZNI06cOJEgn3pMS+0FtWvXHqijj3vYtvEDfG7xDwkg6P8QER9wCwEV+Hhw48aNDbOysmL1wH1a30H6PqWWnWtV2jVDmex5bpkL43QWAZOLoRfCMJUHTtafO2l0hXpJ3LR3794JKgt801mjZTReJYCge9Xyls1bYl5txIgRz+kIUaSagzQ309Pe5s6WLVumJiYm7tDZ8luWTZnp+JGAltqDlEQ5z1QUlF+VUXSe1blz5xm7d++mVrsf7cCt/j4BBB0PcT2BhISEGoq+X9bDdpSW2CupdWWBoqe3deY8Tg9i2p263sKlP4Hw8PDO6uO+TgmVoUqGOx4REfGcOqnlULeg9G3DCP6XAIKON7iWgMpuVoqLiwtXu9NIPWSf11JosCZzpmHDhqvq1KmzaefOnX9w7eQYuCMImKX2AQMGhKka3IJ7zXsKTfc4FSZazr65I0zEIP6CAIKOO7iSwJ49eypoiX2gOnzFaAI1Tf9tReZn9LBdkJ+fn+rKSTFoxxFQGdfK9erVW6wl9hd0SqKCVoCylHQ5OSUlhXwMx1mLASHo+ICrCJiIKSoqKmT//v29tAQaq8HX13e+vj/t0aPHwilTpnxAYxVXmdSxg1VeRmBycnJXNfJZoKqCYRL0T2JiYkYvWrTIFCO669iBMzDPEkDQPWt6903cVOjq06dP8+3btw9RNP68HqohipgKqlatukylWzfqSNoZ982KETuRgPG1Z599tsPbb78drz+3k6CfqF+//qRTp07tcOJ4GRMEDAEEHT9wBQG1NA1evXp1V0XlE5XF3lSZxoVqqvJRWFjYKkVNu9SPmiz2+7SkqUvevn37xno5CpVwfXcVk8mtF6ZAlcq92aFDhyPz58+/ep+Xd+WvqbVu6KZNm1bI1yIUmV/Xsvu6VatWJVCQyJXm9MygEXTPmNqdEzVL7LGxsbXS09PHnz9/vo+pxa5M4yv6ma4a7cn6t/MSnj+rEF/3RUDnqP/pyJEjJumrhUS9oniWlbDf0cX+qO8Lqq43KCcn55hXlpnlc+Vr1qw5StXgTK32cupxvkWReqy2ci7fF2B+CQJ+IoCg+wk0tyk+ARM5NmrU6JEvvvgiXgLTWWU2AxQxfanGKr9cuXLlWtpUFp/p//2N6OjoxtqqmC3RMmf4A7XqYc5YlxHrb/XzePXq1RdkZmb+h1d6xJul9saNG5uSwcsKCgqa6OXxv1q3bj1W++gHvz9trgAB3xJA0H3Ll6vfJwFF3g+98847T+Tm5o6S0DyhiNyIzG7tl2+WmG+TmNNY5T7Z/s+vmX7es2bNmi4RG69l5cp6WfpuqV0/zYpHrk4MxM2YMePXXmo6ooS3uuoBsFQ+FyGfK1SVwcS33nrrlxQm+p7Oxq/7hQCC7hfM3KSoBExUrnO/DbR/Ga/f6aj/ri6x+bJatWoZEvEVyjq+WNRr8bn/n8DUqVND9GI07vr165Ml4lUk4gFGzLUS8q1enHJatWr1SnZ29havLLMbUqbxysCBA6eKSbRWJwqDg4NTxGmxvgvwJQi4gQCC7gYreWSMZr9cmcRttMQ+TlPure8H9X1e+5mv60jaWtXRvuwlgfGV2Y1wKelrqM7rT5eI/0jiFSiuZqn9G93zogR9pk4SZHopKjVL7dre6aS6BubMeWNVGvzN+PHjxykZMNdXduC6EChpAgh6SRPlesUmYIS8WbNmdfQw7a++5WO1jxuiQPGaRGZfmzZtlq1YseKwEreM2PD1PQmYBjYTJ07sf+7cucUS7uriHCD+ZSpWrHhbP0/r7xLWrFmTqtWQ29/zVq75dbMqpEz+CK1IzNOgG+v77KOPPjrmk08+2eOaSTBQCIgAgo4blCoB8zCdNGlSqDkSJDHvbjKMNaAr2r9NnjNnTpqipHNE5SVjIsNax6+6SczNdsbjikTLGjEPCgq6c+3atbNaYl6i3IX106ZN89QRNZ03D1WTFZME91PlaNzQvvmry5YtW0HSZcn4HVfxHwEE3X+sudNfEDBR+ZgxY+oqg/p5PUjN8nprReaFEpkdvXv3/ne1O93npSVfXzuHeD+o0wEv6KXpFTGurz3zQHNPZXHfVpGeLzp16jRt3Lhx/ykR+5Ovx+Kk6yspMFjiPVv75oNM+oAYpakF7xSqDTrJSoylqAQQ9KKS4nMlRsDsV0o8whSVT9NFe0tgghUVFUhk3lGLytkZGRmnaXxRYrjLmJcnFURpo+5gS0zVM2VvB5jjafrzHZ09zzd9vdVDfnLPnj2vldxdnX8l09ynf//+w0+ePDlHSOSClY898sgjv1CzH5banW8+Rvg3CCDouIVfCeg8b1VFge2vXr36kjqk9ZVwB0hQ8vTn1f369TPRER3SStAi904NNFZhlERdtqtazFbUPnkZ/TSFY65KxN5UgZ7ZyuT2HPfatWt3O3PmzDKtUoTpZfKizuL/mxIv18s/C0vQBFwKAn4jgKD7DbW3b2SixKeeeqr20aNHR6v15LN6gNYSEZOQ9aEqkSXt3bv3XWWzf+1tSiU7e8O8e/fuzdSZboaW1Z9RRnsFLSub/+fvStTz9e+7tWc+Uf3kPVcDf+TIkbUk3ul6oWwnX8yvVavWQi2/p4waNepmyVqBq0HAfwQQdP+x9uydTGa19ikbqbzoVBXs6C5ReUhR+WUtc77ZvHnzlA8++OD3lG8tWfcw2xqDBg36kSLzmcpRGKCrB5lldomXicxv6N+3tmjRYoFscqRk7+z8q0m4ay5fvnzMlStX/kXReaD8MUuJmTNVaMdzqxTOtxYjLA4BBL04tPhssQiYCDE+Pr5GUlLSC5cuXRqiX25sGn5IWE6avuUqObpV56Gvk8VeLKxF+rDO7bfct29fvLYynlBhnmBF5KZE+11F6l8rqz1LbWanx8XFmTr4nmoDarYgatSoEa3SrtGqWx+i/I0jitYHK5/jc6+xKJIj8SFXEUDQXWUudw1WkdAPFfVEK/EqSg/LKnqY3lRE9LGWgf91woQJvyOL3Tf2FPcKOrs/X4VjhkqwdBKralllcZvI/LaW3T9W4teEjz766Le+ubtzr2pWLUz73a1bt66XPzYSm7M6xhevlqhvkITpXLsxsqITQNCLzopPFpGAyR4eNmxY+xMnToyVmD+pSKiKIsNcNb1YpQIeW9euXXuCaKiIMIvxMbMi0rdv37qKzIdLwMdoeb2a2Jc1JV3F/ysVj9mjAj7xhw4dMp3TPHU8zYh5ly5dOh88eHCKhLyzqVevynATdGzyDRUtYt+8GH7GR51LAEF3rm1cOTLTVCUtLa2HosOp2ptsbtpw6uukko5eVfvTVK8JiT+NqBelYBXieUVnzQdLwKppa+O7/78l5re05H6oadOmkz/99FNPdg1T05UfaJ98g5i0E48A8Xg/Kiqq32uvveapIjr+9Efu5X8CCLr/mVt5RxMBKfoO01LuOAl4pCZZWZHQV0p8+zA8PHyWSb6SmJv+2nz5gIA5Dqgz/H1V8W2xBKu6blHWtEEV81uK0H/foEGDRZ999plptuKpyNygXr9+feXp06cP0FFJU42wmv7qNzqX/8q2bdv2+8AUXBICpUYAQS819PbcWJFhhdWrV//k8OHD43S++ScS9EoSkWvaL1+gVpRvKAGL8q0+NLf2gCuo0lukBGus+IdLyBWAPmAicyPep9TTPOHy5csbvCjmphGNKhL2unDhwhxt/zTUC+Y1Lb0P27Vr1685WeFDp+TSpUIAQS8V7Hbc1GQMjx07tu66detGKJt6hInKTUSofdv3JTBJqsK1U+d6aariQ3PrjHkFvVC119HA17W9UVff5bRXXkb2KJR45ant7HwV60nzYgKimASqhHCEMtpX6iUn1PBQgmC6EgbnDRkyhJoHPvRLLl06BBD00uHu+ruayEdduzqePn16siKftnpYVlFkfl7H0VK7du2aqX7mx8kc9q2ZJeZVhg4d2kvtZqdrNaSJRKu8BL2MbPGtVkhyJOYrU1NT12t52ZPipQTBplu2bFmh1YoOpsyt6rTP0tJ7qk5YXPKtZbg6BEqHAIJeOtxdfVcTFeph+bSCwLmmd7Qelt9qQnkNGzack5yc7Kk+2qVlSLM6okTD57SUvFAReS29VD2gF6oySvq6o5X2q2FhYTO1rLxW/eVvldYYS/O+2jf/oRIEZ2sLYrDYlFFZ13dVD2G8XoAulOa4uDcEfEkAQfclXcuubRLf9EBs8N577/1M+7VRelDWUxR+IyQk5E2d5920ePHi9+lS5Xuj39sX/rGWkhfphaq1jmA9oKj8rrY6TOGYc4pEf/Xiiy8u1NKyJyNRLbVX1Fn8sUoCfFnReYgsclwvNpM///zz3fJXcx6fLwhYSQBBt9KsJT8pIyI64tNOmcHzJSDNVLq1in5e1p1eXbhwYbKW3/NL/q5c8W8R0LbGk4o8l5gkL4l4RZPNLuG6pZ9fqtnKa2pyk6w65de9SE8vneXUM6CLVieS9edQMfhDq1atJqo2wjaS4LzoEd6aM4LuLXsXe7amWInO8FZKTEwcprPlQyTizSXmARKUUyohmqQs9l/pfK8Rdr78QMDYQysig3X8arTJW9At72qp/Wv9/SWVNH1XVfg2rlmz5oofhuK4Wxg2S5cuDZc/ztLLzU+VR5AfGhq6XEmDSawcOc5cDMgHBBB0H0C15ZLaKy/30ksvPZqXlxcpIR+oeZVXRHhVD8vdioJSRowYcUitJj13rrm07WuWlHXevKIZhynp+vDDD5viPbcHDx58y8uJiBEREXX279+/SkLeSS88d5TRnpGenj75mWee8eRqRWn7Kff3PwEE3f/MHX9HE+ls3769kpKKWubm5iYqEgzX3qzyrR48qyjwdZ05T+vWrdtl9iMdb0rPDFDCHRQdHT1RTYCmmlwPifouCfnkzZs3H/UMBCbqeQIIuudd4K8BmOxpNbBopj3Ifopyeisib6SjUF9LzN9VJJimM83ZqghXCDYIOIWAOXWh7nKxesGM0lZQTfPi2atXr0ES82xeOp1iJcbhDwIIuj8ou+QeJqGoZ8+eLdTcY67EvJMehgrOA/Ik6plz5859NSYm5iuaqrjEmB4ZpllNUsnbVhLv95QYGKT/vqal9iUZGRmL5cuUGvaIHzDNPxNA0PGE7wiYfVmVyOxx48YNcxyti5Ys72qvPEdZ0ykqxPGmBP1LUEHAaQR0jLKZkt4mScx/bpIDJeYr5s2blyJfPue0sTIeCPiaAILua8IOv75JfFN51obHjh2LlIhHarhV9LNASXDvP/bYY4t13Od3Xk60crj5PDs8E5kPGDAgfMOGDSk6d/9j1aoPDA4OzkhJSfmFEjXZEvKsZ3h74gi6h+1vmqokJCS0Vd/yOEU4bbW0Xk57kOYs80odVcscPXr0BcTcww7i4Knv2LHjIVUrnK1VpChVLCwnPz3YpEmT2JycnGwHD5uhQcCnBBB0n+J15sVNFrCOnTVRdB6jB2JfCXiQltnvKPntgM44z8jKyjqoc7umnCtfEHAcAZVwrRIbGztZ20MT7vUQyG3Xrl2f7Oxs0z8Av3WcxRiQvwgg6P4i7aD7qPhIPZVvna+H3z/rgRgkUTdnyXOGDRv2ss4yH0LMHWQshvJXBPQyWr5jx469Dxw4kKhs9po6TnlT++ardC5/JhntOIvXCSDoHvOAkSNHVtKZ3Z/fvHmzpSLzyhLzP+oh+bGE/C2dLz/rMRxM12UE5L8/yMzMHGKaAikJrrx6CHyovfR01W6n9LDLbMlwS54Agl7yTB19RZNMpKXJCurGFXD27Nm79wb7zeOPP07fckdbjsEZAsZ/9eMB+XCgtokCu3Tp8idF5lQrxD0gIAIIOm4AAQhAAAIQsIAAgm6BEZkCBCAAAQhAAEHHByAAAQhAAAIWEEDQLTAiU4AABCAAAQgg6PgABCAAAQhAwAICCLoFRmQKEIAABCAAAQQdH4AABCAAAQhYQABBt8CITAECEIAABCCAoOMDEIAABCAAAQsIIOgWGJEpQAACEIAABBB0fAACEIAABCBgAQEE3QIjMgUIQAACEIAAgo4PQAACEIAABCwggKBbYESmAAEIQAACEEDQ8QEIQAACEICABQQQdAuMyBQgAAEIQAACCDo+AAEIQAACELCAAIJugRGZAgQgAAEIQABBxwcgAAEIQAACFhBA0C0wIlOAAAQgAAEIIOj4AAQgAAEIQMACAgi6BUZkChCAAAQgAAEEHR+AAAQgAAEIWEAAQbfAiEwBAhCAAAQggKDjAxCAAAQgAAELCCDoFhiRKUAAAhCAAAQQdHwAAhCAAAQgYAEBBN0CIzIFCEAAAhCAAIKOD0AAAhCAAAQsIICgW2BEpgABCEAAAhBA0PEBCEAAAhCAgAUEEHQLjMgUIAABCEAAAgg6PgABCEAAAhCwgACCboERmQIEIAABCEAAQccHIAABCEAAAhYQQNAtMCJTgAAEIAABCCDo+AAEIAABCEDAAgIIugVGZAoQgAAEIAABBB0fgAAEIAABCFhAAEG3wIhMAQIQgAAEIICg4wMQgAAEIAABCwgg6BYYkSlAAAIQgAAEEHR8AAIQgAAEIGABAQTdAiMyBQhAAAIQgACCjg9AAAIQgAAELCCAoFtgRKYAAQhAAAIQQNDxAQhAAAIQgIAFBBB0C4zIFCAAAQhAAAIIOj4AAQhAAAIQsIAAgm6BEZkCBCAAAQhAAEHHByAAAQhAAAIWEEDQLTAiU4AABCAAAQgg6PgABCAAAQhAwAICCLoFRmQKEIAABCAAAQQdH4AABCAAAQhYQABBt8CITAECEIAABCCAoOMDEIAABCAAAQsIIOgWGJEpQAACEIAABBB0fAACEIAABCBgAQEE3QIjMgUIQAACEIAAgo4PQAACEIAABCwggKBbYESmAAEIQAACEEDQ8QEIQAACEICABQQQdAuMyBQgAAEIQAACCDo+AAEIQAACELCAAIJugRGZAgQgAAEIQABBxwcgAAEIQAACFhBA0C0wIlOAAAQgAAEIIOj4AAQgAAEIQMACAgi6BUZkChCAAAQgAAEEHR+AAAQgAAEIWEAAQbfAiEwBAhCAAAQggKDjAxCAAAQgAAELCCDoFhiRKUAAAhCAAAQQdHwAAhCAAAQgYAEBBN0CIzIFCEAAAhCAAIKOD0AAAhCAAAQsIICgW2BEpgABCEAAAhBA0PEBCEAAAhCAgAUEEHQLjMgUIAABCEAAAgg6PgABCEAAAhCwgACCboERmQIEIAABCEAAQccHIAABCEAAAhYQQNAtMCJTgFeBNsMAAAFASURBVAAEIAABCCDo+AAEIAABCEDAAgIIugVGZAoQgAAEIAABBB0fgAAEIAABCFhAAEG3wIhMAQIQgAAEIICg4wMQgAAEIAABCwgg6BYYkSlAAAIQgAAEEHR8AAIQgAAEIGABAQTdAiMyBQhAAAIQgACCjg9AAAIQgAAELCCAoFtgRKYAAQhAAAIQQNDxAQhAAAIQgIAFBBB0C4zIFCAAAQhAAAIIOj4AAQhAAAIQsIAAgm6BEZkCBCAAAQhAAEHHByAAAQhAAAIWEEDQLTAiU4AABCAAAQgg6PgABCAAAQhAwAICCLoFRmQKEIAABCAAAQQdH4AABCAAAQhYQABBt8CITAECEIAABCCAoOMDEIAABCAAAQsIIOgWGJEpQAACEIAABBB0fAACEIAABCBgAQEE3QIjMgUIQAACEIDAfwMRfcgQsngqgAAAAABJRU5ErkJggg==;" vertex="1" parent="1">
          <mxGeometry x="347" y="210" width="120" height="120" as="geometry" />
        </mxCell>
        <mxCell id="pwwUaT36gZQOdsGTII0K-9" value="" style="shape=image;verticalLabelPosition=bottom;labelBackgroundColor=default;verticalAlign=top;aspect=fixed;imageAspect=0;image=data:image/png,iVBORw0KGgoAAAANSUhEUgAAAfQAAAH0CAYAAADL1t+KAAAgAElEQVR4XuydBXRVR7i2E1yDuzsUKO5S3KVAKe7u7u7uWtydFmuheLEiBYpT3N1dk/+ZXvhv21sJkJyz9z5v1jorIZzsPfPMTt6ZT7299CECIiACIiACImB7At62n4EmIAIiIAIiIAIi4CVB10MgAiIgAiIgAg4gIEF3wCJqCiIgAiIgAiIgQdczIAIiIAIiIAIOICBBd8AiagoiIAIiIAIiIEHXMyACIiACIiACDiAgQXfAImoKIiACIiACIiBB1zMgAiIgAiIgAg4gIEF3wCJqCiIgAiIgAiIgQdczIAIiIAIiIAIOICBBd8AiagoiIAIiIAIiIEHXMyACIiACIiACDiAgQXfAImoKIiACIiACIiBB1zMgAiIgAiIgAg4gIEF3wCJqCiIgAiIgAiIgQdczIAIiIAIiIAIOICBBd8AiagoiIAIiIAIiIEHXMyACIiACIiACDiAgQXfAImoKIiACIiACIiBB1zMgAiIgAiIgAg4gIEF3wCJqCiIgAiIgAiIgQdczIAIiIAIiIAIOICBBd8AiagoiIAIiIAIiIEHXMyACIiACIiACDiAgQXfAImoKIiACIiACIiBB1zMgAiIgAiIgAg4gIEF3wCJqCiIgAiIgAiIgQdczIAIiIAIiIAIOICBBd8AiagoiIAIiIAIiIEHXMyACIiACIiACDiAgQXfAImoKIiACIiACIiBB1zMgAiIgAiIgAg4gIEF3wCJqCiIgAiIgAiIgQdczIAIiIAIiIAIOICBBd8AiagoiIAIiIAIiIEHXMyACIiACIiACDiAgQXfAImoKIiACIiACIiBB1zMgAiIgAiIgAg4gIEF3wCJqCiIgAiIgAiIgQdczIAIiIAIiIAIOICBBd8AiagoiIAIiIAIiIEHXMyACIiACIiACDiAgQXfAImoKIiACIiACIiBB1zMgAiIgAiIgAg4gIEF3wCJqCiIgAiIgAiIgQdczIAIiIAIiIAIOICBBd8AiagoiIAIiIAIiIEHXMyACIiACIiACDiAgQXfAImoKIiACIiACIiBB1zMgAiIgAiIgAg4gIEF3wCJqCiIgAiIgAiIgQdczIAIiIAIiIAIOICBBd8AiagoiIAIiIAIiIEHXMyACIiACIiACDiAgQXfAImoKIiACIiACIiBB1zMgAiIgAiIgAg4gIEF3wCJqCiIgAiIgAiIgQdczIAIiIAIiIAIOICBBd8AiagoiIAIiIAIiIEHXMyACIiACIiACDiAgQXfAImoKIiACIiACIiBB1zMgAiIgAiIgAg4gIEF3wCJqCiIgAiIgAiIgQdczIAIiIAIiIAIOICBBd8AiagoiIAIiIAIiIEHXMyACIiACIiACDiAgQXfAImoKIiACIiACIiBB1zMgAiIgAiIgAg4gIEF3wCJqCiIgAiIgAiIgQdczIAIiIAIiIAIOICBBd8AiagoiIAIiIAIiIEHXMyACIiACIiACDiAgQXfAImoKIiACIiACIiBB1zMgAiIgAiIgAg4gIEF3wCJqCiIgAiIgAiIgQdczIAIiIAIiIAIOICBBd8AiagoiIAIiIAIiIEHXMyACIiACIiACDiAgQXfAImoKIiACIiACIiBB1zMgAiIgAiIgAg4gIEF3wCJqCiIgAiIgAiIgQdczIAIiIAIiIAIOICBBd8AiagoiIAIiIAIiIEHXMyACIiACIiACDiAgQXfAImoKIiACIiACIiBB1zMgAiIgAiIgAg4gIEF3wCJqCiIgAiIgAiIgQdczIAIiIAIiIAIOICBBd8AiagoiIAIiIAIiIEHXMyACIiACIiACDiAgQXfAImoKIiACIiACIiBB1zMgAiIgAiIgAg4gIEF3wCJqCiIgAiIgAiIgQdczIAIiIAIiIAIOICBBd8AiagoiIAIiIAIiIEHXMyACIiACIiACDiAgQXfAImoKIiACIiACIiBB1zMgAiIgAiIgAg4gIEF3wCJqCiIgAiIgAiIgQdczIAIiIAIiIAIOICBBd8AiagoiIAIiIAIiIEHXMyACIiACIiACDiAgQXfAImoKIiACIiACIiBB1zMgAiIgAiIgAg4gIEF3wCJqCiIgAiIgAiIgQdczIAIiIAIiIAIOICBBd8AiagoiIAIiIAIiIEHXMyACIvC3BLZs2RIsfPjwId68eROMjz/9rXjx4oVvrly5Xnl7e790N75ffvkl+OPHj0OmTp36/w/l2LFjXsGDB/99zO/HnjhxYt9o0aK9dvWY/fz8vPfv3x86fvz4QQ4ePOgXIkQI71SpUvnFiBHjNcMz4/FzN0Pd3xkEJOjOWEfNQgQCjAACFHT48OFRJkyYUODZs2eZeMUNHTq095MnT7z57PXy5cvHUaJE2RMmTJif+vbte/brr79+G2A39+eFjEiOHj06ApuOpPv27cv96NGj9Pzo73/PQoUK5fX69esgfHgz1t///erVq5dBgwbd7+vruxXxP+EqEf3mm2/CrFu3Lu/69euLMKaIjCUYQ/RlXPf5vLZWrVo7pkyZ8syf09bbROBfCUjQ9YCIgAj8TgCRDNG8efOEK1eurHrr1q2vEcH4Rh8RvyBhw4Z9i7BfRcTXJ0iQYPkXX3yxE8F/6iphfL9EZoxNmzaNu3bt2sJXr16th0Cnfvv2bTCEMjhfe/G1F0LuZb7mZP4GEX3AJuSXkCFDLi1btuyaGTNm3HHFmH/44YeQrVu3Ln7q1KlmjC07Fo2Q5r58PGcuO8qUKTO0evXqO92xGdLj7lwCEnTnrq1mJgL+IsApMviJEyei7ty5M+/58+er3717Nz/CE9qccLnAK062j/j3vpgxYy7ErL2JE+ctxMmlp/IlS5YEPX36dNQ5c+aUvHjxYjUEMh0m9Ui4A7zNOI2QMyavcOHC+fF/6Pjr14j4bUR9bN68eVe1aNHiSokSJQLdPQCnIFWqVIm5adOmcrdv324Gu2RmbIj6W8Z1jzEvLV++/ORFixadcjVDfz0MepOtCUjQbb18GrwIfBwBY7LmlBu+VatWeTh5579z504xxDERJ9tQiKIvZum7+M93RYgQYWvGjBl/yJkz5+3OnTs//Li7fdpPGV9+jRo1amM1aInVIAlWglCIYxAj4Aj276dxxv6GOb3CP30Y8fw5e/bsixnz2V69et13hXD++OOPYbt27Zrh0qVLxWBZnhknYKMRnM9vuP92xrQS8/r3JUuWvOGKjcWnEddP25WABN2uK6dxi8BHEDAnyKVLl4aZNm1aCk685a5du1aNw2xsTpJBEUbjZ36OaB7hJL6sYsWKyxHEewjSq4+4VYD9iNl8JEqUqCxiOZixJDYmdnNxI+Z8/Zb/v8/m4w6n30VJkyZdOXLkyHME7D1xhWndbDbgaSwH9eFW0Ww4EPKg3PsJQ7vH5mht6dKlJy9YsOC8q4PxAmwBdCHbEJCg22apNFAR+HgCRngIvkrK55KITqb79+8XQggjcKINhgC94sS7P06cOFt9fHzWd+jQ4USdOnXMyfbNx9/xw3+SaPUw/NTrzJkzm+jvP31gcg+xcOHCJASXdTLCiTk9CEF6lyNFirQVMd+I739bmjRp7rvq9Mt4QsMz4YEDB+rcu3cvFxuh9PjqQ8LR+Mh3M761mPlXfPXVV5f/bj4fTkc/IQL/TUCC/t+M9A4RsC0Bc7qdO3dutP79+xflNF4TwcmKiId5/vx50HdBY7ejRo26Om3atJMGDBhwKkeOHC9ccbJ9D9SMb+jQoeE2btyYBEGvFDly5PMdO3Zc3bBhwxt/Nw6CyZIi6u2wsMch9Wt63bp1fyL4zJzGXbL5MOMdP358LCwXDYisL4mQp4FjiKdPn75lDPciRoy4LF++fNO+/fbbkzqR2/bXxrYDl6Dbduk0cBH4ZwImyvry5cuRiUTPcuPGjQr4n0sgPJE4OXrjM3+CMJ0i9ewIgW6Libbei3/8gSuF3OSOEzgWDXN1OiLBS5PGlZv7f8aG40ns2LGXkbM9sU+fPr8VKVLk2R/HZQR11apV4YhwD9akSZNHrvCPG8rGwnHy5MkYw4YNy3b9+vUKbIjKYs0Ihagbd8RVNkUbyARYzaZoZ7Vq1R67kqV+D0TgPQEJup4FEXAQAZNDjuhEmzVrVsULFy5UQSgTGCFHYILh0zVR3ofjxYs3l6Cx9Qj6nbFjx5rUM5dFrDO+4Ahe7G3bthXGVN0AAY+H7z4q/u9g+PJ/z3NHLJ9z0j3J+GZiQp89bty4R+5aIhNzMHHixDjk5Re5cuVKbVgmJcDNB3O/KbjzCFFfQsGaRe3atTvIvFzK0l1MdF/rEpCgW3dtNDIR8DcBk59dr169qJwkCyA0JThFFkXAIyBAvgjlHQRyN9Hhu8kfX4U5+0L+/Plf+Pvin/hGc6pmgxFhzZo10fbs2VMM83QhfPi5MP1HZDMRlPH+fgdTAMaYrhH1B/j1f8Y3/gNCOh8LgssF3ZzIKVgTdcWKFdmwJlRj01HMuCrYgLzh6+uMdRNi/guBg0sxwZvAQVV7+8TnRD/+6QQk6J/OUFcQAbcRMGKJWT0+fugqiPiXiHgKvhcG36753X6COG5KkiTJfFK4duNvvuvKAC1zukXIfTCrZ9+6dWs9hDs9AW0xEOswpliNGbtJOePfvrgCzMn8thFJfOOz8Onvnjp16k3e938C5AITthkzwW6RMfeXZtPRCAGPwxiiI+ZB+fom49xDGt+EL7/8ci++/ueu8t0H5px1becQkKA7Zy01Ew8jYMqKLlu2LAsnyAaYgMtgtg6Df/wtp3JTL/wwEeCLEPLFVFa7yYncJUFj75fACGOhQoWSUru8Hab1fPiXkyDYQUxddVNoxbz+J1PO16SdvWbjcZw662OaNWu2uWDBgrddufH4w5i9cUWk/e2331qSh1+SU3gMRNyM9RVCfg4XwPBBgwatrFmzpskA8PWwx03TtQEBCboNFklDFIE/EsCnHJuTb1aCtMoiOEUQxCiIo/FB36UQzOZYsWKtMydcUqsuuDLS2gS6cbKNiyDmxn9fgE1FJk7kyXiFNBYD/m1O4V6Ity+fX7IBOYwrYAM55uszZcp0FZeBy1O8jJVgxIgRUZYvX56dcefH5F+M7yWBd3DG/ZgNyG4C3hayIdpDcZvzrkqL0xMvAh9DQIL+MdT0MyLgBgIm4I3Ta8xDhw5150ReGpGMjugEMxXSOE2eIOVrLgVVFpGvbUzVLgt0MyiMmFPytAhV0hpjqs4bPXr0METWm3o1poD57/XVTTE3BPItnx/iH/8O64FJlTvJadwtzUlMgF7RokWT7NixoxnBg6UZY2ymYoIHTfW5U3RDm/fZZ58t7dmz51lXWzjc8Hjplg4gIEF3wCJqCs4mgPAEwxQdlVKtpRDJCpwiv0Cwg/P9hwjkb/iddxO5Pm/69OlH3WGqfi/oNBr5ilrwHTmJp2Rsod6VZP29jjmCeRdxv8RY98eNG3dJ5cqVD3Xp0sUtwWRUdQs7ZsyYeKT1Vca0XocNRkysG6b6nDH9n0fQ937++edTyBbY78rgQWc/xZqdKwhI0F1BWfcQgY8k0KlTpwjz588vTcOUMpjXv6CUaERTxxwBuk+Z00F0PtvUvXv3cxQzcXnns79OyeS+t2nTJue5c+f6Mz5TwCaoaZKCuB8jt3w6Yrkbk/VpV6fKvR+n8eu3bNkyNkVfmj548KAQ40uNNSHUuwDCR2w8ZhJA+O3gwYMPFS9e3BSrkZ/8I59b/Zh7CEjQ3cNddxWBfyVgmn0g5umOHj3aFiEqiDk4LNpo8sgvYQr+kSCzBWfPnj3s6jrrjCUkEeve/3RyNdYEosC/OH78eFNOuhzIfX4mInw+/me3ma1NSVliDuKTglYWl0B13BQpsB6YxilP4HjOeAwoezuT9+zHDWBKt+pDBGxJQIJuy2XToJ1KwARpUco0OX27TdGVLzjVpqAamUnzekoA2XyC3lZWqlRpN6dIU43MZSdIM64GDRpEp+xqJfz3QdhsTOf1+O/WwZyER48eHYO+6kEHDhx419XlZP9wIg/WuHHj5N9//30N0xIW0/pn/F/Yd6lyL4laH4qvfxNxB0cpHvPQlTyd+vxqXu4lIEF3L3/dXQT+PwFM65EwCZdEwOsjPllM5DqfTRraQYrCzCdlag6+9CeuRGaEfMiQIT6LFy/OTFR9XaLTi5lmLgjhbIqqTKUl6CV3+e3/jQNmfR82PcUpe9sZjmmxFgQhqt6Pzy94/UjMwQzy3LcQFPfUlTx1LxEITAIS9MCkq2uLgD8IGDM2XbmSbt++vSJibhqomGhrX3y8ZziRL0Z8NhFBfoQuaC4THyPkdDCLTER9UtK5quJzLsAJNhliGMJ0LGWTYczVe1KmTDmaRiWbrJDOZbIA2PDEpkRrSiwJVRlvftwU8c2mCDG/i498O7n524oVK7aBanlnrbgR8cfjoreIwD8SkKDr4RABNxLAJBydNLM6nHzrID4xEZ7gCNATfM+LM2TIMIFo8HONGjVyabU0U/aUcqYpNm/e3Jko8KKYqCMYnzOC6M0YvUw+OWM0JWXvE6Q3F/dAbyLcH7oRoxc59xHIz8/HpqgHop2GjZEpYBOc0/kLxv2TqQtfoUKF1aNGjZKP3J0LpXsHKgEJeqDi1cVF4O8JmNMkDT2SIIaNOP1WQXjCI0CP0fMb+Mpn0u502T+1EA0spmZMpHRFpIxsPlK66iCK+TiJh0K8g5I37oW4m3rlvpjcH+DbP8sJ/Xv8+fMxb59zRy1zY0X4+eefQ5l2puvWrWtKlbxSMExmNh1wNJ3YbhtXBWb1JYsWLTqtMq2B9eToulYhIEG3ykpoHB5DwESwV61atTz55HUxr2cyvnI+rnKynEq61EJeNznxmracLvkwwkiFtwhEeRcljetLgt4KcSKPxJhM2tnvTVP4t5+pnIaIb6cS3bfly5dfT831O3Xq1HFZk5c/wpg5c2YoYg6yHz58+Cs2GhkZWyb+30SuP2fDcZxN0ZyECRNuxk1xDpY6lbvkSdJN3E1Agu7uFdD9PYaAif5GXBKQ9lUf4TTNSnyY/AOE81Dy5Mln0FnsR3zRLu0sZnLHKX2aYO/evfUQ7xoIYzTGZIqse1O/3I+CMMZffpuT73XM1pvoTz4OIb3qrtOuSUHDZ2+q5ZUgBa0JG6JkjNcb0/8zxn+VzyuyZcu2Ev//r1bw63vMw62JWoKABN0Sy6BBOJ2Ayc/OkydPpt27d/dkrnkQ8+D4os8R9Da5c+fOK9q2bXvN1eVa8TtHRvhq0zylCgL+GZaC0Aj37zXXzYdpFWqaklDLfGT8+PF/ql279iXcAKbDmMtbhTLWoMQaJNm4cWNtxpUPk//nWDhCm7HC9iJR91OIO9iIG+Oou6wGTn+GNT/rE5CgW3+NNEKbEzC+aZqPlKVITE++TspJ0tjYj8aMGXMQrTq/d/VJ0tRdJ9AuLQ1UapOfXc1UnzO55abeOqLux/hMhP1jNhuzCMxbSoT9AXeJpHEH4NMPR4pZ8YsXL7bh32nZDJnqbl5sLB7zeQscp/Xu3XszG46X7ths2Pzx1PAdRECC7qDF1FSsR8DUDZ87d26un376qTen4HSI0R1E6GdS0WYiVFtc6Ss3dExUPf3JixDw1hrhTslYwhohN8VWEEs//m0C87ZwAt6AeX3xggULTL11lxWw+eMKkv8envawWU+fPl2WwMEibDKSmrFyQn9IsNtPWA9+zJs37w8U4rmu5inWe/Y1ItcTkKC7nrnu6CEEZs+eHQWx6Y2/vBxCGRFz9hM6og0mdWouPbVd3pjECCR13/sg3jUZS2QE8vdOaKYLGkL5BqvBKQLgZhGwN53KaSZK3KUd294/FowpRLly5dJv2LChKT78Unzfh7EEgeFzxro1RYoUU6hdv4vodvUl95DfJU3TfwQk6P7jpHeJwAcRIB0tGuVPqxKF3YETrxGkSwjowjJlykzk1Hv/gy4WQG82QkmEei5O57UJfqvAZcMYIUfc7yHka3gtJOBsH9XqXBqY9356JkBv27ZtcegaV5JNUBXGm5mxGffEK4T8MDXsV9PnfTkV4M6oKEwAPRS6jKMISNAdtZyajBUI1K1bNwWR4P0RpGIIuTFnXyKKvQU+9C1W8PE2bdo0HOOrTN52Xcb4PHHixMOp077NlZXo/rhOxk9evXr18JzI2z58+LA+p/IobIJMRTpf0uTO8PUCItcXdOzY8aJM61Z4wjUGqxKQoFt1ZTQuWxJAnMJEixatNylVNZlASMToIlHiw8jxXmGluuFUgwvVo0eP1PQvf0MTlePuOvGa6PXly5cnp9d7JawGTRDxaDB8a3qoE6j3K13Q+mEx2IaYm3amLo+ut+VDqEF7LAEJuscuvSYe0ARIP0tI1bSGlHFtiCk7JOK0hSjxziNHjjzlypOlOfFito7ESfeVq5u5+Jepib/LmjVrWlrAmkI2tbBimPr1wRHtR7DbQBravCZNmuzo0qWLy2MN/DsHvU8ErEZAgm61FdF4bEnA+Kc5jbcj8roZ+dEROWGeR5Rak2q11ZXBZUYoCxYsGJeSqB3xPV+hEckcTsEmx90yp1uTk89GJwPd2/oSsZ6bBSeoPrQ3X18jen0e/zWzX79+51y5CbLlQ6dBi8BfCEjQ9UiIwCcSQDBDjBkzptj+/fuHIErREdLdRGKPwGe+AyF1WQlXxhGaoLb8bCJML3XTVCU4UfXLSU8bQyDcfleO5e+QGvM6hWESrl69ujS+ctOMJrWJMYDXTT4fIuhtAoVhfrKqVeETHxP9uAgEOgEJeqAj1g2cTMCciCnMUhn/bzMEKg2R7Jfixo3bGFPyPkTqpavmblqwUpq1FHXNu2Cy/hxzezDTHQ1hf0Rg2U6KwzScNm3aFVeN56/3MZuerl275qC1aWe4ZGZ8kUhDMwVsjlAYph8boIPff/+920rKuouL7isCAUlAgh6QNHUtjyJgfNUUX0lHdPYiJh4bcTqPqI4nLW0u5mKXNS0xJ3Oi1Evgu+/GqTy9GZfJL0fY/RDP/QjnWArcLHNHkxJTv55gwDik71W+ceOGqUqXGp+5N2O7ykbjRwrszGVsu90VlOdRD6wm63gCEnTHL7EmGFgEJk2aFKd9+/b98JlXwWx8P3bs2L0R84W5c+d+HFj3/Ot1TRlX0uSK//bbb0P5v2RGQLEWGKf0C77eSsT9QJqv/OImMQ8Kiwx79uzpgpAXYMMRnpP5c8Z2+PPPPx/FpmfToEGDHrqrEp2r1kj3EQFXEZCgu4q07uMoArt27QpdqlSpTjQ2acLEwiPoB2lBWr5bt243XTVRE1z2xRdfpNq3b994xDInAXnB3nVH86MQy0pSvvpg4j7iLsEsVKhQWsY2E395OlMoHuvBM4R9VZYsWYYOGzbMbalyrlof3UcEXE1Agu5q4rqf7QkYvznFWEqQw/0NOhUWU/vPRJYPWbNmjYlod0k0uTGrp0mTJjO++t74yfMzjlAmwIzPdxH29fQCH9KzZ89jnMxdXr4VsQ5LZ7SSp06dqk9cQUEsBm/Z8BwjtmABG5Cl9DK/7MrIf9s/cJqACPiTgATdn6D0NhF4T4DOXtF5TUGkinESfkBqWGUKo5iI9jeuomSavtABbRC57o0Q8BCczI2YP+PrydWqVRtPd7ILrtpc/HHOpnxrrVq1qtDFbTDfNxH/fgj6wWTJkrXFPfELXd6euYqR7iMCnkZAgu5pK675fhIBczpPmTJlLXzWg02nMkzIi+ia1sKVQmX85oh2nkuXLs1A0ONxCg6CcL5B0DfhBmhNh7Lf3CHmxgWQI0eObAcPHpyInzwtEfevGdPhVKlSDaEpzCpXd5b7pIXWD4uADQlI0G24aBqy+whQgjQVAj4JAc3B6fwiudPtbt68udqVI6LBS4qtW7eOIre8EJsKU10NXX97NkGCBC0xZ29yR0EWE4yXJ0+eLATADafATjbqxAcjin0TWQAticA/5+qe765cD91LBKxCQIJulZXQOCxPwFSDI2e6w+3btzsR4OUXKVKkcd98881gTp5PXDV4I5wEu5kx9OSeYcw4EPOH+PTbUu51oSvT5f44Z1LTYtEpbTSm/wqczr0Q9F1Esvc/dOjQelex0X1EwNMJSNA9/QnQ/P1N4J3vfByCVYao8iP0Da9M17LzrjRvm57mVINbgnWgqAmMQ8z9OBGbU3nd9evXX/b3ZAL4jQThVcIFMI4NRmTKtx4gha8lde0P6mQewKB1ORH4FwISdD0eIuBPAgX42LFjx0yCvCLRQa03p+TRrk4Jq1SpUnJ85DsR8qjmJMzG4hVm/4m7d+/ukihRIpcVs/kjMvLgY8+dO3chYm5S5+4Tzd6BCPfZ/sSqt4mACAQQAQl6AIHUZZxNwERvI1ydqXbWzpR3xcTdgOYiP7ty1sbkHzFixNrkdY/BPx0Ks7YXG4rruAFqXr16dbOrNxdm7mZMNKGpRrvYEcQVRORbPxE0WO/IkSPnXMlG9xIBEfDykqDrKRABfxBo2LBh/ClTpvxAffSkvH07FeEqly9f/q4/fjTA3oLJP+aoUaOmUzq1GCf0IJyG35qcc9q21qBOukvH8n5S2bJli4F4T8MFUJIxvfbx8elFsZ1RrqxjH2CAdSERsDkBCbrNF1DDD3wCJlUNs3ZlcqvHIFphCIabvmjRos4Egj0N/Lv/7x1Sp06d9fTp0zMYT2pS1byIcH/DBmPk0qVLe7rLV50zZ870VM1byMYiBa6IuwTClfz1119NYxqXFNhxJX/dSwSsTkCCbvUV0vjcTgABDYOJexgV2epjVn6CSbka0ds/ulq0CDQrc/369UmMJzaBZ15sLp6HDx++Fb78aa4ey/tFyZQpU37axn7LeCLgQ/+tadOmRUaOHOm24Dy3PywagAi4kYAE3Y3wdWt7EDBBXzNmzJiD7/wLTsanK1euXJ7SpiddPfokSZIUo9TrGO4bhpP5SzYYB8j9Hrx9+/YDrh7L+/vlypUrPxATYeUAACAASURBVJ3UllNEJiKbixPknBeToLtrNXRfTycgQff0J0Dz/08CFEfJtHHjxjWcQKNyQl/XrFmz+mPGjHFZE5b3A8RXnhA/fgFOw+e+/PLLi4ULF75DkZkn7jqdm3Fhcs+CyX0pYh4f3/4NyuAWogzu8f+EqjeIgAgEOAEJeoAj1QWdRgCRyoegryPwKyhiOn3WrFlt3NSO1Py+BuHl604R/+P61q5dOyE85iLouTilvyTivSqV81ZYZXxOexY1HxH4NwISdD0fIvAfBDiFFuEUuoa65N4I1+gHDx50RbBeC5yX161bt8JRVGYw+fANCIwLymvqihUrOlDoxmXV87QOIiAC/0NAgq4nQQT+gwANR0odPXr0O06gXgj6UGqo93JlZzUrL5ApRUtgXNYDBw7Mg0liBP0Evv7ax44d22flcWtsIuBEAhJ0J66q5hSgBLJnz16aSmzLOKH7kWc94P79+wPVz/t/EVPPPky3bt36wKU5Av82QoQIEwkiHFiuXLkHAboQupgIiMC/EpCg6wERgf8g8E7QvzVvIx99MNXi+uiE/mdopPIlp6XsQgQ9AxH4r2grO6Zfv35jmzRpclUPmAiIgGsISNBdw1l3sTGBLFmyFMOEvIJSq0ExuQ/H5N5Dgv7nBV2yZEk4erT3RsgbkE7ng0/9frx48bpdvnx5ko2XXkMXAVsRkKDbark0WHcQINf7C3K9V3DyDEcxlwlUROvkztKmpusbXd6isLEIGjlyZC9M3b50YbtZs2bNe+6MLkfUI1evXr05jFqRDRDp6dOn16k9Py1ZsmTz6JN+2h1rp3uKgCcRkKB70mprrh9FIF++fJl/+umnFcbiTqvSbyme0nTChAluqZ1uJsDGohqn4Fb49EORGx+EgjevCEZbO378+JG1atVy27jM2NhYxO7Ro8cIytJ+bdq7kur3IkqUKHPwp/ecNGnSbXduOD5q8fVDImAjAhJ0Gy2WhuoeAp06dYqPUM1FQHMhoOdq1KhRnnahR90zGi8vasjn+fHHH0dT5CYtYwhuxoFw3kI4+zCu6e6q627GYaLesWgkPHjwYHdcFPkpmRuPk/pr6t+vjBMnzkI4bmF8j9zFTvcVAScTkKA7eXU1twAh8Msvv4TJmzfvKPzCdRAsL0zIDen3Pdddke6MJziV4kpfuXJlKpuMSJyGvdlomI+Tpq3rmTNnfnbnSdiI+pw5cyJ17NixKG1VhzC+mLgp/LAs3CIGYTlpgLN69ux5NHPmzMrlD5AnVBcRgf8hIEHXkyAC/0HAdFvDF1yBPuTjQocOHQnhXPPdd9/VdudJc+XKleFp3zqNsZRF1EOaKSCcr3EJbKBaW59z58794o7+6H9EaXrIV6lSpQz176txWi+CmIcy1eRwEZwktW1mr169VjLW61Tde6WHUARE4NMJSNA/naGu4AEE6CIWc+rUqUvxVeegZvlB+pJXbNOmzQV3Td34pxMkSJDx2rVrEwlCy0QQWlBM216I+0s2HYc5BdejXO0Rd43v/X0ZZ7BGjRrFpsVrFbhV5d+pGG9QxvgAoT+LsC8mh31669atH7l7A+JuVrq/CHwqAQn6pxLUz3sEAWPmLlWqVCty0PtjOr6Jb7gV/dFNoJzbPsyY8OcXPnHixGTEMC4nX2/E0svY3hHMkaSRDaGZyx23DfAPNzan9Q4dOmQmV70v48yN+yI4Vg8/xvuEaP01bE7mDxs2bIs7auRbgY/GIAIBQUCCHhAUdQ2PIFCpUqWM33777UxOlikQzBUEeDVs2bKlWwO8qDEfmgYp1fDp98LkHgdh9zZ+foTyGpuO+aSyTZ44ceJ5d/rU/3BaD0qHuORXr17NwiakFN8vjEUhAlaPN+xBbpLDvjxVqlQ/0QxnL6f2m8r194hfK00yAAlI0AMQpi7lbAKmEQk+3wkIZzUE6CnV0RoeP378O4THrT5gU9SFnu3tMWm3ZAUiIuTe+NJ9aSLjizVhdtWqVXtSivWaVVbHuAsYb9Q1a9Y0wrdemdN6cngGZXymi9wLxr82duzYMwmc24mV4bEVNiNWYadxiMC/EZCg6/kQAX8SMNHbiRIlKkz1M2PijsdrHyfK1ocPH97jz0sE2tvo0R6FNqYNEMZ2CGQUc1Inrc2LT/c4rX9br169sdRcP2YlP7WxLmDlSLpv377iuC+yM84v2CxFJAWPL9/eIi5g92efffYDn38ePHjwBbrePQ80gLqwCDiAgATdAYuoKbiOAKfh0JwaB2J2b8wp2IvXCILRTClYP9eN4u/vZER98uTJY0xRF9LEgmPO9kLU/fj6LWbtVRSd6YhP/ay7x/nX+xv/+syZMyNt27atHlXvajDeZLzHm3n4ModXsD5IquCchg0bfte+fXsVp7HaAmo8liEgQbfMUmggdiGAjzfL5s2bJ3NiT4vYnMO3XnvRokX73JWX/kdujCXJ6tWr22HK/goxjIKgBzEbDzYdzzC/L0YYR7Vt2/Z0nTp1XliNt8n3HzBgQGLYVoFrcYQ9ARaHCJzQg/C1Mb1vT5o06UziAvYULFjwHm1bn1thI2U1jhqP5xKQoHvu2mvmH0kAIQ9J5bOm+Ki7I5ZhEc6Nxk/NKfPAR14ywH7M+KcR6wikiXWhPKwxwUc03+OEbk7qxte/n4ptE6gotyR//vxvAuzGAXghI+xExMcjPiE3eeu12ZxkRbhDMIe3nNrvwPwo/z5YpEiRGY0bNz5t1XkEIBJdSgT8RUCC7i9MepMI/JnAvHnzfAjsmsxJshTiEhLh3DRw4MAaXbt2dWst9fejrF+/fgyqtTVjbHXxSccy/n9zmkUQ3/LvS6SMDSCXfqW7a7//23O1ZcuWYLNnz05EPn2xe/fuVXv58mVGEzzHBsqk571mPqcJoFuSMGHCH44cOXLY3cGJ+h0RAXcTkKC7ewV0f9sSwHSdnCYtoxGaIgjlk7Rp0zajhvkyd3Ziew/TnMop6BKFk7rxSzfk+wkZVxDGaeqtG5/6dT4vou76WOrCX7Gy6dr42Pv375/x7NmzBanWVxRDQ1pEPTyi7kf64AvmcRRhX5Y7d+5tFNQ5QcnZJ1aej20feA3c8gQk6JZfIg3QygQqV66cGf/5SgQlKn7qO5iz+1JjfbpVcqjfFZ/JRynYsWw8EuFTD2qEkI9XfP0AtjPphDYc4X9oZc7vx0ajnAhYHrITyd8Ql0dezO8+Zk64F0wxHV/E/gfcIasqVqy4jtcdmePtsKoaY0ARkKAHFEldxyMJGH96tGjRmpF21YqvYyHkR2nk0mjr1q0HrBAkZxaFcYWgb3pBfNHNEfUknM6P+vj47CdI7jpf76Wk7Sk7CZ+prV+hQoVYnNhzkUKYFXHPxSstFehC4U4wm5VbzHcn89tYsmTJnwieu0SEvALoPPI31LMmLUH3rPXWbAOBgMmnpgRrjUuXLg3Ax2tMwb+mTp263dGjR3dZxfRrTPBdunSJSDW2MMmTJ7/H6fWFVcb2KUtiYgPKli0bkzWohIWkPCf1rJjjgxvXAuJuggDv0hRmBRuYlTTU2UGHt2efcj/9rAhYmYAE3cqro7HZhgCm7QgUPhmJmH9tTu2IyoYsWbK0+vnnn8/YZhI2HqipD0CJ29TEMNSnNnw+phKNlw+voKyH6fB2mX7xsygEtLF06dKnaAZj0uDe2njKGroI/B8CEnQ9FCIQQARIXUu8YMGCDghFDZMmxgnxp759+7blZHzaCafhAMIUqJcxwk4DnShUoMvOib0k4l6E+IbopL8F48Yv6e72ED/7ZkzyezmtL+vRo8cN9WUP1CXRxV1IQILuQti6lfMJ0CglGalWQwjWKohwmPKrP1LzvR9pVcetEijnn1UwbU+JfvcZOXJkdILMfMkLv2KnQi7Gz06Uf6S9e/cWPXPmTCliB9KwwUrI3ENxWg/Cv5/iY98VI0aMJQj6dnzs18hrN24Indr984DoPZYkIEG35LJoUHYlYHzVX375ZRpypzsgIOXxqZvyqwfxqXemZrllfOr/xNdExRNFnoJNSQlSxLLzvqSM/znitydfvnzz2rVrd8BuAXSTJk3yOXbsWOyFCxcWZpNlgugKE0sQGX+7KbbzgvmZfPb9CP1W5reVSPordn3+NG7PJiBB9+z11+wDgYARdfp6J6HVak986hU4rQehAM3W9OnTd8HHe8iq5ncj5kSPF7527dpI5hCPwLJQjP/3vxFsTl5TgvVArFixhpDnvd6OUeNmfpSWjUQAXembN2/WRMDTM78wzDOIaTnL6z5T3crma8ro0aP3soF5ZKVmNoHwqOqSDiMgQXfYgmo61iBgRL18+fKpMVv3J12sMJHWbxH1nQRjNRs0aJAl+pP/lZQxU3NyzYfIdef0ms50PuPlbawM5Hh74Yf2ZXNyiojxZXHjxl1Ez/KLbFyeWIO4/0dBBbpQdJ6LuXbt2sqc0DNwYs+GcMdi7iHelce9bFLe+PfqFi1aHClUqNB1+dn9z1fvdB8BCbr72OvODidgRJ3ObIloltIVMaz4rlLbz/htB1N8ZpsVfeomDYzgvmiIXgX6v/dkiUy0eBAj6qZ7m7EuIPgvMVHf5OuV5HlPprDOSataHf7tETP5+S1btoxAfEOMX3/9tTaFaorz/sSY4EOYanp8PGTO1+PFi7eYhjxr6GR3QuVlHf5La/PpSdBtvoAavrUJGFGnElvilStXjiXyvQAnQD9E4ijpU03oo37QqiZd0urDrlq1qgrWhTpYFrIZUed07s3XXpiqvfhs2sW+4CT7XfHixUcXLVr0GEFotszxNpsYesn79OnTJx0Fgqoz56qIeTDmFtxUqeHjCet2EKvElFatWm2khesdq66btX8bNLrAJiBBD2zCur4IQIC2pskXL17clNNfFfzRJj96X4IECUZfuHBhjVVPfcYET/OWmCtWrChL+lc5NiS5EPJQpjkKczC94I2om2YvN/h6ffz48Vd+9tlnW9gIPLbjopvNFyVww86YMSMx/vasCHtpXunYwMRC0IMyp0fvXA6bYseOvYM4gkPNmze/IXG342o7c8wSdGeuq2ZlMQJGLBDGCLQ2Hf7kyZOqiKARiBMZM2Yctn//fks0dPknZKY5CkFiiTZt2tQc0/vX+NWjMn5v02fdBJMZQeP1mu9dI897IcFkY6jKdstiS/BBwzGd3hD3qMw9P5uuxsz5M+YYljkG50Iv+dq0cd2Lf30oUf8nSOt7+kE30JtFIBAISNADAaouKQL/RKBZs2ZR1q9fX+306dPNOa3HRyBuEz0+k+CyGfRTv2Tl096wYcPC0kc97YkTJyojZsY0HZnxehMk50WKm5myH3N6xZwO8L0fea2l1vp+u+d202Y2ImuT+Pr16yXwsxdkPul4mT7zphnMHdZvB3Ndhcl+K6f262Zzo98AEXAHAQm6O6jrnh5NwNR+L1WqVEN6fLflj39sXo8xY2/CLN9r/vz5x60Mx1ga6AMflZS8ugT6NebEHpfx/t6j3JzYKdhigufeYKZ+y9emGtuw7Nmz/zRu3LhHVp7Xf43NzJuGOyEJokt2+/btolSj68jmJQKvYLghXsPhIe85QPnf6Q0aNFiDJebFf11T/y8CAU1Agh7QRHU9EfAHASPqVJWrdv78+UboQVpEPSiCuLhKlSqD+P5ZzLiWFgRjhh8zZkxSiuW0YGNSkBSvOJxWQxnhM4Fz6JyXadMKigek7C2k1OocTrBnatasec+OEfF/XFIz9/Hjx6dnDUviPsnFnE1/9iik9nkTa3CbmvELyQJYPXz48IM0wblv9/n643HWWyxCQIJukYXQMDyPgEmbIs85C+lQo5n955iqzcn2NNHVUxGNOblz57Z0cNn7uABq1aej09xXmOArMY8oBM+Z0qq/566bdqYI/Eu+f4Hvn8qQIcPQnj17/lKiRAnzPdt+mMh4Gu+EpMhOrFOnTuVgU2Pa56ZmQqa07Ety2y8z/32Uy53Hqf4nXCrPbTtZDdw2BCTotlkqDdSJBBCBYKSwFTh58mRfAq8+Z47BONneIrisN33KlyIEvzunrf5BM5TwgwcPrsopvRlNUZKbXG4TOGfamJocdvzMXnz/FaJ+htP6VPK65+OXvm31eflnfDSECUoGQ8rvv//+K+b6FeuXjM8h3lnj7+Nf79+2bdslvXr1Urqbf4DqPR9NQIL+0ej0gyIQMATMSZ1Wq6mPHz9eH0GsgRCE4rOJGJ83YsSIb/DHXrGD2daYos1pnahwk+ZWhnkkNmlufDZpbi+xPNylAt3OiBEj/pAsWbIfaZxiitMYs7ztP4y1YufOneGoA5+a0rmFrl69Wpw1TIMbJRxzv8mpfS8FauYVKFBgJ1XqTKqbI+Zt+4Vz2AQk6A5bUE3HvgTIf47WtGnT1oheLYQgGmL4ghPu95hth+zZs+eYFSvL/R1tI+yUvE04ZcqU2pjeayHoN/Axr0HQNpYtW3Y/0fLPrRzN/6lPkMnfx7ISh9KybXBD1OTf4Zi/iZ97grivhMFoXC2H7dTk5lOZ6OddQ0CC7hrOuosI+IuASZEiNawATVzaEmiWBXF/i/j9SiGT2Zx+59qlGps5sWJmjnTgwIF0+JLvFixY8CwV1p55ysnUzB9Rj8r8M3Fir4VPPT8PQHTm/5L/O0rVudlp06Zdy+bngt3T+vz1YOtNLiEgQXcJZt1EBPxPwARclS5dOu+aNWt6m+psJsAMc/UDrjCOlLGZEydOvOz/q+md7ibAaTwa9e5LcFpvQxxBKk7rpjjNaz5vo7JeD0oA73b3GHV/ZxCQoDtjHTULhxEwok4N+Aw0dunI1/l4RcFk+5Bgqx/q168/iFzn0+oAZp9FN8GPZC1kxvLSkVHnxPISxXSyY013Jk2atB892/dYPavBPrQ9d6QSdM9de83c4gSMqNMkJQaNXapxSq9LkFVSgqt8+f52crsnL1++/Hur56t/DGIzb3LWo9MBLRQlZE1A4JuPuY7VfsbMi8j+KLTQLULQYHesL8lZV1+sLxd4raLJzaCFCxfesdq4NR77EJCg22etNFIPJUDxmVDkbRc4c+ZMLwLlUoEhFGJwN1q0aO369u27gSj4u04IMjPBZDt27PChfWsWup41xkQdJ3Xq1GNIeduOwN+ye+76+8fXZDWkSZMmy2+//daBDVpmAuVis64Pmee3RMGPpLmNaUf71kMfd037EwhI0D8Bnn5UBFxFwDQL2bBhQxrS2KohAE3xv4Yi3/kaKWDbP//884H8/3E7i7o5vcaJE6c0PuavqQufjfnFe1eg5h6m6d9M61IyAL5zShMUM19iJCKTm16ewLlOiHkCLDCveJ4209xmMGu901MCCF31O+QJ95Gge8Iqa46OIUARk9D40Ptjsq1D9LgP0dNv+bwzZcqUHRGGX+1qnjaBY9R7X8z4cyDgIU2UuKkNb4rSmI0Km5f7mKXnUSt9BM1tHBMUaFL8aOhSkrz1Lmxg0mKCN8V4DhcuXLg9/2dE3RHuBsf8Alp8IhJ0iy+QhicCfyXQrVu3BIhfKUS9MWKekv9/i8l2V65cuUZR2GS9HU3TJmiMGugFCBYrg3iXQNjiY44Oytem2cv7uvDPCSJbVrRo0Rnkch9hY3PPCU+HMcHTRjeTMcEz76ImCp7vbcX8Pox8/o06qTthlV0zBwm6azjrLiIQoATMCbZ8+fImta0/Yp6D8qJ+pjEIwXJj6tWrN4d8dltWIzOmaMQ64+bNm9tiffgSQedgHsobof9d2I248b0XmKg3UUK2Hzn7B5xSoIVGLtFWrFjRjfWszSk9NPO8jkul9f37939g3sYcrw8R+FcCEnQ9ICJgUwKIX3BMs5m2b9/emZPdF5xew2G2fYT4fUcRmgH9+vUzRUtsV2LUBMch6klpV9qITUp5licalojQCLy3EXUT6c8cn2KSP548efIB5HLvxhVh6qTbbq5/ffSoMZCYZi4jmWNehD0sr5O4GXpSVnaVE+Zn01812wxbgm6bpdJAReDvCdByNerGjRsbIn61EPakvOsVJ9iNaOC0ZcuWbeIE+8SO7Ix/uUePHqkvX75c+tatWxWNe4GAwCCIHNrm7YXwm0jwB5xif0LcF+Ju2Eo1OlunfRnLCxH90ejA1/bmzZs1mGdk4gguFClSpCXm9y3yqdvxSXbdmCXormOtO4lAoBEg3Ss8fdQrIn5dEfVYnNaDIH43EiVKNDxPnjyLZs+ebds+5NR+D0ud+8I0fTFmeBMzEBkzvGnRagqz+HFqf8vXl03fdYrxTGSupoubUX3bntgpKBS1Vq1aLR88eNAIkY/IBm1z3rx5+7PJ2WXneQXaL4Au/DsBCboeBBFwCAETXEXEdDqKk1TlVFebaUUgl/sW5ttNnPCGIhK2afDy1yUxJ1cCAaOOHTu2yJUrV6pjci9ggsfMUd0EziHwxgz/gn/+gv95U6lSpeZTlMbWddIZf0SsL0OxSFRgjqFhsrty5cp1KSN7wSGPrKYRwAQk6AEMVJcTAXcSMMI3fPjwaL17925PTnfDsGHDhkf4Xj9+/HgzDVI6Y5o/aud89V9++SU4xXQSk3dflznVQMhjmL7rCJ53pEiR/O7du+fHBuYhKd3bKKU6vmvXrtvtGPX//hmaOnVqXFL6emCBqMa6vcbt8M28efMGY4kwtf31IQJ/IiBB1wMhAg4k0LFjx7gTJkz4GhN1HUQ+BaZpLwLmtmfNmnVIpUqV9tC17aGdp925c+dImOFLUoSmPGKXlfnFNqLOXL3wp/thofBlI3OWr4cRHPjjF198ccOOte/NBo2NWOxt27bNZeOSgzW7njhx4mGI+iyC5Z7beQ019oAnIEEPeKa6oghYgoAxwZOznZmqY+052ZXl1GpSvi4jcouJph5Kett9O/tjTe46LUp9OLVnImhuFBaJRAi7MU17m4I0CLqpe3+POV+gAcqk06dPL2K+zyyxOB8wCCPqRPIXP3HixBg2ZQnYwFwiNqLruXPnvlWQ3AeA9IC3StA9YJE1Rc8lYFLAChUqlHHTpk0DoZADE3UYvvcYUfiGMrLj2rVrZ/uqa6Ysbs2aNdMTFd6ETUtVguOCYY4Pxly9TP46Io+mvz3DCb0DXc3W2fGkzqYlDFaG5sRE9DBlf3ErLGvTpk3bgQMHXvfcp1sz/ysBCbqeCRFwOAFzwqOPelwipBveuXOnPtONiiC84Ps7kiRJ0p8o8l/s7Gc2y2fmyAYlCj7nfBcvXiyBedpUnIuENSKIiRlA6G/Gjh27EwF1S/j3SzsuuXEzDBkyZDpzKs18HpKu12/BggWT7b52dlwLq45Zgm7VldG4RCCACSDoPpioayAGLXgl5vJvEbfjiHoXzNFbnVCNzAg7RWmiU2ynFRXW6nNKD8sp3eTlz6tevXr3KVOm2DZ2wMwNEa9IXMQgIt8TIuznsmXLVg3/+j47u04C+DH36MtJ0D16+TV5TyNgTPDp+Dh16tQg5p6Hk2xIhMH41YdPmzZtMeVHHVFxzeTlEx2e5uTJk2U5me/mFLuTtDeTn27rD4rLhKW9bC1jekfYI+BemLd27dp2RPQ/tvXENPgAISBBDxCMuogI2IeAqZeO2CVHwFvjXzbV5UIy+rsEki3CTzucOuoX7TObfx6pOdHSmS0MOfgmP90x/cVNzfelS5eOxfpQDuvD5TJlynxND/WDTlgzzeHTCEjQP42ffloEbEsA33l0Ore1w/xehWIscRD3VwRcraTSWjtEwzR3cYwI2naR/mbgZkNG+uGX+/btG8uaReUtvYgdGFOnTp0XTpqn5vLhBCToH85MPyECjiFASlsEGrmU2b9/f0/EITHC/owT+wYi40fwfzsdM1GHTWTOnDnRKQ07l2kVQOBPZcqUqTmR8CYOwrblbh22RG6ZjgTdLdh1UxGwDgGTz40PtgIdvZpyQs+EsIfk1G4qrLWlPvxvBNJ5RAETc/LFHx3cDlHjJhYiZsyYzcha6EU0fzjqDCzBstKctbJt0J91fiPsOxIJun3XTiMXgQAjYFqxcipPdvDgQRMdXiNcuHBByeU+RFT1AiLDJyIUju7HTTpYeHqRFzp27Fha8tSnE0dwNcDgBtKFcIvEod77RAIbS3Ayv1e+fPnCy5cvPxxIt9NlbUBAgm6DRdIQRcBVBCg0k4AqcnOJoM6EmIek+tp9Tu/1ELi1ppa4q8bhyvsMGDAgBoLe4smTJ02Zo4n6n0cBml74pG+4chwfei9jWSEdrzmCPoA0tiBUk6t1/PjxJR96Hb3fOQQk6M5ZS81EBD6ZgDE7FyhQIO3hw4fr0OikPv8OSYOXw+Sqj2nWrNlKu9eA/ysgEwnP/OriYuiNMMYhhsCL18MoUaL0RuSnUYHu6SdDDcQLNG/ePPP48eO/ZQ6xuM0Cot9b4DJ4FIi31KUtTECCbuHF0dBEwF0EEO8onNS/wadeDNELjcg9wlfblxKyk/Lnz++oaOo4ceIUfPTo0ThcDKlMuViE3TR2uRQ5cuRm169f/9HK0f6Ufo3Sp0+fbWxIUrFOx2ivWp/2qnvc9dzovu4lIEF3L3/dXQQsSwBTe+IzZ860vnHjRg0GGQ6xO02eepd169b94CTz+zfffBOhffv2nRD0xswxoumxjsvhNebsdZjd23MCPm3V6HGq/4WklWp/xLwpa/SKjVd/is6MsnOLXMv+QthgYBJ0GyyShigC7iJg0tqKFSvWD6Goyck1NMVnziB6gxC8xU4SdawRkeiz3oCuba04ncdmvqYFq7FEzFm5cmVHK5uxM2bMWODAgQPTGXM8rCjbsK5UpHXuXXc9M7qv+whI0N3HXncWAVsQIHI6bpMmTTo/ePCgOCfBOAz6V/zs5qS+3UntO0n7ioJPegDBcXU4nYcgINCPJjankiVLVo/od8vm5Dds2DDW9OnTxyDmXxLQ94r67gUpfSuzuy1+uwJ2kBL0gOWpq4mAIwksWbIkAqJeg0C5buQ8R8asu4eSqv2oMbP7OQAAIABJREFULb7Zyj7mD10M3AyZEMNFCGMSEzCHSL4khW/O4sWL21v1lG6i3Qniq8XajGTcoagj0J3NyRinpxp+6Np6wvsl6J6wypqjCAQAAXOCbdCgwQgu9TUn1+CcZPdVqFChsZNyn2fOnBkKk3VHquW1RSgjYHb3w5R9BYtEFerC77KqL7179+4pCJDbwHhjs+FagKukmRq2BMBDb7NLSNBttmAargi4i4A5sebMmTPFzz//PJgxFEXUvehkNmrevHmDnCIeZo6tWrVKTeOaqYh6VvzpQcjxfk1Xs2GYtftbtWoe441cv3791Qw3A68t9EmvzVht313OXc+6Xe8rQbfrymncIuAmAgSQpWjduvUibp+WdKkH+JtHU7FsVNGiRS2ds/0huNiodLh27ZrZuATx8fHxJQhwx5o1ayoyx1sfch1XvXfLli3BihcvPoHuazWwIpyMGjVq3du3b//qqvvrPtYgIEG3xjpoFCJgGwLGLE3wWGuCxrpi3g2Hn/kyVcqqUDZ2t1PSpXLkyFGKZifzObGHZ2GML/3XL7/8sioblxMWXqheWE06scm6i6A3ps779xYeq4YWCAQk6IEAVZcUAacTGDx4cARKpjYgd7sDgViRsErv7tSpU3Wqq11ywtwJ+EuJz3weAWYZEHNjeb8eLVq0luTkL7Pq/FKlSlXv1KlTJtrdl6I4PQmSG23VsWpcgUNAgh44XHVVEXA8ga5du8YYMWLETPLTiyAi96NHj9765s2bC51wSqdgiw/NT8ZihajOhiUo83uG6b07jWtGWzUwLmXKlFVPnjw5hXGGpPKdCV7s7PiHUBP8EwEJuh4IERCBjyJgAsiSJk1a6ezZs5M5yYZD+HbTo7v65MmTL3zUBS30Q6b7HBuUxvihB4QMGTI8AXJvcC+MIF2vq1U3LMmTJy/ICX0OGGMy5jX16tWrRrzDEwth1VACmYAEPZAB6/Ii4GQC+JWT0HZ0EiJXEEF/GiNGjI74mafTgtTWndlMk5oECRIUpJb7AtwJUZkbGWG+8xcuXNjIqpHuqVOnTkcBnNmM9XOsJoe6dOlSjFS2m05+/jS3PxOQoOuJEAER+GgCCF+ICBEi1MfEOwQhCcu/VxBxXS9Pnjz3P/qiFvnBFClSZL5w4cIygswSmOI5CPqW3r17V+T1wCJD/NMwGFdsGrVMZ6xFGOtDMhEyjh492vbWEiuytuqYJOhWXRmNSwRsQqBjx46xR40atRARyU0Rll+zZs1ahWprp2wy/H8cJpH8KadMmbKGNyRB1N/yeSdFZ8pbtU46zMOTVjee1LXq+PxfVa9ePTs1Ag7ZfR00fv8TkKD7n5XeKQIi8DcETA40pvfWmKYHIHz3KEPagOA4I4S2/qALW3xE3bRPTYkJ+63ZrOCXLkGMgCVz0UmzC5MvX76BVPBrTlT+G1IJKxw5csR0xvOz9UJo8P4mIEH3Nyq9UQRE4J8IpE+fvvCvv/46j/8PHytWrG74nkfZndagQYMSYsbewkYlIXMxgv5L06ZNy44ZM8aSfmk2VqFKlizZgcC97gi6Ny6QtjTQmUz/+jd2XwuN338EJOj+46R3iYAI/AsBUqYynTt3bglm93iUSR1Keld3uwOjTn1qqsOtI8I9rhF0Trr7aFBTjsjxG1acm4lnoKBMQ/LPhzLW4Ih6bzYjw/j6lRXHqzEFPAEJesAz1RVFwOMIkL6W5NKlS4swuWfgJDsJH24LO0MwKXlx4sTJQSGZ7xDE6KZYC/PZ3qJFi4rjxo2zZI10xhyUAMXKBChOYawhKck7eePGjR2ov//czmuhsfufgATd/6z0ThEQgX8gQJWyBBQ1WcB/ZycHetbatWsb2dnUa8Qxfvz4pS5fvjyNcqpROen6slFZ3a5du1pUw3toxQfBbEKoEFcc68hixheKj1kEyrUihfCZFcerMQU8AQl6wDPVFUXA4wiYALI2bdosxn+bhckv4+s6RL7b9mRozNcE97XAfN2XDUoYzO6+uBKmDR8+vHmjRo0sm2MfNmzYwqzBStYgKD70JfSrb8LGSsVlPOQ3UoLuIQutaYpAYBKgmUlS2qqaoLhMESNGnEW6VzMKsNjWd4ugh0bQB1H6tRER7qGY1+tIkSINpHJcHytHjSPohRD0VYwXPQ++fPPmzQ2c0to2MJ9fp1xbgu6UldQ8RMCNBDJlypRx//798wjESkqJ1JGkTnWxsvD9F6pbt26FS5gw4SDEsRymay9yu58mSpRoAIF/c608r3eCvpoNSTBcBd9yQq+nE/p/rbZz/l+C7py11ExEwG0EsmfPnm/Pnj1G0KPSHKQXftwhbhtMANzY+NDT8EGN+ngE+vny76f169c/1r59+zsBcPlAu4QRdKwKq7mBEfTlCHp9CXqg4bbchSXollsSDUgE7EcgXbp0lQ4fPjyD0+trTrZtOMnOtN8s7D/ivwj6MgS9gQTd/uvq3xlI0P1LSu8TARH4WwJLliwJwem18/Pnz3twQr9Kl7KGRIevFy7XEjBR7qStFSFt7TvuHARXwTyi3Fsqyt216+DOu0nQ3Ulf9xYBBxAYNmxY9J49ey4nEjwXqV07EidO3OA3PhwwNVtNwbgJcHeUfvz4sQlONEFxk9evX9+JE/oLW01Eg/1oAhL0j0anHxQBETBtRjG3Z6FmuAnEikoxk9Wkq9UjtcvSvmYnrhy13IMj3tUR9EnMLxjpdiNoZduzRIkSL504X83p/xKQoOupEAER+GgCiHiYcOHC9aHkaysiwYMgIsNJleqj6mQfjfSjf5C1CMlaNMP1MZD18GIt2quW+0fjtOUPStBtuWwatAhYg0DFihVTrFixwqRyZeb1OFmyZF9xWt/E16ZUqj5cSGDXrl2hOaGb+u1tzG3Jm//6zp07K62cZudCPB5xKwm6RyyzJikCgUOAgjLl9u3bN5viK2FI8fq+Ro0a9WfOnGnJWueBQ8A6V6XufFjiF4aRO98A18fb4sWL51i+fPlB64xQIwlsAhL0wCas64uAQwkYn22BAgW6ElXdg5znp5h7e969e3ecTufuWXA2UhHr1KkzjsI+VTG7P2/WrFnqCRMmXHTPaHRXdxCQoLuDuu4pAg4ggLk9GkFXpiFLAdLVTlEqtTp90Pc7YGq2nEKWLFniUQtgKtkGhZjAlVatWmWzau92WwK2waAl6DZYJA1RBKxGwDQviREjRh1KpPammElUqpNtnj17dtVatWrdtdpYPWU873rST2NtPid9cFuDBg3K0ur1kafMX/P08pKg6ykQARH4YALlypVLxel8HMKRh17hLxH31ojHPDs3ZDEQSLmLOH369KRE7Adjo+KLG8G3cOHCl3r37n3rgyG5+AcyZMhQ8ODBg9NYkzisyTwK/jRgPd66eBi6nRsJSNDdCF+3FgE7EqBVapjmzZv3Y+wtSI96i4AsHDhwYEer1zn3D2tq0n+9e/duI4rBOemaGu53okWLNvDmzZtTrR4bQE/6SqdPn55MgGIIAhT783mQf+as9ziHgATdOWupmYiASwhwEo/dqVOn1ZxiP0fQr8SLF6/1pUuXVltd8P4Ljilhi5m6J1HiHTnhBje53Mzpcty4cevboZQtJvdap06dGms2WeSgd8WXPvm/5qz/dxYBCbqz1lOzEYFAJbBly5ZglStXrkk0ez+EIzKn1zF9+aAy3LNAvbELLo4gJr927dp8ovYzESlu/jb6cco9gNn6y/nz519xwRA+6RaxYsVqTVBiH1LWHiDmzdmUmK5r+vAgAhJ0D1psTVUEPpXAl19+mYQOXt+QFZWHaz3Db/sVfttNn3pdd/+86R+OpaHxlStXejOWKO/G8xxhX71hw4b6uXPnfuzuMf7X/RnrMNalMe87Gj9+/OZYTZRx8F/QHPb/EnSHLaimIwKBRYA851Bt27ZtQ6/z7uYeCMjKiRMntiX3+UZg3dNV123atGm8KVOmTMP3bFK+gvDyxaVwO0mSJI3PnDmzyuruBOMuwJKwAN9/Kcb6AwVlmpctW/aaq/jpPtYgIEG3xjpoFCJgeQK5cuXKfODAgVGcArPRyWt3kyZNmpLnfMzupUXN6ZwKa1XPnz8/HkEPh5nd/F18GT58+DW0hW1F5PtVqy/O2LFjoxGU+MOrV68+Z6O1lBTCZgj8Q6uPW+MLWAIS9IDlqauJgCMJkKIWkRzzHviXa3EKfPTZZ59158S+lF7br+0+YfzjkVq0aDH33r17hfE/h8D37IcP+iZ93dsT3b6IDYvlU79q166ddtasWWtZi6i8ZuIWaV+0aNGndl8bjf/DCEjQP4yX3i0CHkeAEq9hqlSpUoOUqH6czMNyApwzbdq0bpwA7zkBBpaH7Dt37pxO+dpUnHC9qXr3gjlu69WrV62OHTta3p2AhSF45MiR6z18+HAoYw9FsGKHvXv3TnTCZssJz5cr5yBBdyVt3UsEbEiAAKtcRE9PQjiSY46+Q4nX5nTxMmlqlj+5/hdu08+d+bSgh7jpUhaRDYsfovgEce9HRP9oO4jiu6Ysg0m3q8/4fZMnT17k2LFjO/9r7vp/5xGQoDtvTTUjEQgwAsOGDQvLSXUIYlEzVKhQz3x8fIYNHz58cs2aNW1vzkXMvatWrZqCALLpnGqz4D8PTiCcH/AuUR2uGtHtthDFSpUqJWcO45jDF7wuMqciCxYsUFOWAPstsM+FJOj2WSuNVARcSsCYcnPmzFn0559//obe2j5Et28cMWJEy3bt2l126UAC6WbGlVCkSJF2+M5N1H5wLA7enMxfYoVYNGPGjHZ2qUtPC9uitLCdju8/MpuuFXRZa8Cmy/YbrkBadkdfVoLu6OXV5ETg4wlkypQp48mTJ/sicF9gjr5DIFyPI0eOmCCxNx9/Vev85Oeff56NlLSxnMqzEOjnzRzfYm6/xjybMM91dnApkK4WtE2bNi2vXr3az6wLr34I+yirp9lZ5ylw1kgk6M5aT81GBAKEAFHfPpMmTZpnxBxxeIypfdyDBw9G8/XLALmBBS4SMWLE7sypI0MJz8ncjOgVJutVmK/rksNt+UIyZsDz5s3zIbVuGV/mZWNymeC4plTx22j3VEILPB62HIIE3ZbLpkGLQOAR4NQXjuYr1RCGAZxY3xLxPYVyr8MpvOKYvOaGDRtGIO3uRzYsmQkkC4p7wY8T+r106dK1PnTo0LzAoxuwV54wYUI8TujriM5PQgzAFjZhtalHfzNg76Kr2YWABN0uK6VxioALCKBrQePEiVOJKPZOiERyxO4A5V6rL1269LwLbu+SWxC9HqpkyZLVONGaRiahualxn7/C/7yfmIHGmzZtOuySgQTATQoVKpR948aNS9l4RWfjNZZNSk/SCZ8HwKV1CRsSkKDbcNE0ZBEILAJETCdZs2bN0qdPnyajUto5RGLorVu35gfW/dxxXVLRMpDWNZ4TeQ4T6W5O5wj7Q3qfdyN9bbpd3Aom5Y7mOHXZfA3ldB6CnvS18aUb87s+PJSABN1DF17TFoG/EsBvHm3u3LnN8Cs3I0jsMf7Yvl27dl2BSfeBk2hRn73hxYsXB2Fuj2Tmhf/c+M631q1btyG93i/bxf9sUgrpQz+E7IM6rNcLrA5FV61a9YuT1kpz+TACEvQP46V3i4AjCRif8rJly7pzMq9O2dMgnM6nIQ698ufP74iI9veLRl32iF26dPkWc7vpFheMvuF+uBYuI/LNiXi3VbvRMmXKZMCaMpMNyGdEtp8m/7w0+efnHPmAalL+IiBB9xcmvUkEnEtg165dofGT18R025GTqg+V05bR6GMIwnfBSbPGRB0SH3kF8urHI+QRTRMWhPANX6+iDnoLytvapjuZiXVImjRptQsXLoxnDkGJdZjFvDrgTrB9X3onPXOunosE3dXEdT8RsBABUzwGESi5f//+fgRWJcb8vIcqcLWJaL9koWEGyFDe1WwfR/BbRk7oQfjsi6g/pSFLV+qgTzGBcQFyIxdcZMeOHeHp0T6LMZdh3W5R+Kfj7du3Fyr/3AXwLXwLCbqFF0dDE4HAJGACwjixpqdi2mjuk5aT3vUECRKMOnfunBEKR5naf/jhh5D16tXrRfe0tmxaQiDo5m+fOc0eJHag8rhx464EJuuAvvbQoUNjDhgw4AdK8qbi2kd79uxZuUePHmcD+j66nr0ISNDttV4arQgEGAFyluO0bdt2CP3NS2KyvUFTjxFTp06dj8g7Lu2J6P1Uixcv/pbTbBLcCsHRdBPcfgL3Qgcaz6y1SyCcWXyzEYsdO3Zuxj2DdYvF2PsTzDe6Tp06LwLs4dCFbElAgm7LZdOgReDTCCDccYlgb4eZthoiZyK9x1KnfTR1wJ982pWt99MIYAiEuykpaf34OiwC6EXKmi9iiGdhSleE0FZR/MZ/jom9OcGLvdiMvaKRTAW7NJKx3tPhrBFJ0J21npqNCPwnASrBRatdu3YPzLWVyF8OhqCvxRzdkxO7IyOk8+bNm4rmJZMQvzzMNQiAOKT7PqUoSxmEcJvd/M4TJ06MhIl9HEGM5YgD2PnVV1/VogTs9f9ceL3B8QQk6I5fYk1QBP6XAKbZCN26dWtH7nITc3LltaV169bdRo4cedxOZmf/rinzity3b98h5NZX5UQempO5N5+foetbiOKv3rt3b7udzr0LFiyYZ/PmzfPYi/mQXjiFbnE97FIMx7/rpvd9HAEJ+sdx00+JgO0IEBjmU7169XpPnjxpTnR3TIqRnMK33IxiMrvtdkr1D3xjmo4XL16lK1eujETEozHHIOScm45qJ2LGjNmNqmqr7baJMdHtCHpv1q8+DJ7FihWr3eXLl00HPF//MNF7nE1Agu7s9dXsROB3ApiWI1SsWLE90d2NeVHRNfSxNGnSdN27d+9mu4maf5eUzUssTNFTEfOixrWAyd386AtKvI6g3/lgap7bLl6ANctJFsIEE93OlH6mUlyVjh073vAvE73P2QQk6M5eX81OBH4nULRo0bI//fTTEE6oCTi5XuKE2mXMmDFrndrIw9Q5p995aaq/fYOQRwNBECwSfqTm3c2TJ0/J7du377Xbo2HmRL32BtTWH8JcvNiYDFm4cOHIEiVKOKalrd3WxGrjlaBbbUU0HhEIQAIEwIXmBFeU/OtRCFsMTuMXU6RI0ZcAuKVOK+v6HptJ66KKWr6zZ89O5HtJEL/gRgAxUz8gmn8p6Wvt7NLv/I+PAvUCwhDIN45o/aq4Dc4R7FebznD7AvBx0aVsTkCCbvMF1PBF4N8IpEqVqtDJkyeHm3rfiMCz6NGjD+jevfu0pk2b3ncqOVqIhiK/fsSjR4+MnzmESVND5N9get9B/nZHTNa2FEHq7Sch3XA1ke1JsLQsXbFiRevSpUvfceo6al4fTkCC/uHM9BMiYHkCpjLanDlzci9atGgw/vK0nM5vkYs9meYdYzC/P7X8BD5ygOZ0Tl52GnqEz8fH/BmXCUqK2hte19jcdDp+/Pi3dirx+h6DWc8GDRpUopiM6eHuHTFixBFkKgy241w+cmn1Y/4gIEH3ByS9RQTsRMCIWrJkyUrhP+7OuNNzonvh4+MzfPz48ZPxmd+201w+dKzUoY+yfPnyzghdQ6L5Q2Jqx23+9hH+5iU1atTojavBlpYJshGSf//99+OZU27W8zLrWGP27Nn7nBrQ+KHrrvf/DwEJup4EEXAQAXOSmzZtWubVq1ePxMSekbzrm5zQ5/z444+DaObx2EFT/duptGrVKgaWiS8R8VgInxfV1J7x+W62bNl2rFy58pRdBTB+/PgNL126NIC5hGHiC6hw15rNi2MtLU5/TgNrfhL0wCKr64qAiwkYMacCXEWKqLTDx5oCk7MvQWAziGYfgLn2pouH47bbmfxzuscFyZQpkxmDn3kh5G/dNqBPvDHFgMJQDGgKleG+Zh7nSF1rfuTIkY2feFn9uAMJSNAduKiakucRIJo9aJs2bb7gj/4kTuUJ6fH9hKjuhaVKler73Xff3fI8Is6ZMfX1E0yYMGE9QX0JcR0s7tSpU4vOnTs/dM4MNZOAIiBBDyiSuo4IuImAieru169fSaK3TWvQjAj588iRI4/je1OaNGly1U3D0m0DgACukrBYV+pS7a6/Ce4jHa/l6dOnFzutvW0AoNIlICBB12MgAjYmYMzLiRMnLnHt2rVh+IvNyfx5mDBhlmJm746PVSdzG6+tGXqWLFlMv/ppuE/SYXm5MmTIkDyc0G3Vu93mS2Cr4UvQbbVcGqwI/C8BfKuxiFwvRZ55K4Q9KQFT5zNmzDiofv366yTm9n9S3uXT9+Nk3vThw4d+mNtn4lppr8pw9l/bwJqBBD2wyOq6IhCIBDi1BS9QoEAnzOutyDGPgKA/pWjKYBqOjFbnrUAE78JLUxwnHt3idnLLOPjPjxAM1/LgwYPbXDgE3cpmBCToNlswDVcEOLlFJOq5GEVGhmGKjUF62g1qfM/AZz6uVq1ad0XI/gSMKyVt2rTFTpw4MRsxD886T163bl13T0g9tP/quW8GEnT3sdedReCDCZh63lR6a3X37t36FE2JxwVuUzRmNOb36RQbuffBF9QPWJIAGQuR6QjXj7rt9TG5PypWrFi5tWvX7rRrHr0lITtwUBJ0By6qpuRMAsOHD486YsSI8oj5QPLMwyPo1+iHPYkiI5Pxqz5y5qw9b1am0h+d4socPXp0JLOPywn9VO/evfN17dpV1hfPexw+aMYS9A/CpTeLgHsIEAwVgRS0ThSNqcSJLS7V3+6SmtZzwIAB38nM7p41Cay7UukvcosWLcYQG1ERU/sD1nokjWZG2Lk4TmCx0nX/TECCridCBCxOYPDgwfH79+/fnjreDcgzD8bp/DT5yAPIR14gE6zFF+8Dh2eCHanbXofWr8PIWgjx4sWLJZSz7UgaosdU+vtAZHr7HwhI0PU4iIBFCZjAqOLFi8ej53UHcpC/wvTqg5n9Sty4cdt26NBhU6NGjZ5ZdOga1kcSwLQeneDGUfx4WSwxT3ClVFyzZo3xnft+5CX1Yx5EQILuQYutqdqHAGIeBD9qak7hQxDznPxBD8Lod0WLFm0ARWR26GRun7X8kJESxV5o3759U2guE5NnYAVtYOvmz5//xYdcQ+/1XAISdM9de83cogRMUNQXX3yRdPfu3X0wrxfmVB6cP/C/Nm7cuA3tPw/Ll2rRhfvEYdFcx6devXq9bt261diczgl47ENdgUnavH0iWA/6cQm6By22pmp9Aoh5iPTp02c9duxYF0abgz/sbynluqhChQqT6X99zPozCNwRGjfE0qVLvbBUeHNyfRO4d3Pd1c28UqVKVZyqf5NwrUQhGO5AlSpV6pG69pvrRqE72Z2ABN3uK6jxO4aAyTGvUaNG6TNnzrTnRJ6CiT0KGzbsbEq5TqRi2DVPO6kZS0W7du3iHjp0KDXBYexrwoTEHB0dsQsePnz4S2XLll0/evToB054AHbs2BG+ZMmSQ4lmr8187sWJE6fn5cuX57Lmr5wwP83BNQQk6K7hrLuIwL8SWLlyZXhKfdY+f/58K07lMXjz7eTJk48gun02BWOeeCI+UvWiVa9efQg8vsTtEJrmM3wK6svrKa6IhZiouzol/57NSU4qwU0jXiIWaWrL582b175cuXKO2Kx44rPrrjlL0N1FXvcVgXcEWrduHYvc4/qkpdXlW9H4g349Xrx4o7dt2zYrZsyYTz0RFKfz4JigTfpWX0QuOgy84eJFbvZzvv6ladOmLSdOnPirE9iwcQnHfHrSy74J3fKuU7O9OdaaDZ5mkXHCWrp7DhJ0d6+A7u/RBGrXrp1wxYoVzSkYU5s/4MH4g36Fz9/gL5/GydyIl8d9GH8ybUOzY2ofh5inw7wehM9emN19YbOjTJky3WHmiFQuk83w2WefFcB3Po6FjoeLZRcblerqludxj32ATFiCHiAYdRER+DAC5g953bp108+dO7c/HdNyUjDGG9PyfoSs+65du/Z7csc0XA0p8R9P5jCeG6pBCBLzRtDf8vX1nDlz1tu5c+dGp+RlU/0vMZkLU3AjZOd1L0mSJB2PHz++VJkMH/b7pHf/DwEJup4EEXADgYYNG6akBvsATuQFECsjWlcwMXejPeYa/pg7Jnr7Q9HOmTMnLIFwrW/fvt2ZILhw+Mq92Oj48bqH4C1ctmxZD6f4lk3QX4YMGYr/+uuv8+AUlE3dGnzprYniv/2h3PR+EZCg6xkQARcTMK1Pe/Tokf3KlSut6ZKWlajm11GjRv2WDmrjCIQ648lRzUOHDo05aNCgOvfv329PS9iIiHgQRNyPiP9X0aNHn85Hr9KlS99x8ZIF2u3MfLt3726qwpVCzC9gfWj1448/bpHvPNCQO/7COqE7fok1QasQMHW6SU2qiWC14lSeiHG9xj/8/ZAhQ3pger1glXG6axyUtK0PmwGwiWJOrMZvzin2lSl3mzlz5lp79uzZ4a6xBfR9CYQL2qVLlxrnzp3razYvbFq20wK3KuV8Hwb0vXQ9zyEgQfectdZM3UgAP2mcjh07Vqe/dQtTOASxOk+P6yEtW7b8zimpVx+LF3EL0bNnz3y//fbbRAQ8EXyCcDo3Yv6a194cOXL0xW++2SmuCBM/Ubhw4byUdR3LXFMwr4v58uWrvX79+l0fy1A/JwIyuesZEAEXEECwIlMwpgfBb19TFCUS+dRPIkWK1OvEiRNzPDUt7Y/Y06ZNmxcWvWGTF0ZBeXlhgvbl1HqJAis9Ll68uBjRe+2CpXLJLUwRmfLly4+jxGt5BD0o6XjTFi1a1MPTN3Yuge/wm+iE7vAF1vTcR8CY2OlV/tmFCxfaPHv2rCQns9CI1vYIESJ8Q3T7Wv6Av3Tf6KxxZ4IDYxEINxMRL2TEHD5eCJwvloz7fJ7dq1evvp07d3aUGTpdunRZDx8+PIOgv6QE/R3CUlN31apVx+U7t8YzaedRSNDtvHoau2UJmJrspKAVPHqzEwO/AAAgAElEQVT0aAvyp3ORX+yLqO8ih7ozOdQnnGI+/pQFQMwjfPvtt63IwW8Hr/D4yr0ROD98ys8Q9lXNmjXrScnbs04SOnrbRyDwb9DDhw9rwu5NxowZu+3fv/8bPQ+f8iTpZ98TkKDrWRCBACZgxJxqX6VpsNKDtLTkiNRTRGo5ZvcRs2bNOh3At7Pl5WAUjHzzetSt78bXcU2uOR9emNlfwOoI/JqSwveLLSf3D4P+g+98QahQoSLgejlBV73GW7duddQ8nbRmdpuLBN1uK6bxWpaAySsmcjkiudLl8Pu2JrArAQJ1I1GiRPMI7JrPx3knnTY/diGMmGN2zkRZ12kUj0mF6Tko4uaFyf0V/2fK3nbBDP+d0/qAU/0vSosWLUaRqlgedo8SJ07cl2DJuaQsemR53499fvRz/0xAgq6nQwQCgIARc0zIn+Ebb44wVeAVBPE+T1nPwWvWrPkeUX8RALex/SVMWdfcuXOnJAhu6L179woT/BbcFI8x5me+voS4j16wYMEUJ8YXsFEpQwW8UZzOozPXKdQj6NmhQweJue2fautMQIJunbXQSGxKwFQ3mzx58ueUbG2L7ze3idIm8G0zIj4Bs7FHl3H945Iak3PWrFk/JyCsByfyYgS9hcaC4c33fXk9osd5H+qYz3JKJbj3czebPfLLE9PbfCxf58Fyc4ACOW0IhDto00dew7YoAQm6RRdGw7IHASp7hSUFqSl55ZUR8mT8sb5LBbj59erVmzRq1Kir9piFa0ZZpUqVqN9///0oxPxreIVA3Lzwl5vSrk8JiNtM1bS6vXv3dkwluPdUidKPNH78+J5006tPcORrNjHDsVCMlNXGNc+dJ91Fgu5Jq625BhgBc9qk5nZEepiXo4xrDwQpCq9rBHetHDdu3DAar6ge9x9oUwUtzOjRo79CyEZgxYhiTq189sPc/oKvt5ERMHDv3r3bnRhjQI3+ckbAmW8sno/9BEfWo47/yQB7GHUhEXhHQIKuR0EEPpCA6dWdLVu2PESxVyUVLR+W4yicuq7jF+1KkNPm6tWrP/rASzr67aZ+PRXx6pNb3ihcuHAJYRWMVL7fy7oicrsxPzcmfe2UEzuMUdY3/LBhwybS67wsz8kDSv12vXnz5kInztXRD7FNJidBt8lCaZjWIGBS0ojQLnD69OmemI1TYS5+zqnrAF2zviG9eC2R2R7bKe3vVuiHH34I2bx585KXLl2ahIhFNZ3l2PiYk7kJgjtKxbzhN27cWOSUdqh/ZGBK2uJCKE471El8PwJi/gNpiy0rVKhw3RpPs0bhNAISdKetqOYTaAQ6deoUgcCmcrT2bI6Ip0KcHnHqWjB27Nih9evXv6NT15/RG7M6/b0LENndB1bZ+d+gxmeOkL/hhH4hV65c3bt167bCiRHthkSmTJkyEgA4Dg7pTEoe86xKDMEGPSeB9ivq8ReWoHv8IyAA/0XgXX55AvzAjegGVgdfuQ9m43ucuEZTtnMGvvR7/3UNT/z/ihUrJoLNYjY/GbBkBEPIvcg790XU79EydhIpW0OcmrZlYizYzHSgm1qXiBEj+rGhmUNgXKc6deoofdETfxlcNGcJuotA6zb2JGDypoliT0OKUTcEqRCCFJIT1rHIkSNPxF++7Ouvv35iz5kF7qirVq0aifz7Zoh3F0q7huazNxshX4TtKRzXEDQ4EH7HnBgEZ8ScYjHJN2/ebGrUp4H0z5je2/I6GrjUdXVPJyBB9/QnQPP/RwL4f30qVapUDn9vG/4wp+RU7ksQ1y5MqS13795t6rH7Cd//JWBqtNM9rA8V0erwvz7mHe/S056QtrWcVqndcV9ccSq7nDlzJjl06NAY3Ap52MS8Jve++vbt22Vqd+qCW2heEnQLLYaGYh0CplMap8wKBHP1R8hjcrJ8jpjvjx8/fndKlh5wYhBXQNDndBqSFLRK8BsDrwim4YrZ+MDvFV+fTpAgQbNTp07tcCo/89xQGKcDcQOd4Gn+vu7jZF6F162A4KtriMC/EZCg6/kQgT8QMClpefPmzUCFt2qY10vz72j4fy/jB52EwC+lktkNAft7AkbMsGiUvHbt2mDYpTCn8nen81cwPImYD8CnvAIx/73WqxM/iBvItHLlytlYdVJQxvZQ8eLFmy1fvnyPE+eqOVmPgATdemuiEbmJgBHzPHny5Nq5c2dv/hhnIMfcm4Cua4h5P/KJlyug6Z8X5l0t+3SkZY3jNJ4V0cZVHsKPqnBv6Th3OlasWP0IKlzl5EYkuGF8iGTvRY36htRr9yYDov+GDRtGZM6c+bWbHmnd1sMISNA9bME13b8n0KpVqxSkpJWm+EkdhCipOV3iN1+DAA3s06fPYf1R/vcnhxz8pP379x/99OnTL3hnGMztvvB7i7Cfo679ILIDFjv5ZG7q+bdp06bV3bt32zD38LhpdlHqtg6NZi7qd04EXEVAgu4q0rqPJQmYkyWVvGL06tXL1Bgvip83PKfzRw8fPtxGAZABmEvVq9ofK4c5vTjxBi3YDMU2Ndp53UbAb8WOHXvV1KlT1xUuXPihPy5jy7eYqPb06dOXIBBuCBNIxun8Kr3e2/PvlTBQoSFbrqo9By1Bt+e6adQBRKBJkyafU5q0CRHJtblkcF7nY8SIsZRGIeOpcHbDqcFbAYTv/1+Gqmih6QEfHheFtzmZszF6EydOnDf4lJ87vZAKc4+AO2YscQMVAPKKrnHDqec/ipTG5wHNWdcTgX8jIEHX8+GRBHbs2BG+WrVquRGh3gBIiZ/XdP36LXXq1L3pkraNEq7KL/fIJ+PDJm0CAcuWLVvt6tWrQ/nJsFh3NrZu3brhwIEDb37YlfRuEfh0AhL0T2eoK9iMgGl5yumpOSb2BrziYjJ9jd9zXYsWLYaVKVPmgOqx22xB3ThcLBDpV6xYMYHNYDaeoesEUPamNv0sp1sl3Ihct/4XAhJ0PR4eQ8A0VilQoEBa6muXI3ipxruWpxfw+37HieobBP2qisV4zOPwyRM1ndT69es3gGyIGgj6m+jRo0+ivOsINouOjRf4ZGi6QKASkKAHKl5d3CoEEPNg/MGtQBvL1owpFWIeAl/vzdy5c7elstn6mjVrPrXKWDUO6xMwJYGzZ8+eY8+ePYsZbThcNhumT5/emta5jq2AZ/1V0Qgl6HoGHE3ARLH36NEjMX9syyDmjUlHi4eZ/T7NQeZ99dVXc6knbkq4vnU0BE0uQAmYqPb/1965QGdVXXkcEpR3TKAW6Aqv8AowqBR5W2AkIo9SQUWQAgYI78JIAgQIjAQmPMJDHg2GCAMhyaQIBEfUynsBlRSpolKcyCNIeQQBIQEktArM/1hmTTur0yaY78u95/6yVlYQvtx7zm9v7//uc/bZW1n9T+bl5c3QhdvqiFpe27ZtBx04cOC3JFGWKGouVkwCCHoxgfFxdxFQ9F0nIyNjjs5HP6WHbRWzX65oaq2qec1VpzS6pLnLnI4Y7bRp0x5eunTpZmW1t9G++W19p2vpPdrWznGOgM4gikQAQS8SJj7kNgKm0IeagDxx8eLFkTqS9rTG/432OQ83adIkTf3L37C5YpnbbOWm8aphT/nIyMj+8quV2rYJ1DG9vcOHD49JSko66qZ5MFY7CSDodtrV07PSAzdYEbjpXT5Cz9yaJipXsY+9o0aNiluyZMlxmyuWedrwfph806ZNI06cOJEgn3pMS+0FtWvXHqijj3vYtvEDfG7xDwkg6P8QER9wCwEV+Hhw48aNDbOysmL1wH1a30H6PqWWnWtV2jVDmex5bpkL43QWAZOLoRfCMJUHTtafO2l0hXpJ3LR3794JKgt801mjZTReJYCge9Xyls1bYl5txIgRz+kIUaSagzQ309Pe5s6WLVumJiYm7tDZ8luWTZnp+JGAltqDlEQ5z1QUlF+VUXSe1blz5xm7d++mVrsf7cCt/j4BBB0PcT2BhISEGoq+X9bDdpSW2CupdWWBoqe3deY8Tg9i2p263sKlP4Hw8PDO6uO+TgmVoUqGOx4REfGcOqnlULeg9G3DCP6XAIKON7iWgMpuVoqLiwtXu9NIPWSf11JosCZzpmHDhqvq1KmzaefOnX9w7eQYuCMImKX2AQMGhKka3IJ7zXsKTfc4FSZazr65I0zEIP6CAIKOO7iSwJ49eypoiX2gOnzFaAI1Tf9tReZn9LBdkJ+fn+rKSTFoxxFQGdfK9erVW6wl9hd0SqKCVoCylHQ5OSUlhXwMx1mLASHo+ICrCJiIKSoqKmT//v29tAQaq8HX13e+vj/t0aPHwilTpnxAYxVXmdSxg1VeRmBycnJXNfJZoKqCYRL0T2JiYkYvWrTIFCO669iBMzDPEkDQPWt6903cVOjq06dP8+3btw9RNP68HqohipgKqlatukylWzfqSNoZ982KETuRgPG1Z599tsPbb78drz+3k6CfqF+//qRTp07tcOJ4GRMEDAEEHT9wBQG1NA1evXp1V0XlE5XF3lSZxoVqqvJRWFjYKkVNu9SPmiz2+7SkqUvevn37xno5CpVwfXcVk8mtF6ZAlcq92aFDhyPz58+/ep+Xd+WvqbVu6KZNm1bI1yIUmV/Xsvu6VatWJVCQyJXm9MygEXTPmNqdEzVL7LGxsbXS09PHnz9/vo+pxa5M4yv6ma4a7cn6t/MSnj+rEF/3RUDnqP/pyJEjJumrhUS9oniWlbDf0cX+qO8Lqq43KCcn55hXlpnlc+Vr1qw5StXgTK32cupxvkWReqy2ci7fF2B+CQJ+IoCg+wk0tyk+ARM5NmrU6JEvvvgiXgLTWWU2AxQxfanGKr9cuXLlWtpUFp/p//2N6OjoxtqqmC3RMmf4A7XqYc5YlxHrb/XzePXq1RdkZmb+h1d6xJul9saNG5uSwcsKCgqa6OXxv1q3bj1W++gHvz9trgAB3xJA0H3Ll6vfJwFF3g+98847T+Tm5o6S0DyhiNyIzG7tl2+WmG+TmNNY5T7Z/s+vmX7es2bNmi4RG69l5cp6WfpuqV0/zYpHrk4MxM2YMePXXmo6ooS3uuoBsFQ+FyGfK1SVwcS33nrrlxQm+p7Oxq/7hQCC7hfM3KSoBExUrnO/DbR/Ga/f6aj/ri6x+bJatWoZEvEVyjq+WNRr8bn/n8DUqVND9GI07vr165Ml4lUk4gFGzLUS8q1enHJatWr1SnZ29havLLMbUqbxysCBA6eKSbRWJwqDg4NTxGmxvgvwJQi4gQCC7gYreWSMZr9cmcRttMQ+TlPure8H9X1e+5mv60jaWtXRvuwlgfGV2Y1wKelrqM7rT5eI/0jiFSiuZqn9G93zogR9pk4SZHopKjVL7dre6aS6BubMeWNVGvzN+PHjxykZMNdXduC6EChpAgh6SRPlesUmYIS8WbNmdfQw7a++5WO1jxuiQPGaRGZfmzZtlq1YseKwEreM2PD1PQmYBjYTJ07sf+7cucUS7uriHCD+ZSpWrHhbP0/r7xLWrFmTqtWQ29/zVq75dbMqpEz+CK1IzNOgG+v77KOPPjrmk08+2eOaSTBQCIgAgo4blCoB8zCdNGlSqDkSJDHvbjKMNaAr2r9NnjNnTpqipHNE5SVjIsNax6+6SczNdsbjikTLGjEPCgq6c+3atbNaYl6i3IX106ZN89QRNZ03D1WTFZME91PlaNzQvvmry5YtW0HSZcn4HVfxHwEE3X+sudNfEDBR+ZgxY+oqg/p5PUjN8nprReaFEpkdvXv3/ne1O93npSVfXzuHeD+o0wEv6KXpFTGurz3zQHNPZXHfVpGeLzp16jRt3Lhx/ykR+5Ovx+Kk6yspMFjiPVv75oNM+oAYpakF7xSqDTrJSoylqAQQ9KKS4nMlRsDsV0o8whSVT9NFe0tgghUVFUhk3lGLytkZGRmnaXxRYrjLmJcnFURpo+5gS0zVM2VvB5jjafrzHZ09zzd9vdVDfnLPnj2vldxdnX8l09ynf//+w0+ePDlHSOSClY898sgjv1CzH5banW8+Rvg3CCDouIVfCeg8b1VFge2vXr36kjqk9ZVwB0hQ8vTn1f369TPRER3SStAi904NNFZhlERdtqtazFbUPnkZ/TSFY65KxN5UgZ7ZyuT2HPfatWt3O3PmzDKtUoTpZfKizuL/mxIv18s/C0vQBFwKAn4jgKD7DbW3b2SixKeeeqr20aNHR6v15LN6gNYSEZOQ9aEqkSXt3bv3XWWzf+1tSiU7e8O8e/fuzdSZboaW1Z9RRnsFLSub/+fvStTz9e+7tWc+Uf3kPVcDf+TIkbUk3ul6oWwnX8yvVavWQi2/p4waNepmyVqBq0HAfwQQdP+x9uydTGa19ikbqbzoVBXs6C5ReUhR+WUtc77ZvHnzlA8++OD3lG8tWfcw2xqDBg36kSLzmcpRGKCrB5lldomXicxv6N+3tmjRYoFscqRk7+z8q0m4ay5fvnzMlStX/kXReaD8MUuJmTNVaMdzqxTOtxYjLA4BBL04tPhssQiYCDE+Pr5GUlLSC5cuXRqiX25sGn5IWE6avuUqObpV56Gvk8VeLKxF+rDO7bfct29fvLYynlBhnmBF5KZE+11F6l8rqz1LbWanx8XFmTr4nmoDarYgatSoEa3SrtGqWx+i/I0jitYHK5/jc6+xKJIj8SFXEUDQXWUudw1WkdAPFfVEK/EqSg/LKnqY3lRE9LGWgf91woQJvyOL3Tf2FPcKOrs/X4VjhkqwdBKralllcZvI/LaW3T9W4teEjz766Le+ubtzr2pWLUz73a1bt66XPzYSm7M6xhevlqhvkITpXLsxsqITQNCLzopPFpGAyR4eNmxY+xMnToyVmD+pSKiKIsNcNb1YpQIeW9euXXuCaKiIMIvxMbMi0rdv37qKzIdLwMdoeb2a2Jc1JV3F/ysVj9mjAj7xhw4dMp3TPHU8zYh5ly5dOh88eHCKhLyzqVevynATdGzyDRUtYt+8GH7GR51LAEF3rm1cOTLTVCUtLa2HosOp2ptsbtpw6uukko5eVfvTVK8JiT+NqBelYBXieUVnzQdLwKppa+O7/78l5re05H6oadOmkz/99FNPdg1T05UfaJ98g5i0E48A8Xg/Kiqq32uvveapIjr+9Efu5X8CCLr/mVt5RxMBKfoO01LuOAl4pCZZWZHQV0p8+zA8PHyWSb6SmJv+2nz5gIA5Dqgz/H1V8W2xBKu6blHWtEEV81uK0H/foEGDRZ999plptuKpyNygXr9+feXp06cP0FFJU42wmv7qNzqX/8q2bdv2+8AUXBICpUYAQS819PbcWJFhhdWrV//k8OHD43S++ScS9EoSkWvaL1+gVpRvKAGL8q0+NLf2gCuo0lukBGus+IdLyBWAPmAicyPep9TTPOHy5csbvCjmphGNKhL2unDhwhxt/zTUC+Y1Lb0P27Vr1685WeFDp+TSpUIAQS8V7Hbc1GQMjx07tu66detGKJt6hInKTUSofdv3JTBJqsK1U+d6aariQ3PrjHkFvVC119HA17W9UVff5bRXXkb2KJR45ant7HwV60nzYgKimASqhHCEMtpX6iUn1PBQgmC6EgbnDRkyhJoHPvRLLl06BBD00uHu+ruayEdduzqePn16siKftnpYVlFkfl7H0VK7du2aqX7mx8kc9q2ZJeZVhg4d2kvtZqdrNaSJRKu8BL2MbPGtVkhyJOYrU1NT12t52ZPipQTBplu2bFmh1YoOpsyt6rTP0tJ7qk5YXPKtZbg6BEqHAIJeOtxdfVcTFeph+bSCwLmmd7Qelt9qQnkNGzack5yc7Kk+2qVlSLM6okTD57SUvFAReS29VD2gF6oySvq6o5X2q2FhYTO1rLxW/eVvldYYS/O+2jf/oRIEZ2sLYrDYlFFZ13dVD2G8XoAulOa4uDcEfEkAQfclXcuubRLf9EBs8N577/1M+7VRelDWUxR+IyQk5E2d5920ePHi9+lS5Xuj39sX/rGWkhfphaq1jmA9oKj8rrY6TOGYc4pEf/Xiiy8u1NKyJyNRLbVX1Fn8sUoCfFnReYgsclwvNpM///zz3fJXcx6fLwhYSQBBt9KsJT8pIyI64tNOmcHzJSDNVLq1in5e1p1eXbhwYbKW3/NL/q5c8W8R0LbGk4o8l5gkL4l4RZPNLuG6pZ9fqtnKa2pyk6w65de9SE8vneXUM6CLVieS9edQMfhDq1atJqo2wjaS4LzoEd6aM4LuLXsXe7amWInO8FZKTEwcprPlQyTizSXmARKUUyohmqQs9l/pfK8Rdr78QMDYQysig3X8arTJW9At72qp/Wv9/SWVNH1XVfg2rlmz5oofhuK4Wxg2S5cuDZc/ztLLzU+VR5AfGhq6XEmDSawcOc5cDMgHBBB0H0C15ZLaKy/30ksvPZqXlxcpIR+oeZVXRHhVD8vdioJSRowYcUitJj13rrm07WuWlHXevKIZhynp+vDDD5viPbcHDx58y8uJiBEREXX279+/SkLeSS88d5TRnpGenj75mWee8eRqRWn7Kff3PwEE3f/MHX9HE+ls3769kpKKWubm5iYqEgzX3qzyrR48qyjwdZ05T+vWrdtl9iMdb0rPDFDCHRQdHT1RTYCmmlwPifouCfnkzZs3H/UMBCbqeQIIuudd4K8BmOxpNbBopj3Ifopyeisib6SjUF9LzN9VJJimM83ZqghXCDYIOIWAOXWh7nKxesGM0lZQTfPi2atXr0ES82xeOp1iJcbhDwIIuj8ou+QeJqGoZ8+eLdTcY67EvJMehgrOA/Ik6plz5859NSYm5iuaqrjEmB4ZpllNUsnbVhLv95QYGKT/vqal9iUZGRmL5cuUGvaIHzDNPxNA0PGE7wiYfVmVyOxx48YNcxyti5Ys72qvPEdZ0ykqxPGmBP1LUEHAaQR0jLKZkt4mScx/bpIDJeYr5s2blyJfPue0sTIeCPiaAILua8IOv75JfFN51obHjh2LlIhHarhV9LNASXDvP/bYY4t13Od3Xk60crj5PDs8E5kPGDAgfMOGDSk6d/9j1aoPDA4OzkhJSfmFEjXZEvKsZ3h74gi6h+1vmqokJCS0Vd/yOEU4bbW0Xk57kOYs80odVcscPXr0BcTcww7i4Knv2LHjIVUrnK1VpChVLCwnPz3YpEmT2JycnGwHD5uhQcCnBBB0n+J15sVNFrCOnTVRdB6jB2JfCXiQltnvKPntgM44z8jKyjqoc7umnCtfEHAcAZVwrRIbGztZ20MT7vUQyG3Xrl2f7Oxs0z8Av3WcxRiQvwgg6P4i7aD7qPhIPZVvna+H3z/rgRgkUTdnyXOGDRv2ss4yH0LMHWQshvJXBPQyWr5jx469Dxw4kKhs9po6TnlT++ardC5/JhntOIvXCSDoHvOAkSNHVtKZ3Z/fvHmzpSLzyhLzP+oh+bGE/C2dLz/rMRxM12UE5L8/yMzMHGKaAikJrrx6CHyovfR01W6n9LDLbMlwS54Agl7yTB19RZNMpKXJCurGFXD27Nm79wb7zeOPP07fckdbjsEZAsZ/9eMB+XCgtokCu3Tp8idF5lQrxD0gIAIIOm4AAQhAAAIQsIAAgm6BEZkCBCAAAQhAAEHHByAAAQhAAAIWEEDQLTAiU4AABCAAAQgg6PgABCAAAQhAwAICCLoFRmQKEIAABCAAAQQdH4AABCAAAQhYQABBt8CITAECEIAABCCAoOMDEIAABCAAAQsIIOgWGJEpQAACEIAABBB0fAACEIAABCBgAQEE3QIjMgUIQAACEIAAgo4PQAACEIAABCwggKBbYESmAAEIQAACEEDQ8QEIQAACEICABQQQdAuMyBQgAAEIQAACCDo+AAEIQAACELCAAIJugRGZAgQgAAEIQABBxwcgAAEIQAACFhBA0C0wIlOAAAQgAAEIIOj4AAQgAAEIQMACAgi6BUZkChCAAAQgAAEEHR+AAAQgAAEIWEAAQbfAiEwBAhCAAAQggKDjAxCAAAQgAAELCCDoFhiRKUAAAhCAAAQQdHwAAhCAAAQgYAEBBN0CIzIFCEAAAhCAAIKOD0AAAhCAAAQsIICgW2BEpgABCEAAAhBA0PEBCEAAAhCAgAUEEHQLjMgUIAABCEAAAgg6PgABCEAAAhCwgACCboERmQIEIAABCEAAQccHIAABCEAAAhYQQNAtMCJTgAAEIAABCCDo+AAEIAABCEDAAgIIugVGZAoQgAAEIAABBB0fgAAEIAABCFhAAEG3wIhMAQIQgAAEIICg4wMQgAAEIAABCwgg6BYYkSlAAAIQgAAEEHR8AAIQgAAEIGABAQTdAiMyBQhAAAIQgACCjg9AAAIQgAAELCCAoFtgRKYAAQhAAAIQQNDxAQhAAAIQgIAFBBB0C4zIFCAAAQhAAAIIOj4AAQhAAAIQsIAAgm6BEZkCBCAAAQhAAEHHByAAAQhAAAIWEEDQLTAiU4AABCAAAQgg6PgABCAAAQhAwAICCLoFRmQKEIAABCAAAQQdH4AABCAAAQhYQABBt8CITAECEIAABCCAoOMDEIAABCAAAQsIIOgWGJEpQAACEIAABBB0fAACEIAABCBgAQEE3QIjMgUIQAACEIAAgo4PQAACEIAABCwggKBbYESmAAEIQAACEEDQ8QEIQAACEICABQQQdAuMyBQgAAEIQAACCDo+AAEIQAACELCAAIJugRGZAgQgAAEIQABBxwcgAAEIQAACFhBA0C0wIlOAAAQgAAEIIOj4AAQgAAEIQMACAgi6BUZkChCAAAQgAAEEHR+AAAQgAAEIWEAAQbfAiEwBAhCAAAQggKDjAxCAAAQgAAELCCDoFhiRKUAAAhCAAAQQdHwAAhCAAAQgYAEBBN0CIzIFCEAAAhCAAIKOD0AAAhCAAAQsIICgW2BEpgABCEAAAhBA0PEBCEAAAhCAgAUEEHQLjMgUIAABCEAAAgg6PgABCEAAAhCwgACCboERmQIEIAABCEAAQccHIAABCEAAAhYQQNAtMCJTgFeBNsMAAAFASURBVAAEIAABCCDo+AAEIAABCEDAAgIIugVGZAoQgAAEIAABBB0fgAAEIAABCFhAAEG3wIhMAQIQgAAEIICg4wMQgAAEIAABCwgg6BYYkSlAAAIQgAAEEHR8AAIQgAAEIGABAQTdAiMyBQhAAAIQgACCjg9AAAIQgAAELCCAoFtgRKYAAQhAAAIQQNDxAQhAAAIQgIAFBBB0C4zIFCAAAQhAAAIIOj4AAQhAAAIQsIAAgm6BEZkCBCAAAQhAAEHHByAAAQhAAAIWEEDQLTAiU4AABCAAAQgg6PgABCAAAQhAwAICCLoFRmQKEIAABCAAAQQdH4AABCAAAQhYQABBt8CITAECEIAABCCAoOMDEIAABCAAAQsIIOgWGJEpQAACEIAABBB0fAACEIAABCBgAQEE3QIjMgUIQAACEIDAfwMRfcgQsngqgAAAAABJRU5ErkJggg==;" vertex="1" parent="1">
          <mxGeometry x="267" y="260" width="120" height="120" as="geometry" />
        </mxCell>
        <mxCell id="pwwUaT36gZQOdsGTII0K-10" value="Nearby roads" style="text;html=1;align=center;verticalAlign=middle;resizable=0;points=[];autosize=1;strokeColor=none;fillColor=none;" vertex="1" parent="1">
          <mxGeometry x="317" y="360" width="90" height="30" as="geometry" />
        </mxCell>
        <mxCell id="pwwUaT36gZQOdsGTII0K-11" style="edgeStyle=orthogonalEdgeStyle;rounded=0;orthogonalLoop=1;jettySize=auto;html=1;" edge="1" parent="1" source="pwwUaT36gZQOdsGTII0K-2">
          <mxGeometry relative="1" as="geometry">
            <mxPoint x="290" y="290" as="targetPoint" />
          </mxGeometry>
        </mxCell>
        <mxCell id="pwwUaT36gZQOdsGTII0K-19" value="Temperature" style="text;html=1;align=center;verticalAlign=middle;resizable=0;points=[];autosize=1;strokeColor=none;fillColor=none;" vertex="1" parent="1">
          <mxGeometry x="563" y="225" width="90" height="30" as="geometry" />
        </mxCell>
        <mxCell id="pwwUaT36gZQOdsGTII0K-20" value="Humidity" style="text;html=1;align=center;verticalAlign=middle;resizable=0;points=[];autosize=1;strokeColor=none;fillColor=none;" vertex="1" parent="1">
          <mxGeometry x="573" y="255" width="70" height="30" as="geometry" />
        </mxCell>
        <mxCell id="pwwUaT36gZQOdsGTII0K-21" value="Rainfall" style="text;html=1;align=center;verticalAlign=middle;resizable=0;points=[];autosize=1;strokeColor=none;fillColor=none;" vertex="1" parent="1">
          <mxGeometry x="578" y="285" width="60" height="30" as="geometry" />
        </mxCell>
        <mxCell id="pwwUaT36gZQOdsGTII0K-22" value="Transits" style="text;html=1;align=center;verticalAlign=middle;resizable=0;points=[];autosize=1;strokeColor=none;fillColor=none;" vertex="1" parent="1">
          <mxGeometry x="573" y="314" width="70" height="30" as="geometry" />
        </mxCell>
        <mxCell id="pwwUaT36gZQOdsGTII0K-23" value="" style="endArrow=classic;html=1;rounded=0;" edge="1" parent="1">
          <mxGeometry width="50" height="50" relative="1" as="geometry">
            <mxPoint x="647" y="285" as="sourcePoint" />
            <mxPoint x="697" y="285" as="targetPoint" />
          </mxGeometry>
        </mxCell>
        <mxCell id="pwwUaT36gZQOdsGTII0K-24" value="&lt;div&gt;Data&lt;/div&gt;&lt;div&gt;processing&lt;br&gt;&lt;/div&gt;" style="verticalLabelPosition=bottom;sketch=0;aspect=fixed;html=1;verticalAlign=top;strokeColor=none;align=center;outlineConnect=0;shape=mxgraph.citrix.process;" vertex="1" parent="1">
          <mxGeometry x="717" y="245" width="52" height="62" as="geometry" />
        </mxCell>
        <mxCell id="pwwUaT36gZQOdsGTII0K-25" value="" style="endArrow=classic;html=1;rounded=0;" edge="1" parent="1">
          <mxGeometry width="50" height="50" relative="1" as="geometry">
            <mxPoint x="782" y="285" as="sourcePoint" />
            <mxPoint x="832" y="285" as="targetPoint" />
          </mxGeometry>
        </mxCell>
        <mxCell id="pwwUaT36gZQOdsGTII0K-26" value="&lt;font face=&quot;Comic Sans MS&quot;&gt;Model&lt;/font&gt;" style="rounded=1;whiteSpace=wrap;html=1;fillColor=#f5f5f5;fontColor=#333333;strokeColor=#666666;" vertex="1" parent="1">
          <mxGeometry x="842" y="255" width="120" height="60" as="geometry" />
        </mxCell>
        <mxCell id="pwwUaT36gZQOdsGTII0K-27" value="" style="shape=curlyBracket;whiteSpace=wrap;html=1;rounded=1;labelPosition=left;verticalLabelPosition=middle;align=right;verticalAlign=middle;" vertex="1" parent="1">
          <mxGeometry x="962" y="250" width="20" height="80" as="geometry" />
        </mxCell>
        <mxCell id="pwwUaT36gZQOdsGTII0K-28" value="&lt;ul&gt;&lt;li&gt;&lt;font face=&quot;Comic Sans MS&quot;&gt;Road Crack severity&lt;/font&gt;&lt;/li&gt;&lt;/ul&gt;&lt;ul&gt;&lt;li&gt;&lt;font face=&quot;Comic Sans MS&quot;&gt;Road Pothole severity&lt;/font&gt;&lt;br&gt;&lt;/li&gt;&lt;/ul&gt;" style="text;strokeColor=none;fillColor=none;html=1;whiteSpace=wrap;verticalAlign=middle;overflow=hidden;" vertex="1" parent="1">
          <mxGeometry x="950" y="231.25" width="160" height="117.5" as="geometry" />
        </mxCell>
      </root>
    </mxGraphModel>
  </diagram>
</mxfile>
